SplineFontDB: 3.0
FontName: NothingYouCouldDo
FullName: Nothing You Could Do
FamilyName: Nothing You Could Do
Weight: Book
Copyright: Copyright (c) 2010, Kimberly Geswein (kimberlygeswein.com)
Version: 1.004 2010
ItalicAngle: 0
UnderlinePosition: -52
UnderlineWidth: 51
Ascent: 819
Descent: 205
sfntRevision: 0x00010106
LayerCount: 2
Layer: 0 1 "Back"  1
Layer: 1 1 "Fore"  0
XUID: [1021 288 713564382 3712631]
FSType: 0
OS2Version: 3
OS2_WeightWidthSlopeOnly: 0
OS2_UseTypoMetrics: 1
CreationTime: 1283963811
ModificationTime: 1304687144
PfmFamily: 17
TTFWeight: 400
TTFWidth: 5
LineGap: 0
VLineGap: 0
Panose: 2 0 0 0 0 0 0 0 0 0
OS2TypoAscent: 380
OS2TypoAOffset: 1
OS2TypoDescent: -304
OS2TypoDOffset: 1
OS2TypoLinegap: 0
OS2WinAscent: 0
OS2WinAOffset: 1
OS2WinDescent: 0
OS2WinDOffset: 1
HheadAscent: 0
HheadAOffset: 1
HheadDescent: 0
HheadDOffset: 1
OS2SubXSize: 717
OS2SubYSize: 666
OS2SubXOff: 0
OS2SubYOff: 143
OS2SupXSize: 717
OS2SupYSize: 666
OS2SupXOff: 0
OS2SupYOff: 488
OS2StrikeYSize: 51
OS2StrikeYPos: 256
OS2Vendor: 'PYRS'
OS2CodePages: 00000001.00000000
OS2UnicodeRanges: a000002f.4000004a.00000000.00000000
MarkAttachClasses: 1
DEI: 91125
TtTable: prep
PUSHW_1
 511
SCANCTRL
PUSHB_1
 4
SCANTYPE
EndTTInstrs
TtTable: fpgm
PUSHW_1
 0
FDEF
MPPEM
PUSHW_1
 9
LT
IF
PUSHB_2
 1
 1
INSTCTRL
EIF
PUSHW_1
 511
SCANCTRL
PUSHW_1
 68
SCVTCI
PUSHW_2
 9
 3
SDS
SDB
ENDF
PUSHW_1
 1
FDEF
DUP
DUP
RCVT
ROUND[Black]
WCVTP
PUSHB_1
 1
ADD
ENDF
PUSHW_1
 2
FDEF
PUSHW_1
 1
LOOPCALL
POP
ENDF
PUSHW_1
 3
FDEF
DUP
GC[cur]
PUSHB_1
 3
CINDEX
GC[cur]
GT
IF
SWAP
EIF
DUP
ROLL
DUP
ROLL
MD[grid]
ABS
ROLL
DUP
GC[cur]
DUP
ROUND[Grey]
SUB
ABS
PUSHB_1
 4
CINDEX
GC[cur]
DUP
ROUND[Grey]
SUB
ABS
GT
IF
SWAP
NEG
ROLL
EIF
MDAP[rnd]
DUP
PUSHB_1
 0
GTEQ
IF
ROUND[Black]
DUP
PUSHB_1
 0
EQ
IF
POP
PUSHB_1
 64
EIF
ELSE
ROUND[Black]
DUP
PUSHB_1
 0
EQ
IF
POP
PUSHB_1
 64
NEG
EIF
EIF
MSIRP[no-rp0]
ENDF
PUSHW_1
 4
FDEF
DUP
GC[cur]
PUSHB_1
 4
CINDEX
GC[cur]
GT
IF
SWAP
ROLL
EIF
DUP
GC[cur]
DUP
ROUND[White]
SUB
ABS
PUSHB_1
 4

StartChar: exclam
Encoding: 33 33 4
Width: 332
Flags: HW
LayerCount: 2
Fore
SplineSet
45 2.5 m 0,0,1
 30 4 30 4 17 24 c 0,2,3
 9.13953488372 36.0930232558 9.13953488372 36.0930232558 9.13953488372 47.27203894 c 0,4,5
 9.13953488372 54.5813953488 9.13953488372 54.5813953488 12.5 61.5 c 0,6,7
 21 79 21 79 35.5 90.5 c 128,-1,8
 50 102 50 102 65 103 c 128,-1,9
 80 104 80 104 84.5 85.5 c 0,10,11
 86.8823529412 75.7058823529 86.8823529412 75.7058823529 86.8823529412 65.3512110727 c 0,12,13
 86.8823529412 56.1470588235 86.8823529412 56.1470588235 85 46.5 c 0,14,15
 81 26 81 26 70.5 13.5 c 0,16,17
 61.125 2.33928571429 61.125 2.33928571429 48.162627551 2.33928571429 c 0,18,19
 46.6071428571 2.33928571429 46.6071428571 2.33928571429 45 2.5 c 0,0,1
85 381 m 0,20,21
 83.6516821727 384.595514206 83.6516821727 384.595514206 83.6516821727 391.675622674 c 0,22,23
 83.6516821727 432.280887604 83.6516821727 432.280887604 128 587.5 c 0,24,25
 206.3125 861.59375 206.3125 861.59375 269 933.5 c 0,26,27
 281.509433962 947.849056604 281.509433962 947.849056604 291.852972588 947.849056604 c 0,28,29
 295.566037736 947.849056604 295.566037736 947.849056604 299 946 c 1,30,31
 299.330114702 943.689197088 299.330114702 943.689197088 299.330114702 940.323981591 c 0,32,33
 299.330114702 899.395623797 299.330114702 899.395623797 250.5 702.5 c 0,34,35
 166.538461538 363.945409429 166.538461538 363.945409429 112.5 350 c 0,36,37
 110.91025641 349.58974359 110.91025641 349.58974359 109.357330703 349.58974359 c 0,38,39
 95.7692307692 349.58974359 95.7692307692 349.58974359 85 381 c 0,20,21
EndSplineSet
EndChar

StartChar: quotedbl
Encoding: 34 34 5
Width: 355
Flags: HW
LayerCount: 2
Fore
SplineSet
238 503.5 m 128,-1,1
 232 509 232 509 230 512.5 c 0,2,3
 217 535.25 217 535.25 217 539 c 2,4,-1
 217 751 l 1,5,6
 228.403508772 756.701754386 228.403508772 756.701754386 237.614035088 756.701754386 c 0,7,8
 263.403508772 756.701754386 263.403508772 756.701754386 272 712 c 0,9,10
 277.125935499 685.345135406 277.125935499 685.345135406 277.125935499 655.189208431 c 0,11,12
 277.125935499 597.705449188 277.125935499 597.705449188 258.5 527.5 c 0,13,14
 252 503 252 503 246 497 c 1,15,0
 244 498 244 498 238 503.5 c 128,-1,1
117.5 709 m 128,-1,17
 124 698 124 698 129 687.375 c 128,-1,18
 134 676.75 134 676.75 134 619.375 c 0,19,20
 134 527 134 527 132 525 c 2,21,-1
 118 511 l 1,22,23
 108.888888889 515.555555556 108.888888889 515.555555556 99.9444444444 525.777777778 c 128,-1,24
 91 536 91 536 87.5 546 c 128,-1,25
 84 556 84 556 81 582.5 c 128,-1,26
 78 609 78 609 76.5 637 c 128,-1,27
 75 665 75 665 75 691.5 c 128,-1,28
 75 718 75 718 75.5 734 c 128,-1,29
 76 750 76 750 80 752 c 0,30,31
 81 752.5 81 752.5 82.15625 752.5 c 0,32,33
 85.625 752.5 85.625 752.5 90.5 748 c 0,34,35
 97 742 97 742 104 731 c 128,-1,16
 111 720 111 720 117.5 709 c 128,-1,17
EndSplineSet
EndChar

StartChar: numbersign
Encoding: 35 35 6
Width: 861
Flags: HW
LayerCount: 2
Fore
SplineSet
402 14 m 0,0,1
 400.315789474 23.6842105263 400.315789474 23.6842105263 400.315789474 34.0775623269 c 0,2,3
 400.315789474 48.3684210526 400.315789474 48.3684210526 403.5 64 c 0,4,5
 409 91 409 91 415 117.5 c 0,6,7
 423.474519528 154.929127917 423.474519528 154.929127917 423.474519528 179.535318397 c 0,8,9
 423.474519528 214.3598741 423.474519528 214.3598741 406.5 223.5 c 0,10,11
 394.262068966 230.089655172 394.262068966 230.089655172 381.131034483 228.544827586 c 128,-1,12
 368 227 368 227 347 224 c 128,-1,13
 326 221 326 221 308.5 206.5 c 128,-1,14
 291 192 291 192 283 172 c 128,-1,15
 275 152 275 152 272.5 129 c 128,-1,16
 270 106 270 106 265.5 84.5 c 128,-1,17
 261 63 261 63 251.5 44 c 128,-1,18
 242 25 242 25 219 14 c 1,19,20
 197 29 197 29 193 49.5 c 0,21,22
 190.866666667 60.4333333333 190.866666667 60.4333333333 190.866666667 72.0777777778 c 0,23,24
 190.866666667 82.2666666667 190.866666667 82.2666666667 192.5 93 c 0,25,26
 196 116 196 116 202 139.5 c 0,27,28
 206 155.166666667 206 155.166666667 206 169.277777778 c 0,29,30
 206 176.333333333 206 176.333333333 205 183 c 1,31,32
 202 183 202 183 176.5 180 c 0,33,34
 154.642857143 177.428571429 154.642857143 177.428571429 128.744897959 177.428571429 c 0,35,36
 124.428571429 177.428571429 124.428571429 177.428571429 120 177.5 c 0,37,38
 38.593495935 178.81300813 38.593495935 178.81300813 22 212 c 0,39,40
 20.6666666667 214.666666667 20.6666666667 214.666666667 20.6666666667 217.111111111 c 0,41,42
 20.6666666667 225.666666667 20.6666666667 225.666666667 37 231.5 c 0,43,44
 58 239 58 239 92 247.5 c 128,-1,45
 126 256 126 256 165.5 268.5 c 128,-1,46
 205 281 205 281 237 302 c 0,47,48
 294.637643048 339.82470325 294.637643048 339.82470325 294.637643048 401.252095386 c 0,49,50
 294.637643048 418.6764873 294.637643048 418.6764873 290 438 c 1,51,52
 287.888763815 438.162402783 287.888763815 438.162402783 285.25681498 438.162402783 c 0,53,54
 267.92028244 438.162402783 267.92028244 438.162402783 227.991071429 431.116071429 c 0,55,56
 182 423 182 423 155.5 420 c 0,57,58
 142.25 418.5 142.25 418.5 130 418.5 c 128,-1,59
 117.75 418.5 117.75 418.5 106.5 420 c 0,60,61
 55.3425925926 426.820987654 55.3425925926 426.820987654 50 466 c 1,62,63
 98.0069444444 486.131944444 98.0069444444 486.131944444 157.503472222 499.065972222 c 128,-1,64
 217 512 217 512 251 519 c 128,-1,65
 285 526 285 526 318 537 c 1,66,-1
 336 570 l 2,67,68
 389.735590587 668.51524941 389.735590587 668.51524941 410.976490144 668.51524941 c 0,69,70
 411.240760037 668.51524941 411.240760037 668.51524941 411.5 668.5 c 0,71,72
 423.027133192 667.821933342 423.027133192 667.821933342 423.027133192 633.071298466 c 0,73,74
 423.027133192 607.943323996 423.027133192 607.943323996 417 565 c 1,75,76
 428.256989946 562.979514625 428.256989946 562.979514625 438.582804978 562.979514625 c 0,77,78
 489.702579786 562.979514625 489.702579786 562.979514625 518 612.5 c 0,79,80
 532 637 532 637 539 665 c 128,-1,81
 546 693 546 693 552 712.5 c 128,-1,82
 558 732 558 732 565.5 736.5 c 0,83,84
 566.967391304 737.380434783 566.967391304 737.380434783 568.607041588 737.380434783 c 0,85,86
 575.347826087 737.380434783 575.347826087 737.380434783 585 722.5 c 0,87,88
 597.571428571 703.119047619 597.571428571 703.119047619 597.571428571 682.132653061 c 0,89,90
 597.571428571 667.5 597.571428571 667.5 595 652.5 c 0,91,92
 592 635 592 635 588.5 617 c 0,93,94
 586.272727273 605.545454545 586.272727273 605.545454545 586.272727273 593.685950413 c 0,95,96
 586.272727273 586.909090909 586.272727273 586.909090909 587 580 c 1,97,98
 623 577 623 577 685 577 c 128,-1,99
 747 577 747 577 778 577.5 c 0,100,101
 785.75 577.625 785.75 577.625 792.8125 577.625 c 0,102,103
 814 577.625 814 577.625 829 576.5 c 0,104,105
 849 575 849 575 852.5 571 c 0,106,107
 853 570.428571429 853 570.428571429 853 569.785714286 c 0,108,109
 853 565.928571429 853 565.928571429 835 559.5 c 0,110,111
 782.557377049 540.770491803 782.557377049 540.770491803 629 509 c 0,112,113
 591 501 591 501 562.5 474 c 128,-1,114
 534 447 534 447 519 416.5 c 0,115,116
 505.363636364 388.772727273 505.363636364 388.772727273 505.363636364 363.938016529 c 0,117,118
 505.363636364 332.498023715 505.363636364 332.498023715 530 325 c 0,119,120
 530.772727273 324.613636364 530.772727273 324.613636364 533.301652893 324.613636364 c 0,121,122
 544.681818182 324.613636364 544.681818182 324.613636364 591.625 332.4375 c 0,123,124
 649 342 649 342 685.5 346 c 0,125,126
 712.045454545 348.909090909 712.045454545 348.909090909 734.359504132 348.909090909 c 0,127,128
 742.727272727 348.909090909 742.727272727 348.909090909 750.5 348.5 c 0,129,130
 779 347 779 347 794 338.5 c 0,131,132
 803 333.4 803 333.4 803 324.16 c 0,133,134
 803 318 803 318 799 310 c 256,135,136
 777.708559047 267.417118093 777.708559047 267.417118093 649.060274976 267.417118093 c 0,137,138
 643.384615385 267.417118093 643.384615385 267.417118093 637.5 267.5 c 0,139,140
 631.974688626 267.577821287 631.974688626 267.577821287 626.630250668 267.577821287 c 0,141,142
 556.0362362 267.577821287 556.0362362 267.577821287 517 254 c 0,143,144
 494 246 494 246 487 226 c 1,145,146
 484 212 484 212 480 180 c 128,-1,147
 476 148 476 148 468.5 112 c 0,148,149
 449.849104859 22.4757033248 449.849104859 22.4757033248 417 0 c 1,150,151
 415 1 415 1 409 6 c 128,-1,152
 403 11 403 11 402 14 c 0,0,1
331 325 m 1,153,-1
 332 297 l 1,154,155
 347.13024088 294.69757204 347.13024088 294.69757204 360.399849154 294.69757204 c 0,156,157
 417.946652104 294.69757204 417.946652104 294.69757204 440.5 338 c 0,158,159
 453 362 453 362 459 395.5 c 128,-1,160
 465 429 465 429 473 466 c 1,161,162
 462.433716748 498.872881229 462.433716748 498.872881229 443.332506291 498.872881229 c 0,163,164
 433.133013831 498.872881229 433.133013831 498.872881229 420.5 489.5 c 0,165,166
 393.645120406 469.575411914 393.645120406 469.575411914 361.5 413 c 0,167,168
 338.516129032 372.548387097 338.516129032 372.548387097 332 353 c 1,169,-1
 331 325 l 1,153,-1
EndSplineSet
EndChar

StartChar: dollar
Encoding: 36 36 7
Width: 593
Flags: HW
LayerCount: 2
Fore
SplineSet
573 755 m 1,0,-1
 572 734 l 1,1,2
 527 731 527 731 485.5 725.5 c 128,-1,3
 444 720 444 720 413.5 703.5 c 0,4,5
 357.511740461 673.21126943 357.511740461 673.21126943 357.511740461 598.482678905 c 0,6,7
 357.511740461 582.728849212 357.511740461 582.728849212 360 565 c 1,8,9
 553.899857932 494.111879896 553.899857932 494.111879896 553.899857932 422.964717954 c 0,10,11
 553.899857932 403.24231176 553.899857932 403.24231176 539 383.5 c 0,12,13
 502.997400065 335.796555086 502.997400065 335.796555086 402.5 289.5 c 0,14,15
 358 269 358 269 318.5 252 c 128,-1,16
 279 235 279 235 250.5 221.5 c 128,-1,17
 222 208 222 208 219 198 c 2,18,-1
 163 29 l 2,19,20
 162 26 162 26 154 17.5 c 128,-1,21
 146 9 146 9 136.5 3 c 128,-1,22
 127.170405938 -2.89237519696 127.170405938 -2.89237519696 120.564086527 -2.89237519696 c 0,23,24
 109.378475039 -2.89237519696 109.378475039 -2.89237519696 106 14 c 1,25,26
 104.47507616 24.2932359209 104.47507616 24.2932359209 104.47507616 35.8003094585 c 0,27,28
 104.47507616 71.9202437116 104.47507616 71.9202437116 119.5 120 c 0,29,30
 127 144 127 144 131.5 164 c 0,31,32
 133.340909091 172.181818182 133.340909091 172.181818182 133.340909091 179.19214876 c 0,33,34
 133.340909091 189.318181818 133.340909091 189.318181818 129.5 197 c 0,35,36
 120.416952055 215.16609589 120.416952055 215.16609589 77.6146439294 215.16609589 c 0,37,38
 59.7457191781 215.16609589 59.7457191781 215.16609589 36 212 c 1,39,40
 21 223 21 223 21 240 c 128,-1,41
 21 257 21 257 36 268 c 1,42,43
 100 268 100 268 171.5 294 c 0,44,45
 177 296 177 296 177 297 c 2,46,-1
 248 495 l 2,47,48
 253 510 253 510 240 522.5 c 128,-1,49
 227 535 227 535 206.5 548 c 128,-1,50
 186 561 186 561 162.5 574.5 c 128,-1,51
 139 588 139 588 123 605 c 0,52,53
 104.252399852 624.919325157 104.252399852 624.919325157 104.252399852 647.351478071 c 0,54,55
 104.252399852 668.553359793 104.252399852 668.553359793 121 692 c 0,56,57
 134 710 134 710 159.5 718.5 c 128,-1,58
 185 727 185 727 214 733 c 128,-1,59
 243 739 243 739 271.5 745 c 128,-1,60
 300 751 300 751 318 763 c 0,61,62
 327.596774194 769.85483871 327.596774194 769.85483871 344.298387097 812.927419355 c 128,-1,63
 361 856 361 856 372 880.5 c 128,-1,64
 383 905 383 905 394.5 919.5 c 0,65,66
 404.858446104 932.560649435 404.858446104 932.560649435 415.078148905 932.560649435 c 0,67,68
 430.190774367 932.560649435 430.190774367 932.560649435 445 904 c 0,69,70
 449.078185328 895.843629344 449.078185328 895.843629344 449.078185328 885.010457507 c 128,-1,71
 449.078185328 874.260617761 449.078185328 874.260617761 445.0625 860.875 c 0,72,73
 437 834 437 834 433 819 c 128,-1,74
 429 804 429 804 431 791 c 1,75,-1
 558 791 l 2,76,77
 561 791 561 791 566 785.5 c 128,-1,78
 571 780 571 780 572 777 c 2,79,-1
 573 755 l 1,0,-1
275 310 m 1,80,81
 284.73961525 308.260782991 284.73961525 308.260782991 295.011678955 308.260782991 c 0,82,83
 339.917868957 308.260782991 339.917868957 308.260782991 395 341.5 c 0,84,85
 454.298507463 377.28358209 454.298507463 377.28358209 487 424 c 1,86,87
 486 445 486 445 472 462 c 128,-1,88
 458 479 458 479 437 488 c 0,89,90
 419 495.714285714 419 495.714285714 397.693877551 495.714285714 c 0,91,92
 394.142857143 495.714285714 394.142857143 495.714285714 390.5 495.5 c 0,93,94
 365 494 365 494 342 479 c 0,95,96
 287.680382775 443.574162679 287.680382775 443.574162679 275 353 c 1,97,-1
 275 310 l 1,80,81
205 607 m 0,98,99
 235.545454545 586.054545455 235.545454545 586.054545455 253.90446281 586.054545455 c 0,100,101
 256.581818182 586.054545455 256.581818182 586.054545455 259 586.5 c 0,102,103
 278 590 278 590 284 606.5 c 0,104,105
 287.272727273 615.5 287.272727273 615.5 287.272727273 625.987603306 c 0,106,107
 287.272727273 634.727272727 287.272727273 634.727272727 285 644.5 c 0,108,109
 280 666 280 666 266.5 678.5 c 0,110,111
 256.272727273 687.96969697 256.272727273 687.96969697 242.601928375 687.96969697 c 0,112,113
 238.227272727 687.96969697 238.227272727 687.96969697 233.5 687 c 0,114,115
 214 683 214 683 191 649 c 0,116,117
 185.9375 641.6875 185.9375 641.6875 185.9375 634.849609375 c 0,118,119
 185.9375 629.53125 185.9375 629.53125 189 624.5 c 0,120,121
 196 613 196 613 205 607 c 0,98,99
EndSplineSet
EndChar

StartChar: percent
Encoding: 37 37 8
Width: 410
Flags: HW
LayerCount: 2
Fore
SplineSet
29 65 m 1,0,1
 17 83 17 83 14 92 c 1,2,3
 59.6671328671 192.213986014 59.6671328671 192.213986014 139.833566434 331.106993007 c 128,-1,4
 220 470 220 470 261.5 545.5 c 128,-1,5
 303 621 303 621 339 699 c 1,6,7
 349.453358299 702.635950713 349.453358299 702.635950713 357.315123992 702.635950713 c 0,8,9
 381.140625 702.635950713 381.140625 702.635950713 381.140625 670.026367188 c 0,10,11
 381.140625 647.8515625 381.140625 647.8515625 368 615 c 1,12,13
 316.056179775 503.242083759 316.056179775 503.242083759 250.028089888 386.621041879 c 2,14,-1
 145.5 202 l 2,15,16
 107 134 107 134 71 65 c 1,17,18
 59.1724137931 48.9482758621 59.1724137931 48.9482758621 48.6724137931 48.9482758621 c 128,-1,19
 38.1724137931 48.9482758621 38.1724137931 48.9482758621 29 65 c 1,0,1
283 150 m 0,20,21
 279.8 159.6 279.8 159.6 279.8 166.88 c 0,22,23
 279.8 177.8 279.8 177.8 287 183.5 c 0,24,25
 299 193 299 193 315 190.5 c 128,-1,26
 331 188 331 188 341 174 c 0,27,28
 345.545454545 167.636363636 345.545454545 167.636363636 345.545454545 159 c 0,29,30
 345.545454545 148.636363636 345.545454545 148.636363636 339 135 c 1,31,32
 327.636363636 130.454545455 327.636363636 130.454545455 317.099173554 130.454545455 c 0,33,34
 304.454545455 130.454545455 304.454545455 130.454545455 293 137 c 0,35,36
 286 141 286 141 283 150 c 0,20,21
29 65 m 1,37,38
 38.1724137931 48.9482758621 38.1724137931 48.9482758621 48.6724137931 48.9482758621 c 128,-1,39
 59.1724137931 48.9482758621 59.1724137931 48.9482758621 71 65 c 1,40,41
 107 134 107 134 145.5 202 c 2,42,-1
 250.028089888 386.621041879 l 2,43,44
 316.056179775 503.242083759 316.056179775 503.242083759 368 615 c 1,45,46
 381.140625 647.8515625 381.140625 647.8515625 381.140625 670.026367188 c 0,47,48
 381.140625 702.635950713 381.140625 702.635950713 357.315123992 702.635950713 c 0,49,50
 349.453358299 702.635950713 349.453358299 702.635950713 339 699 c 1,51,52
 303 621 303 621 261.5 545.5 c 128,-1,53
 220 470 220 470 139.833566434 331.106993007 c 128,-1,54
 59.6671328671 192.213986014 59.6671328671 192.213986014 14 92 c 1,55,56
 17 83 17 83 29 65 c 1,37,38
283 150 m 0,57,58
 286 141 286 141 293 137 c 0,59,60
 304.454545455 130.454545455 304.454545455 130.454545455 317.099173554 130.454545455 c 0,61,62
 327.636363636 130.454545455 327.636363636 130.454545455 339 135 c 1,63,64
 345.545454545 148.636363636 345.545454545 148.636363636 345.545454545 159 c 0,65,66
 345.545454545 167.636363636 345.545454545 167.636363636 341 174 c 0,67,68
 331 188 331 188 315 190.5 c 128,-1,69
 299 193 299 193 287 183.5 c 0,70,71
 279.8 177.8 279.8 177.8 279.8 166.88 c 0,72,73
 279.8 159.6 279.8 159.6 283 150 c 0,57,58
92 594.5 m 0,74,75
 85 598 85 598 79.5 614.5 c 0,76,77
 77.7714285714 619.685714286 77.7714285714 619.685714286 77.7714285714 624.229387755 c 0,78,79
 77.7714285714 634.142857143 77.7714285714 634.142857143 86 641 c 0,80,81
 95.6 649 95.6 649 107.76 649 c 0,82,83
 110.8 649 110.8 649 114 648.5 c 0,84,85
 130 646 130 646 140 631.5 c 0,86,87
 144.545454545 624.909090909 144.545454545 624.909090909 144.545454545 616.355371901 c 0,88,89
 144.545454545 606.090909091 144.545454545 606.090909091 138 593 c 1,90,91
 126.924827793 588.569931117 126.924827793 588.569931117 116.231763953 588.569931117 c 0,92,93
 103.860137766 588.569931117 103.860137766 588.569931117 92 594.5 c 0,94,95
 85 598 85 598 79.5 614.5 c 0,96,97
 77.7714285714 619.685714286 77.7714285714 619.685714286 77.7714285714 624.229387755 c 0,98,99
 77.7714285714 634.142857143 77.7714285714 634.142857143 86 641 c 0,100,101
 95.6 649 95.6 649 107.76 649 c 0,102,103
 110.8 649 110.8 649 114 648.5 c 0,104,105
 130 646 130 646 140 631.5 c 0,106,107
 144.545454545 624.909090909 144.545454545 624.909090909 144.545454545 616.355371901 c 0,108,109
 144.545454545 606.090909091 144.545454545 606.090909091 138 593 c 1,110,111
 126.924827793 588.569931117 126.924827793 588.569931117 116.231763953 588.569931117 c 0,112,113
 103.860137766 588.569931117 103.860137766 588.569931117 92 594.5 c 0,74,75
EndSplineSet
EndChar

StartChar: ampersand
Encoding: 38 38 9
Width: 480
Flags: HW
LayerCount: 2
Fore
SplineSet
135 -73 m 1,0,1
 124.649628543 -63.9434249751 124.649628543 -63.9434249751 124.649628543 -28.1424940364 c 0,2,3
 124.649628543 3.03645378153 124.649628543 3.03645378153 132.5 54.5 c 0,4,5
 150.74251497 174.089820359 150.74251497 174.089820359 149 195 c 1,6,7
 35.4518703242 222.471321696 35.4518703242 222.471321696 23.5 260.5 c 0,8,9
 21.8648648649 265.702702703 21.8648648649 265.702702703 21.8648648649 270.993791088 c 0,10,11
 21.8648648649 283.5 21.8648648649 283.5 31 296.5 c 0,12,13
 44 315 44 315 66 335.5 c 128,-1,14
 88 356 88 356 114 377.5 c 128,-1,15
 140 399 140 399 160.5 422 c 0,16,17
 196.348838246 462.220647788 196.348838246 462.220647788 196.348838246 496.688120999 c 0,18,19
 196.348838246 508.693020562 196.348838246 508.693020562 192 520 c 1,20,21
 177.616757548 517.12335151 177.616757548 517.12335151 164.190359918 517.12335151 c 0,22,23
 128.45628996 517.12335151 128.45628996 517.12335151 99.5 537.5 c 0,24,25
 86 547 86 547 78 564 c 0,26,27
 75.7543859649 568.771929825 75.7543859649 568.771929825 75.7543859649 574.016620499 c 0,28,29
 75.7543859649 587.456140351 75.7543859649 587.456140351 90.5 604 c 0,30,31
 111 627 111 627 141 652.5 c 128,-1,32
 171 678 171 678 199.5 705 c 128,-1,33
 228 732 228 732 234 759 c 0,34,35
 273.73558681 938.85581398 273.73558681 938.85581398 287.753464341 938.85581398 c 0,36,37
 291.117124731 938.85581398 291.117124731 938.85581398 293 928.5 c 0,38,39
 297.619047619 903.095238095 297.619047619 903.095238095 299.30952381 840.547619048 c 128,-1,40
 301 778 301 778 305 746 c 1,41,42
 313.55 741.95 313.55 741.95 322.1 741.95 c 0,43,-1
 343 748 l 0,44,45
 362 759 362 759 381 774 c 128,-1,46
 400 789 400 789 420 800 c 0,47,48
 431 806.05 431 806.05 442.3025 806.05 c 0,49,50
 451.55 806.05 451.55 806.05 461 802 c 1,51,52
 463.183888704 793.264445182 463.183888704 793.264445182 463.183888704 785.133603161 c 0,53,54
 463.183888704 748.768827058 463.183888704 748.768827058 419.5 724.5 c 0,55,56
 397 712 397 712 370 702 c 128,-1,57
 343 692 343 692 321.5 679.5 c 0,58,59
 285.850537812 658.773568495 285.850537812 658.773568495 285.850537812 628.967676015 c 0,60,61
 285.850537812 617.639589008 285.850537812 617.639589008 291 605 c 1,62,63
 334.367922174 609.336792217 334.367922174 609.336792217 365.324712298 609.336792217 c 0,64,65
 427.219772179 609.336792217 427.219772179 609.336792217 439.5 592 c 0,66,67
 442.492945437 587.774665265 442.492945437 587.774665265 442.492945437 581.950211669 c 0,68,69
 442.492945437 560.6591418 442.492945437 560.6591418 402.5 518 c 0,70,71
 380 494 380 494 351.5 466 c 128,-1,72
 323 438 323 438 299 409 c 0,73,74
 248.278376802 347.71137197 248.278376802 347.71137197 248.278376802 303.343457989 c 0,75,76
 248.278376802 298.051362383 248.278376802 298.051362383 249 293 c 1,77,78
 256 294 256 294 276.5 294 c 0,79,80
 319.25 294 319.25 294 350.625 294 c 128,-1,81
 382 294 382 294 404 292 c 128,-1,82
 426 290 426 290 429 282.5 c 128,-1,83
 432 275 432 275 415 264.5 c 128,-1,84
 398 254 398 254 368.5 242.5 c 128,-1,85
 339 231 339 231 309.5 221 c 128,-1,86
 280 211 280 211 257.5 204 c 128,-1,87
 235 197 235 197 234 195 c 0,88,89
 211 162.416666667 211 162.416666667 211 35 c 0,90,91
 211 -77.2631578947 211 -77.2631578947 164 -102 c 1,92,-1
 135 -73 l 1,0,1
132.5 319.5 m 0,93,94
 126 314 126 314 123 309.5 c 128,-1,95
 120 305 120 305 114.5 294 c 2,96,-1
 107 279 l 1,97,98
 125.765432099 276.037037037 125.765432099 276.037037037 138.934156379 276.037037037 c 0,99,100
 155.395061728 276.037037037 155.395061728 276.037037037 163.111111111 280.666666667 c 0,101,102
 180.730519481 291.238311688 180.730519481 291.238311688 180.730519481 315.127483555 c 0,103,104
 180.730519481 324.531818182 180.730519481 324.531818182 178 336 c 1,105,106
 174.204912281 336.94877193 174.204912281 336.94877193 170.218188314 336.94877193 c 0,107,108
 153.121275917 336.94877193 153.121275917 336.94877193 132.5 319.5 c 0,93,94
276 505 m 1,109,110
 279.018568391 503.902338767 279.018568391 503.902338767 282.630648668 503.902338767 c 0,111,112
 296.463274274 503.902338767 296.463274274 503.902338767 319 520 c 1,113,-1
 276 520 l 1,114,-1
 276 505 l 1,109,110
EndSplineSet
EndChar

StartChar: quotesingle
Encoding: 39 39 10
Width: 264
Flags: HW
LayerCount: 2
Fore
SplineSet
86 509 m 1,0,1
 84 519 84 519 84 557.5 c 128,-1,2
 84 596 84 596 85 602.5 c 128,-1,3
 86 609 86 609 89 619.5 c 128,-1,4
 92 630 92 630 96.5 643.5 c 0,5,6
 123.725 725.175 123.725 725.175 135.3625 735.5875 c 0,7,8
 141.156903766 740.771966527 141.156903766 740.771966527 145.429745628 740.771966527 c 128,-1,9
 149.738493724 740.771966527 149.738493724 740.771966527 152.5 735.5 c 0,10,11
 158 725 158 725 159.5 699.5 c 0,12,13
 160.142857143 688.571428571 160.142857143 688.571428571 160.142857143 676.816326531 c 0,14,15
 160.142857143 661.142857143 160.142857143 661.142857143 159 644 c 0,16,17
 157 614 157 614 151 583 c 128,-1,18
 145 552 145 552 136 530.5 c 0,19,20
 122.590819672 498.466958106 122.590819672 498.466958106 106.02965424 498.466958106 c 0,21,22
 96.5330418944 498.466958106 96.5330418944 498.466958106 86 509 c 1,0,1
EndSplineSet
EndChar

StartChar: parenleft
Encoding: 40 40 11
Width: 360
Flags: HW
LayerCount: 2
Fore
SplineSet
110 32 m 0,0,1
 35.8170277858 123.042738627 35.8170277858 123.042738627 35.8170277858 286.887592953 c 0,2,3
 35.8170277858 302.608666859 35.8170277858 302.608666859 36.5 319 c 0,4,5
 42.973553719 474.365289256 42.973553719 474.365289256 108.5 656 c 0,6,7
 167.845535558 820.501659969 167.845535558 820.501659969 236 902.5 c 0,8,9
 268 941 268 941 293.5 948 c 0,10,11
 297.651162791 949.139534884 297.651162791 949.139534884 301.471065441 949.139534884 c 0,12,13
 321.11627907 949.139534884 321.11627907 949.139534884 332 919 c 1,14,15
 244.843725126 840.346776333 244.843725126 840.346776333 170.5 677 c 0,16,17
 91.615089772 503.675408513 91.615089772 503.675408513 80 343 c 0,18,19
 78.1811148267 317.838755103 78.1811148267 317.838755103 78.1811148267 294.314068292 c 0,20,21
 78.1811148267 144.447435413 78.1811148267 144.447435413 152 61 c 0,22,23
 158 54 158 54 177.5 41 c 128,-1,24
 197 28 197 28 219.5 12.5 c 128,-1,25
 242 -3 242 -3 263.5 -20 c 128,-1,26
 285 -37 285 -37 295.5 -53.5 c 0,27,28
 302.921570368 -65.1624677211 302.921570368 -65.1624677211 302.921570368 -74.9228286404 c 0,29,30
 302.921570368 -96.6928098773 302.921570368 -96.6928098773 266 -109 c 0,31,32
 264 -110 264 -110 258.5 -110 c 128,-1,33
 253 -110 253 -110 247.5 -106 c 128,-1,34
 242 -102 242 -102 222 -82.5 c 128,-1,35
 202 -63 202 -63 179.5 -40.5 c 0,36,37
 120.5 18.5 120.5 18.5 110 32 c 0,0,1
EndSplineSet
EndChar

StartChar: parenright
Encoding: 41 41 12
Width: 310
Flags: HW
LayerCount: 2
Fore
SplineSet
25 -101 m 0,0,1
 23 -99 23 -99 23 -94.5 c 128,-1,2
 23 -90 23 -90 25 -88 c 0,3,4
 156.69822294 32.2462035541 156.69822294 32.2462035541 200.5 216 c 0,5,6
 220.672186714 300.624783287 220.672186714 300.624783287 220.672186714 392.911887005 c 0,7,8
 220.672186714 480.504629088 220.672186714 480.504629088 202.5 575 c 0,9,10
 167.603021978 756.464285714 167.603021978 756.464285714 78 919 c 1,11,12
 74 929 74 929 76.5 942.5 c 128,-1,13
 79 956 79 956 92 961 c 1,14,15
 222.135453475 856.89163722 222.135453475 856.89163722 260 637.5 c 0,16,17
 274.780413703 551.860544132 274.780413703 551.860544132 274.780413703 460.12330824 c 0,18,19
 274.780413703 351.348218559 274.780413703 351.348218559 254 234 c 0,20,21
 218.349921542 32.6819098857 218.349921542 32.6819098857 151 -71.5 c 0,22,23
 119 -121 119 -121 86 -132 c 0,24,25
 79.1509433962 -134.283018868 79.1509433962 -134.283018868 72.5172659309 -134.283018868 c 0,26,27
 47.1886792453 -134.283018868 47.1886792453 -134.283018868 25 -101 c 0,0,1
EndSplineSet
EndChar

StartChar: asterisk
Encoding: 42 42 13
Width: 699
Flags: HW
LayerCount: 2
Fore
SplineSet
218.5 95.5 m 128,-1,1
 208 84 208 84 195 67 c 128,-1,2
 182 50 182 50 169.5 35 c 128,-1,3
 157 20 157 20 149 20.5 c 0,4,5
 139.464726847 21.0959545721 139.464726847 21.0959545721 139.464726847 49.1993892611 c 0,6,7
 139.464726847 75.7883610808 139.464726847 75.7883610808 148 127 c 0,8,9
 148.963806781 132.54188899 148.963806781 132.54188899 148.963806781 137.454502439 c 0,10,11
 148.963806781 166.401616743 148.963806781 166.401616743 115.5 173.5 c 0,12,13
 99 177 99 177 79.5 177.5 c 128,-1,14
 60 178 60 178 45 181.5 c 0,15,16
 18.5052236824 187.682114474 18.5052236824 187.682114474 18.5052236824 208.741047354 c 0,17,18
 18.5052236824 216.389365127 18.5052236824 216.389365127 22 226 c 1,19,20
 50 231 50 231 84.5 233 c 128,-1,21
 119 235 119 235 147.5 243 c 128,-1,22
 176 251 176 251 193.5 269 c 0,23,24
 206.531914894 282.404255319 206.531914894 282.404255319 206.531914894 306.899502037 c 0,25,26
 206.531914894 315.29787234 206.531914894 315.29787234 205 325 c 0,27,28
 202 343 202 343 186 360.5 c 128,-1,29
 170 378 170 378 153.5 395 c 128,-1,30
 137 412 137 412 125.5 429.5 c 0,31,32
 118.351351351 440.378378378 118.351351351 440.378378378 118.351351351 451.836376917 c 0,33,34
 118.351351351 458.810810811 118.351351351 458.810810811 121 466 c 1,35,36
 130.926761772 470.254326474 130.926761772 470.254326474 141.600601492 470.254326474 c 0,37,38
 168.863411452 470.254326474 168.863411452 470.254326474 201 442.5 c 0,39,40
 212 433 212 433 219 424 c 1,41,42
 224 435 224 435 231.5 453.5 c 128,-1,43
 239 472 239 472 248.5 490.5 c 128,-1,44
 258 509 258 509 268.5 522.5 c 128,-1,45
 279 536 279 536 288.5 537 c 0,46,47
 289.194174252 537.073070974 289.194174252 537.073070974 289.873689298 537.073070974 c 0,48,49
 311.066041856 537.073070974 311.066041856 537.073070974 318 466 c 1,50,51
 320 468 320 468 325.5 473 c 128,-1,52
 331 478 331 478 333 481 c 128,-1,53
 335 484 335 484 341 494 c 128,-1,54
 347 504 347 504 354 515.5 c 0,55,56
 372.2 545.4 372.2 545.4 375 551 c 1,57,58
 386.853658537 554.951219512 386.853658537 554.951219512 395.045211184 554.951219512 c 0,59,60
 405.512195122 554.951219512 405.512195122 554.951219512 410 548.5 c 0,61,62
 415.333333333 540.833333333 415.333333333 540.833333333 415.333333333 527.611111111 c 0,63,64
 415.333333333 521 415.333333333 521 414 513 c 0,65,66
 410 489 410 489 398 457.5 c 128,-1,67
 386 426 386 426 374 396 c 128,-1,68
 362 366 362 366 353 342.5 c 128,-1,69
 344 319 344 319 346 310 c 1,70,71
 364.226209963 308.666374881 364.226209963 308.666374881 384.960530313 308.666374881 c 0,72,73
 424.663748807 308.666374881 424.663748807 308.666374881 473.563380282 313.556338028 c 0,74,75
 592.267389416 325.426738942 592.267389416 325.426738942 650.918056788 325.426738942 c 0,76,77
 662.038482226 325.426738942 662.038482226 325.426738942 671 325 c 1,78,79
 672.75 321.25 672.75 321.25 672.75 317.75 c 0,80,81
 672.75 307.25 672.75 307.25 657 299 c 0,82,83
 636 288 636 288 601 279.5 c 128,-1,84
 566 271 566 271 524.5 264 c 128,-1,85
 483 257 483 257 449.5 249.5 c 128,-1,86
 416 242 416 242 397 233 c 128,-1,87
 378 224 378 224 389 212 c 2,88,-1
 516 71 l 1,89,-1
 516 42 l 1,90,-1
 473 42 l 1,91,-1
 304 198 l 1,92,93
 303.27675602 189.321072244 303.27675602 189.321072244 303.27675602 179.994749189 c 0,94,95
 303.27675602 154.568247386 303.27675602 154.568247386 308.65248227 124.329787234 c 0,96,97
 319.046590109 65.8629306371 319.046590109 65.8629306371 319.046590109 32.583894562 c 0,98,99
 319.046590109 22.0238575021 319.046590109 22.0238575021 318 14 c 1,100,-1
 275 14 l 1,101,-1
 233 99 l 2,102,0
 229 107 229 107 218.5 95.5 c 128,-1,1
EndSplineSet
EndChar

StartChar: plus
Encoding: 43 43 14
Width: 431
Flags: HW
LayerCount: 2
Fore
SplineSet
234.5 496 m 0,0,1
 254 496 254 496 254 480 c 2,2,-1
 254 297 l 1,3,4
 264.2 297 264.2 297 301.1 292.5 c 128,-1,5
 338 288 338 288 356 286 c 128,-1,6
 374 284 374 284 379.5 283 c 128,-1,7
 385 282 385 282 396.5 276.5 c 128,-1,8
 408 271 408 271 410 268 c 1,9,10
 397 247 397 247 374.5 240 c 128,-1,11
 352 233 352 233 328.5 230 c 128,-1,12
 305 227 305 227 284.5 222 c 128,-1,13
 264 217 264 217 254 198 c 0,14,15
 243.714285714 176.571428571 243.714285714 176.571428571 243.714285714 154.775510204 c 0,16,17
 243.714285714 151.142857143 243.714285714 151.142857143 244 147.5 c 0,18,19
 246 122 246 122 250.5 96.5 c 0,20,21
 255.516129032 68.0752688172 255.516129032 68.0752688172 255.516129032 44.9219562955 c 0,22,23
 255.516129032 21.2903225806 255.516129032 21.2903225806 241 0 c 1,24,25
 239 1 239 1 233 6.5 c 128,-1,26
 227 12 227 12 220.5 22 c 128,-1,27
 214 32 214 32 206.5 56.5 c 128,-1,28
 199 81 199 81 195 107 c 128,-1,29
 191 133 191 133 189 158.5 c 128,-1,30
 187 184 187 184 184 205 c 1,31,-1
 43 205 l 1,32,-1
 14 240 l 1,33,34
 15 241 15 241 19 243 c 128,-1,35
 23 245 23 245 27.5 247.5 c 0,36,37
 39.2 254 39.2 254 44.6 255 c 128,-1,38
 50 256 50 256 70.5 260 c 128,-1,39
 91 264 91 264 113.5 268.5 c 2,40,-1
 156 277 l 2,41,42
 176 281 176 281 184 283 c 1,43,-1
 212 480 l 2,44,45
 213 487 213 487 220 491.5 c 128,-1,46
 227 496 227 496 234.5 496 c 0,0,1
EndSplineSet
EndChar

StartChar: comma
Encoding: 44 44 15
Width: 226
Flags: HW
LayerCount: 2
Fore
SplineSet
-9 -190 m 0,0,1
 -17.2361416026 -180.116630077 -17.2361416026 -180.116630077 -17.2361416026 -167.936904537 c 0,2,3
 -17.2361416026 -157.472283205 -17.2361416026 -157.472283205 -11.15625 -145.3125 c 0,4,5
 2 -119 2 -119 20 -95.5 c 128,-1,6
 38 -72 38 -72 57 -50 c 128,-1,7
 76 -28 76 -28 86 -9 c 128,-1,8
 96 10 96 10 100 32.5 c 128,-1,9
 104 55 104 55 105.5 77.5 c 128,-1,10
 107 100 107 100 107.5 123 c 128,-1,11
 108 146 108 146 111.5 170.5 c 128,-1,12
 115 195 115 195 122 197.5 c 0,13,14
 123.25 197.946428571 123.25 197.946428571 124.515943878 197.946428571 c 0,15,16
 130.339285714 197.946428571 130.339285714 197.946428571 136.5 188.5 c 0,17,18
 144 177 144 177 151 154 c 128,-1,19
 158 131 158 131 162 104.5 c 0,20,21
 165.333532202 82.415349159 165.333532202 82.415349159 165.333532202 62.749725609 c 0,22,23
 165.333532202 28.1255220313 165.333532202 28.1255220313 155 1 c 0,24,25
 153 -3 153 -3 145 -21.5 c 128,-1,26
 137 -40 137 -40 125 -64.5 c 128,-1,27
 113 -89 113 -89 98 -116 c 128,-1,28
 83 -143 83 -143 66 -163.5 c 0,29,30
 35.6167859466 -200.138581653 35.6167859466 -200.138581653 12.1465118277 -200.138581653 c 0,31,32
 5.27716330514 -200.138581653 5.27716330514 -200.138581653 -1 -197 c 0,33,34
 -4 -196 -4 -196 -9 -190 c 0,0,1
EndSplineSet
EndChar

StartChar: hyphen
Encoding: 45 45 16
Width: 622
Flags: HW
LayerCount: 2
Fore
SplineSet
36 353 m 0,0,1
 28.4179604516 360.582039548 28.4179604516 360.582039548 28.4179604516 368.052077228 c 0,2,3
 28.4179604516 390.271506472 28.4179604516 390.271506472 95.5 411.5 c 0,4,5
 172.224355972 435.779859485 172.224355972 435.779859485 267.112177986 443.889929742 c 0,6,7
 351.584293059 451.109768638 351.584293059 451.109768638 405.237347249 451.109768638 c 0,8,9
 411.852956298 451.109768638 411.852956298 451.109768638 418 451 c 0,10,11
 474 450 474 450 515.5 442.5 c 128,-1,12
 557 435 557 435 578 420 c 0,13,14
 591.363636364 410.454545455 591.363636364 410.454545455 591.363636364 397.26446281 c 0,15,16
 591.363636364 389.727272727 591.363636364 389.727272727 587 381 c 1,17,18
 574 381 574 381 542 379 c 128,-1,19
 510 377 510 377 473.5 375 c 0,20,21
 395.285714286 370.714285714 395.285714286 370.714285714 362.142857143 367.857142857 c 128,-1,22
 329 365 329 365 284 353 c 128,-1,23
 239 341 239 341 192 333 c 0,24,25
 153.402508603 326.43021423 153.402508603 326.43021423 123.23584119 326.43021423 c 0,26,27
 62.5697857698 326.43021423 62.5697857698 326.43021423 36 353 c 0,0,1
EndSplineSet
EndChar

StartChar: period
Encoding: 46 46 17
Width: 183
Flags: HW
LayerCount: 2
Fore
SplineSet
43 14 m 256,0,1
 31.1398622342 31.7902066487 31.1398622342 31.7902066487 31.1398622342 50.3476459291 c 0,2,3
 31.1398622342 66.3872416891 31.1398622342 66.3872416891 40 83 c 0,4,5
 57.4162679426 115.655502392 57.4162679426 115.655502392 90 120 c 0,6,7
 93.8448876354 120.512651685 93.8448876354 120.512651685 97.4517149691 120.512651685 c 0,8,9
 127.471370787 120.512651685 127.471370787 120.512651685 141 85 c 0,10,11
 144.555555556 76.5555555556 144.555555556 76.5555555556 144.555555556 67.8148148148 c 0,12,13
 144.555555556 56.8888888889 144.555555556 56.8888888889 139 45.5 c 0,14,15
 129 25 129 25 112 12 c 128,-1,16
 95 -1 95 -1 75 -2.5 c 0,17,18
 73.4615384615 -2.61538461538 73.4615384615 -2.61538461538 71.9704142012 -2.61538461538 c 0,19,20
 54.0769230769 -2.61538461538 54.0769230769 -2.61538461538 43 14 c 256,0,1
EndSplineSet
EndChar

StartChar: slash
Encoding: 47 47 18
Width: 388
Flags: HW
LayerCount: 2
Fore
SplineSet
29 14 m 0,0,1
 25.7609912428 33.4340525432 25.7609912428 33.4340525432 25.7609912428 56.401335328 c 0,2,3
 25.7609912428 185.437626454 25.7609912428 185.437626454 128 426 c 0,4,5
 194.082978723 581.489361702 194.082978723 581.489361702 247.041489362 684.244680851 c 128,-1,6
 300 787 300 787 325 834 c 1,7,8
 333.357142857 839.785714286 333.357142857 839.785714286 340.267857143 839.785714286 c 0,9,10
 344.107142857 839.785714286 344.107142857 839.785714286 347.5 838 c 0,11,12
 357 833 357 833 362 822 c 0,13,14
 369.814013562 804.809170165 369.814013562 804.809170165 369.814013562 790.326878772 c 0,15,16
 369.814013562 783.349047465 369.814013562 783.349047465 368 777 c 1,17,-1
 353 744 l 2,18,19
 343 722 343 722 330.5 694 c 128,-1,20
 318 666 318 666 304 635.5 c 128,-1,21
 290 605 290 605 277.5 577 c 128,-1,22
 265 549 265 549 255 527 c 128,-1,23
 245 505 245 505 240 494 c 128,-1,24
 235 483 235 483 222.5 452.5 c 128,-1,25
 210 422 210 422 196.5 388 c 0,26,27
 153.3 279.2 153.3 279.2 142.65 236.6 c 128,-1,28
 132 194 132 194 121.5 153.5 c 0,29,30
 88.2298850575 25.1724137931 88.2298850575 25.1724137931 62 5.5 c 0,31,32
 52.0118705485 -1.99109708859 52.0118705485 -1.99109708859 44.7374034199 -1.99109708859 c 0,33,34
 41.9804135949 -1.99109708859 41.9804135949 -1.99109708859 39.6132075472 -0.915094339623 c 0,35,36
 31 3 31 3 29 14 c 0,0,1
EndSplineSet
EndChar

StartChar: zero
Encoding: 48 48 19
Width: 607
Flags: HW
LayerCount: 2
Fore
SplineSet
85 13.5 m 0,0,1
 47 42 47 42 35.5 95.5 c 0,2,3
 29.0487804878 125.512195122 29.0487804878 125.512195122 29.0487804878 159.615407496 c 0,4,5
 29.0487804878 186.304878049 29.0487804878 186.304878049 33 215.5 c 0,6,7
 42 282 42 282 69 355.5 c 128,-1,8
 96 429 96 429 135.5 497.5 c 128,-1,9
 175 566 175 566 224 624 c 128,-1,10
 273 682 273 682 326 717.5 c 0,11,12
 391.691596828 761.500975234 391.691596828 761.500975234 450.131080271 761.500975234 c 0,13,14
 496.331855706 761.500975234 496.331855706 761.500975234 538 734 c 0,15,16
 588.35544044 699.976053757 588.35544044 699.976053757 588.35544044 618.37442245 c 0,17,18
 588.35544044 585.134476013 588.35544044 585.134476013 580 544 c 0,19,20
 553.690899153 414.478272752 553.690899153 414.478272752 462.5 267.5 c 0,21,22
 368.422818792 115.8697197 368.422818792 115.8697197 270 43.5 c 0,23,24
 200.760783283 -7.41118876243 200.760783283 -7.41118876243 147.204933852 -7.41118876243 c 0,25,26
 112.881585017 -7.41118876243 112.881585017 -7.41118876243 85 13.5 c 0,0,1
78 132 m 128,-1,28
 78 87 78 87 98 57.5 c 0,29,30
 116.153846154 30.7230769231 116.153846154 30.7230769231 140.898934911 30.7230769231 c 0,31,32
 143.415384615 30.7230769231 143.415384615 30.7230769231 146 31 c 0,33,34
 174 34 174 34 206.5 60 c 128,-1,35
 239 86 239 86 275 129 c 128,-1,36
 311 172 311 172 345.5 224 c 128,-1,37
 380 276 380 276 411 332 c 128,-1,38
 442 388 442 388 466.5 439 c 0,39,40
 518.919908467 548.118993135 518.919908467 548.118993135 523.459954233 598.559496568 c 0,41,42
 524.669576311 611.998556369 524.669576311 611.998556369 524.669576311 623.702657653 c 0,43,44
 524.669576311 655.927281273 524.669576311 655.927281273 515.5 675 c 0,45,46
 503 701 503 701 478.5 702 c 0,47,48
 477.360465116 702.046511628 477.360465116 702.046511628 476.200378583 702.046511628 c 0,49,50
 452.418604651 702.046511628 452.418604651 702.046511628 420 682.5 c 0,51,52
 386 662 386 662 348 627 c 128,-1,53
 310 592 310 592 271 544.5 c 128,-1,54
 232 497 232 497 197.5 444 c 128,-1,55
 163 391 163 391 135.5 335.5 c 128,-1,56
 108 280 108 280 93 228.5 c 128,-1,27
 78 177 78 177 78 132 c 128,-1,28
EndSplineSet
EndChar

StartChar: one
Encoding: 49 49 20
Width: 346
Flags: HW
LayerCount: 2
Fore
SplineSet
43.5 4 m 0,0,1
 12.4735383602 18.7745055428 12.4735383602 18.7745055428 12.4735383602 53.8159663432 c 0,2,3
 12.4735383602 56.3133829431 12.4735383602 56.3133829431 12.6311360449 58.9137447405 c 0,4,5
 15 98 15 98 26 132.5 c 128,-1,6
 37 167 37 167 51 197 c 128,-1,7
 65 227 65 227 70 238.5 c 128,-1,8
 75 250 75 250 87 279.5 c 128,-1,9
 99 309 99 309 114.5 348 c 128,-1,10
 130 387 130 387 148.5 431.5 c 128,-1,11
 167 476 167 476 182.5 515 c 128,-1,12
 198 554 198 554 210 583 c 128,-1,13
 222 612 222 612 225.5 621 c 128,-1,14
 229 630 229 630 233.5 646.5 c 128,-1,15
 238 663 238 663 244 681.5 c 128,-1,16
 250 700 250 700 258 716.5 c 128,-1,17
 266 733 266 733 275.5 741.5 c 0,18,19
 282.457125138 747.724796176 282.457125138 747.724796176 290.057225546 747.724796176 c 0,20,21
 306.09672988 747.724796176 306.09672988 747.724796176 325 720 c 1,22,23
 329.336956522 715.663043478 329.336956522 715.663043478 250.668478261 504.831521739 c 128,-1,24
 172 294 172 294 148 229.5 c 128,-1,25
 124 165 124 165 104.5 114.5 c 0,26,27
 60.9204545455 1.64015151515 60.9204545455 1.64015151515 57.4602272727 0.320075757576 c 0,28,29
 56.7374887624 0.044351213665 56.7374887624 0.044351213665 55.7076276479 0.044351213665 c 0,30,31
 51.8068624513 0.044351213665 51.8068624513 0.044351213665 43.5 4 c 0,0,1
EndSplineSet
EndChar

StartChar: two
Encoding: 50 50 21
Width: 685
Flags: HW
LayerCount: 2
Fore
SplineSet
43 14 m 1,0,1
 28.7139240506 24.317721519 28.7139240506 24.317721519 28.7139240506 38.567721519 c 128,-1,2
 28.7139240506 52.817721519 28.7139240506 52.817721519 43 71 c 1,3,4
 90 127 90 127 137.5 179 c 128,-1,5
 185 231 185 231 229 285 c 0,6,7
 331.054628225 410.248861912 331.054628225 410.248861912 382 522 c 0,8,9
 395.286690314 551.895053207 395.286690314 551.895053207 395.286690314 569.946371703 c 0,10,11
 395.286690314 591.12354925 395.286690314 591.12354925 377 596 c 0,12,13
 370.376936144 597.766150361 370.376936144 597.766150361 361.766885584 597.766150361 c 0,14,15
 334.845982549 597.766150361 334.845982549 597.766150361 288.5 580.5 c 0,16,17
 263 571 263 571 239.5 561.5 c 128,-1,18
 216 552 216 552 201.5 547 c 128,-1,19
 187 542 187 542 184.5 545 c 128,-1,20
 182 548 182 548 199 565 c 1,21,22
 245.679324895 619.797468354 245.679324895 619.797468354 322 640 c 0,23,24
 352.406160952 648.048689664 352.406160952 648.048689664 376.525651365 648.048689664 c 0,25,26
 414.592640964 648.048689664 414.592640964 648.048689664 437 628 c 0,27,28
 458.977175166 608.336211693 458.977175166 608.336211693 458.977175166 574.536445455 c 0,29,30
 458.977175166 541.514605804 458.977175166 541.514605804 438 495 c 0,31,32
 411 435 411 435 370.5 383 c 128,-1,33
 330 331 330 331 287 281.5 c 128,-1,34
 244 232 244 232 204.5 181 c 128,-1,35
 165 130 165 130 141 71 c 1,36,37
 147.857142857 68.9428571429 147.857142857 68.9428571429 157.300408163 68.9428571429 c 0,38,39
 175.4 68.9428571429 175.4 68.9428571429 203 76.5 c 0,40,41
 245 88 245 88 297.5 106.5 c 128,-1,42
 350 125 350 125 407 145 c 128,-1,43
 464 165 464 165 515.5 176 c 0,44,45
 557.822585128 185.039775464 557.822585128 185.039775464 589.005495688 185.039775464 c 0,46,47
 644.895540063 185.039775464 644.895540063 185.039775464 665 156 c 0,48,49
 667 153 667 153 667 141.5 c 128,-1,50
 667 130 667 130 665 127 c 1,51,52
 653.731808491 129.075719488 653.731808491 129.075719488 639.597826596 129.075719488 c 0,53,54
 578.273372491 129.075719488 578.273372491 129.075719488 463 90 c 0,55,56
 404 70 404 70 342 47 c 128,-1,57
 280 24 280 24 223.5 9 c 0,58,59
 163.274442469 -6.98908607005 163.274442469 -6.98908607005 119.980519206 -6.98908607005 c 0,60,61
 70.377068787 -6.98908607005 70.377068787 -6.98908607005 43 14 c 1,0,1
EndSplineSet
EndChar

StartChar: three
Encoding: 51 51 22
Width: 649
Flags: HW
LayerCount: 2
Fore
SplineSet
50 14 m 1,0,1
 42.2 17.9 42.2 17.9 37.6 25.95 c 128,-1,2
 33 34 33 34 28.5 40 c 128,-1,3
 24 46 24 46 22.5 51.5 c 0,4,5
 21.7054079995 54.413504002 21.7054079995 54.413504002 21.7054079995 56.9244660177 c 0,6,7
 21.7054079995 66.7218226639 21.7054079995 66.7218226639 33.8025210084 70.3907563025 c 0,8,9
 49 75 49 75 65 73 c 128,-1,10
 81 71 81 71 98 66.5 c 0,11,12
 139.277169279 55.573690485 139.277169279 55.573690485 158.341551299 55.573690485 c 0,13,14
 161.517106334 55.573690485 161.517106334 55.573690485 164.07635468 55.8768472906 c 0,15,16
 182 58 182 58 215.5 71.5 c 128,-1,17
 249 85 249 85 289 106 c 128,-1,18
 329 127 329 127 371.5 154 c 128,-1,19
 414 181 414 181 452 210.5 c 128,-1,20
 490 240 490 240 519.5 269.5 c 128,-1,21
 549 299 549 299 562.5 326 c 0,22,23
 571.915086543 344.830173087 571.915086543 344.830173087 571.915086543 360.235761327 c 0,24,25
 571.915086543 392.740846717 571.915086543 392.740846717 530 410 c 1,26,27
 523.809600503 411.076591217 523.809600503 411.076591217 515.814439402 411.076591217 c 0,28,29
 476.845091894 411.076591217 476.845091894 411.076591217 395 385.5 c 0,30,31
 284.411764706 350.941176471 284.411764706 350.941176471 249.705882353 347.470588235 c 0,32,33
 240.76419214 346.576419214 240.76419214 346.576419214 233.064186419 346.576419214 c 0,34,35
 210.877729258 346.576419214 210.877729258 346.576419214 199 354 c 0,36,37
 188.333333333 360.666666667 188.333333333 360.666666667 188.333333333 376.666666667 c 0,38,39
 188.333333333 384.666666667 188.333333333 384.666666667 191 395 c 1,40,41
 208 414 208 414 236 443.5 c 128,-1,42
 264 473 264 473 293 507.5 c 0,43,44
 365.622362869 593.89556962 365.622362869 593.89556962 389 649 c 1,45,46
 388 649 388 649 368.5 643.5 c 128,-1,47
 349 638 349 638 321.5 631.5 c 128,-1,48
 294 625 294 625 263 620 c 128,-1,49
 232 615 232 615 208.5 615 c 128,-1,50
 185 615 185 615 174.5 622.5 c 128,-1,51
 164 630 164 630 177 649 c 1,52,53
 182.106796117 659.213592233 182.106796117 659.213592233 238.553398058 686.606796117 c 128,-1,54
 295 714 295 714 334.5 729.5 c 128,-1,55
 374 745 374 745 408 751.5 c 0,56,57
 425.68 754.88 425.68 754.88 440.3856 754.88 c 0,58,59
 453.96 754.88 453.96 754.88 465 752 c 0,60,61
 489.045346797 745.727300836 489.045346797 745.727300836 489.045346797 717.063148829 c 0,62,63
 489.045346797 655.120600583 489.045346797 655.120600583 375 509 c 1,64,-1
 375 466 l 1,65,66
 406.37254902 468.509803922 406.37254902 468.509803922 433.46366782 468.509803922 c 0,67,68
 492.725490196 468.509803922 492.725490196 468.509803922 531.5 456.5 c 0,69,70
 588 439 588 439 608.5 406.5 c 0,71,72
 621.841269841 385.349206349 621.841269841 385.349206349 621.841269841 359.327790375 c 0,73,74
 621.841269841 345.365079365 621.841269841 345.365079365 618 330 c 0,75,76
 607 286 607 286 572 239.5 c 128,-1,77
 537 193 537 193 481 149 c 128,-1,78
 425 105 425 105 356 72.5 c 0,79,80
 226.404622185 11.4586988553 226.404622185 11.4586988553 101.000515951 11.4586988553 c 0,81,82
 75.4130114469 11.4586988553 75.4130114469 11.4586988553 50 14 c 1,0,1
EndSplineSet
EndChar

StartChar: four
Encoding: 52 52 23
Width: 678
Flags: HW
LayerCount: 2
Fore
SplineSet
338.5 18 m 128,-1,1
 333 22 333 22 329.5 40 c 0,2,3
 328.058823529 47.4117647059 328.058823529 47.4117647059 328.058823529 56.6038062284 c 0,4,5
 328.058823529 69.7352941176 328.058823529 69.7352941176 331 86.5 c 0,6,7
 336 115 336 115 346 143.5 c 128,-1,8
 356 172 356 172 368.5 200.5 c 128,-1,9
 381 229 381 229 391 257 c 0,10,11
 406.021633653 299.06057423 406.021633653 299.06057423 406.021633653 333.891348589 c 0,12,13
 406.021633653 351.913465386 406.021633653 351.913465386 402 368 c 1,14,15
 393.68 369.28 393.68 369.28 384.7968 369.28 c 0,16,17
 365.92 369.28 365.92 369.28 344.5 363.5 c 0,18,19
 313 355 313 355 278.5 342.5 c 128,-1,20
 244 330 244 330 208.5 317.5 c 128,-1,21
 173 305 173 305 141 300.5 c 0,22,23
 128.133377455 298.690631205 128.133377455 298.690631205 116.556361304 298.690631205 c 0,24,25
 61.9131656542 298.690631205 61.9131656542 298.690631205 36 339 c 0,26,27
 22.8390338917 358.741449162 22.8390338917 358.741449162 22.8390338917 386.797532207 c 0,28,29
 22.8390338917 445.77674328 22.8390338917 445.77674328 81 541.5 c 0,30,31
 105 581 105 581 129 620 c 0,32,33
 191.779661017 722.016949153 191.779661017 722.016949153 205 763 c 1,34,35
 218.514394936 766.262095329 218.514394936 766.262095329 228.792366876 766.262095329 c 0,36,37
 257.675858667 766.262095329 257.675858667 766.262095329 261 740.5 c 0,38,39
 261.618269301 735.708412915 261.618269301 735.708412915 261.618269301 730.666130435 c 0,40,41
 261.618269301 706.398365533 261.618269301 706.398365533 247.296954315 676.323604061 c 0,42,43
 230 640 230 640 220 621.5 c 128,-1,44
 210 603 210 603 204.5 592.5 c 128,-1,45
 199 582 199 582 185 556 c 128,-1,46
 171 530 171 530 155.5 501 c 0,47,48
 113.894736842 423.157894737 113.894736842 423.157894737 106 410 c 1,49,-1
 106 381 l 1,50,51
 114.820943042 380.117905696 114.820943042 380.117905696 124.682530905 380.117905696 c 0,52,53
 190.155820856 380.117905696 190.155820856 380.117905696 301.5 419 c 0,54,55
 333 430 333 430 360 438 c 0,56,57
 421 455 421 455 458 490 c 128,-1,58
 495 525 495 525 519 572 c 128,-1,59
 543 619 543 619 560.5 675 c 128,-1,60
 578 731 578 731 601 791 c 1,61,62
 611.740740741 794.703703704 611.740740741 794.703703704 619.600823045 794.703703704 c 0,63,64
 632.962962963 794.703703704 632.962962963 794.703703704 638 784 c 0,65,66
 642.740740741 773.925925926 642.740740741 773.925925926 642.740740741 758.75994513 c 0,67,68
 642.740740741 748.333333333 642.740740741 748.333333333 640.5 735.5 c 0,69,70
 635 704 635 704 621 663.5 c 128,-1,71
 607 623 607 623 592.5 585 c 128,-1,72
 578 547 578 547 567 518 c 128,-1,73
 556 489 556 489 558 480 c 1,74,75
 568.322580645 484.129032258 568.322580645 484.129032258 578.911550468 484.129032258 c 0,76,77
 588.838709677 484.129032258 588.838709677 484.129032258 599 480.5 c 0,78,79
 620 473 620 473 629 452 c 1,80,81
 621 435 621 435 604.5 428.5 c 128,-1,82
 588 422 588 422 569 417.5 c 128,-1,83
 550 413 550 413 531.5 406 c 128,-1,84
 513 399 513 399 502 381 c 0,85,86
 439.553122988 282.526078558 439.553122988 282.526078558 397.5 107 c 0,87,88
 386 59 386 59 375 14 c 1,89,90
 368.8 10.9 368.8 10.9 361.911111111 10.9 c 0,91,92
 358.466666667 10.9 358.466666667 10.9 354.85 11.675 c 0,93,0
 344 14 344 14 338.5 18 c 128,-1,1
EndSplineSet
EndChar

StartChar: five
Encoding: 53 53 24
Width: 678
Flags: HW
LayerCount: 2
Fore
SplineSet
22 71 m 0,0,1
 22 75.7504191715 22 75.7504191715 38.1300169226 75.7504191715 c 0,2,3
 65.0691530692 75.7504191715 65.0691530692 75.7504191715 137 62.5 c 0,4,5
 173.774840153 55.7256873402 173.774840153 55.7256873402 186.744295154 55.7256873402 c 0,6,7
 189.354124041 55.7256873402 189.354124041 55.7256873402 191 56 c 0,8,9
 262 64 262 64 326.5 98 c 128,-1,10
 391 132 391 132 438.5 183.5 c 128,-1,11
 486 235 486 235 511.5 300.5 c 0,12,13
 531.507692308 351.892307692 531.507692308 351.892307692 531.507692308 407.286153846 c 0,14,15
 531.507692308 422.492307692 531.507692308 422.492307692 530 438 c 1,16,17
 503.503688001 490.992623998 503.503688001 490.992623998 441.145946045 490.992623998 c 0,18,19
 392.317257431 490.992623998 392.317257431 490.992623998 321.5 458.5 c 0,20,21
 279 439 279 439 243 420.5 c 128,-1,22
 207 402 207 402 181 389 c 0,23,24
 162.222222222 379.611111111 162.222222222 379.611111111 153.354938272 379.611111111 c 0,25,26
 149.944444444 379.611111111 149.944444444 379.611111111 148 381 c 0,27,28
 119.832382395 400.717332324 119.832382395 400.717332324 119.832382395 430.49795563 c 0,29,30
 119.832382395 449.664764789 119.832382395 449.664764789 131.5 473 c 0,31,32
 146 502 146 502 157 529.5 c 128,-1,33
 168 557 168 557 180.5 584.5 c 0,34,35
 214.666666667 659.666666667 214.666666667 659.666666667 231.333333333 676.333333333 c 128,-1,36
 248 693 248 693 275 702 c 128,-1,37
 302 711 302 711 336 716.5 c 128,-1,38
 370 722 370 722 407 725 c 128,-1,39
 444 728 444 728 480 731 c 0,40,41
 567.290322581 738.274193548 567.290322581 738.274193548 599.14516129 748.637096774 c 0,42,43
 613.58377425 753.334215168 613.58377425 753.334215168 624.045990687 753.334215168 c 0,44,45
 636.665784832 753.334215168 636.665784832 753.334215168 643.5 746.5 c 128,-1,46
 650.293478261 739.706521739 650.293478261 739.706521739 650.293478261 730.697778828 c 0,47,48
 650.293478261 723.130434783 650.293478261 723.130434783 645.5 714 c 0,49,50
 635 694 635 694 600.5 674 c 0,51,52
 562.105643994 651.742402315 562.105643994 651.742402315 462.5 646.5 c 0,53,54
 434 645 434 645 402.5 642.5 c 128,-1,55
 371 640 371 640 343 638.5 c 128,-1,56
 315 637 315 637 304 636 c 1,57,58
 252.581395349 593.930232558 252.581395349 593.930232558 235.5 544 c 0,59,60
 231.476190476 532.238095238 231.476190476 532.238095238 231.476190476 521.62585034 c 0,61,62
 231.476190476 515.095238095 231.476190476 515.095238095 233 509 c 1,63,64
 247.5 506 247.5 506 262 506 c 0,65,-1
 291 509 l 0,66,67
 320 515 320 515 349.5 523.5 c 128,-1,68
 379 532 379 532 409.5 538 c 0,69,70
 423.576923077 540.769230769 423.576923077 540.769230769 438.186390533 540.769230769 c 0,71,72
 455.230769231 540.769230769 455.230769231 540.769230769 473 537 c 0,73,74
 537 523 537 523 568.5 490 c 128,-1,75
 600 457 600 457 605 412.5 c 0,76,77
 606.063829787 403.031914894 606.063829787 403.031914894 606.063829787 393.269578995 c 0,78,79
 606.063829787 357.14893617 606.063829787 357.14893617 591.5 317 c 0,80,81
 573 266 573 266 537 216.5 c 128,-1,82
 501 167 501 167 450.5 123 c 128,-1,83
 400 79 400 79 341.5 49.5 c 0,84,85
 251.676221452 4.20424842441 251.676221452 4.20424842441 167.874576873 4.20424842441 c 0,86,87
 118.387254727 4.20424842441 118.387254727 4.20424842441 71 20 c 0,88,89
 22 36.3333333333 22 36.3333333333 22 71 c 0,0,1
EndSplineSet
EndChar

StartChar: six
Encoding: 54 54 25
Width: 452
Flags: HW
LayerCount: 2
Fore
SplineSet
134 14 m 0,0,1
 122 18 122 18 108 22.5 c 128,-1,2
 94 27 94 27 80.5 33.5 c 0,3,4
 47.6846153846 49.3 47.6846153846 49.3 36 71 c 1,5,6
 32 98 32 98 28 124.5 c 128,-1,7
 24 151 24 151 22.5 177.5 c 0,8,9
 21.9332327021 187.51288893 21.9332327021 187.51288893 21.9332327021 197.126367342 c 0,10,11
 21.9332327021 245.019728296 21.9332327021 245.019728296 36 283 c 0,12,13
 52.046692607 327.128404669 52.046692607 327.128404669 134.5 450 c 0,14,15
 270.253467844 652.299285414 270.253467844 652.299285414 333 664.5 c 0,16,17
 335.8 665.044444444 335.8 665.044444444 338.382222222 665.044444444 c 0,18,19
 352.4 665.044444444 352.4 665.044444444 360 649 c 0,20,21
 363 644 363 644 363 628 c 128,-1,22
 363 612 363 612 360 607 c 1,23,24
 341 589 341 589 311.5 562 c 128,-1,25
 282 535 282 535 250 501.5 c 128,-1,26
 218 468 218 468 187 431 c 128,-1,27
 156 394 156 394 132.5 356 c 0,28,29
 89.5566596327 286.559704938 89.5566596327 286.559704938 89.5566596327 235.377966081 c 0,30,31
 89.5566596327 223.169555965 89.5566596327 223.169555965 92 212 c 1,32,-1
 106 212 l 1,33,34
 261.784822584 294.474317839 261.784822584 294.474317839 345.273886712 294.474317839 c 0,35,36
 362.409710988 294.474317839 362.409710988 294.474317839 376.5 291 c 0,37,38
 413 282 413 282 422.5 253.5 c 0,39,40
 427.0125 239.9625 427.0125 239.9625 427.0125 224.7328125 c 0,41,42
 427.0125 207.9 427.0125 207.9 421.5 189 c 0,43,44
 411 153 411 153 383 115 c 128,-1,45
 355 77 355 77 316 49 c 0,46,47
 254.109980058 4.56613952865 254.109980058 4.56613952865 191.664454684 4.56613952865 c 0,48,49
 162.891197694 4.56613952865 162.891197694 4.56613952865 134 14 c 0,0,1
135.5 70 m 0,50,51
 154.625 58.75 154.625 58.75 177.125 58.75 c 0,52,53
 184.625 58.75 184.625 58.75 192.5 60 c 0,54,55
 224 65 224 65 254 82.5 c 128,-1,56
 284 100 284 100 309.5 125 c 128,-1,57
 335 150 335 150 349.5 174.5 c 0,58,59
 364.514292079 199.868976271 364.514292079 199.868976271 364.514292079 218.545661121 c 0,60,61
 364.514292079 240.895228671 364.514292079 240.895228671 337.790532131 240.895228671 c 0,62,63
 308.474808391 240.895228671 308.474808391 240.895228671 247 214 c 0,64,65
 170.764705882 180.647058824 170.764705882 180.647058824 135 143 c 0,66,67
 112.969581708 119.810086009 112.969581708 119.810086009 112.969581708 101.634187571 c 0,68,69
 112.969581708 83.2531872304 112.969581708 83.2531872304 135.5 70 c 0,50,51
EndSplineSet
EndChar

StartChar: seven
Encoding: 55 55 26
Width: 600
Flags: HW
LayerCount: 2
Fore
SplineSet
156 29 m 0,0,1
 155 31 155 31 155 35.5 c 128,-1,2
 155 40 155 40 158 46 c 128,-1,3
 161 52 161 52 172 72 c 128,-1,4
 183 92 183 92 197 117 c 128,-1,5
 211 142 211 142 226 169.5 c 128,-1,6
 241 197 241 197 255 222 c 128,-1,7
 269 247 269 247 280 267 c 128,-1,8
 291 287 291 287 298.5 299.5 c 128,-1,9
 306 312 306 312 322.5 336.5 c 128,-1,10
 339 361 339 361 358.5 389.5 c 128,-1,11
 378 418 378 418 397.5 449 c 128,-1,12
 417 480 417 480 431.5 509.5 c 0,13,14
 455.798126042 558.9341185 455.798126042 558.9341185 455.798126042 588.902291068 c 0,15,16
 455.798126042 599.071976213 455.798126042 599.071976213 453 607 c 1,17,18
 310.351351351 570.108108108 310.351351351 570.108108108 256.175675676 561.554054054 c 0,19,20
 180.307468695 549.574863478 180.307468695 549.574863478 99.4067552492 549.574863478 c 0,21,22
 71.5027304362 549.574863478 71.5027304362 549.574863478 43 551 c 1,23,24
 29.5525166581 560.168738642 29.5525166581 560.168738642 29.5525166581 569.727097194 c 0,25,26
 29.5525166581 588.603756478 29.5525166581 588.603756478 82 609 c 0,27,28
 187.795918367 650.142857143 187.795918367 650.142857143 396.5 676 c 0,29,30
 491.938096895 687.824188996 491.938096895 687.824188996 540.891399283 687.824188996 c 0,31,32
 553.815779299 687.824188996 553.815779299 687.824188996 563.5 687 c 0,33,34
 581.606557377 685.459016393 581.606557377 685.459016393 581.606557377 680.949744692 c 0,35,36
 581.606557377 679.606557377 581.606557377 679.606557377 580 678 c 1,37,38
 572 661 572 661 553 619 c 128,-1,39
 534 577 534 577 507 521.5 c 128,-1,40
 480 466 480 466 447.5 401.5 c 128,-1,41
 415 337 415 337 381 275 c 128,-1,42
 347 213 347 213 313 158.5 c 128,-1,43
 279 104 279 104 249 68 c 0,44,45
 204.861257033 15.0335084395 204.861257033 15.0335084395 178.450019398 15.0335084395 c 0,46,47
 164.887767357 15.0335084395 164.887767357 15.0335084395 156 29 c 0,0,1
EndSplineSet
EndChar

StartChar: eight
Encoding: 56 56 27
Width: 622
Flags: HW
LayerCount: 2
Fore
SplineSet
58 17 m 0,0,1
 35 28 35 28 26 52 c 0,2,3
 19.25 70 19.25 70 19.25 89.40625 c 0,4,5
 19.25 95.875 19.25 95.875 20 102.5 c 0,6,7
 25.7510917031 153.301310044 25.7510917031 153.301310044 63 198 c 1,8,9
 73 208 73 208 97 234.5 c 128,-1,10
 121 261 121 261 148 290 c 128,-1,11
 175 319 175 319 199 345 c 128,-1,12
 223 371 223 371 233 381 c 1,13,14
 238.761904762 395.666666667 238.761904762 395.666666667 238.761904762 410.058956916 c 0,15,16
 238.761904762 423.142857143 238.761904762 423.142857143 234 436 c 0,17,18
 224 463 224 463 207 489.5 c 128,-1,19
 190 516 190 516 173.5 543.5 c 0,20,21
 155.95334727 572.744421217 155.95334727 572.744421217 155.95334727 603.252568963 c 0,22,23
 155.95334727 668.561101578 155.95334727 668.561101578 261 734 c 0,24,25
 344.127544614 785.291463698 344.127544614 785.291463698 396.126273632 785.291463698 c 0,26,27
 422.59643488 785.291463698 422.59643488 785.291463698 441 772 c 0,28,29
 467.811428571 752.636190476 467.811428571 752.636190476 495.405714286 708.318095238 c 128,-1,30
 523 664 523 664 544 636 c 0,31,32
 547 632 547 632 556 628.5 c 128,-1,33
 565 625 565 625 573 620.5 c 0,34,35
 588.531326686 611.763628739 588.531326686 611.763628739 588.531326686 600.397333439 c 0,36,37
 588.531326686 596.828316715 588.531326686 596.828316715 587 593 c 1,38,39
 417.581395349 483.697674419 417.581395349 483.697674419 332 381 c 1,40,41
 325.631578947 356.105263158 325.631578947 356.105263158 325.631578947 333.724376731 c 0,42,43
 325.631578947 317.447368421 325.631578947 317.447368421 329 302.5 c 0,44,45
 337 267 337 267 349 236.5 c 128,-1,46
 361 206 361 206 370 179 c 0,47,48
 374.5 165.5 374.5 165.5 374.5 152.125 c 128,-1,49
 374.5 138.75 374.5 138.75 370 125.5 c 0,50,51
 350.897740785 69.2544589774 350.897740785 69.2544589774 219 14 c 0,52,53
 179.173135188 -2.39929727561 179.173135188 -2.39929727561 140.559470238 -2.39929727561 c 0,54,55
 98.5621670308 -2.39929727561 98.5621670308 -2.39929727561 58 17 c 0,0,1
77 77 m 1,56,-1
 78 56 l 1,57,58
 112.533333333 49.4666666667 112.533333333 49.4666666667 141.186666667 49.4666666667 c 0,59,60
 173.933333333 49.4666666667 173.933333333 49.4666666667 199 58 c 0,61,62
 246 74 246 74 271.5 105 c 128,-1,63
 297 136 297 136 304.5 175 c 0,64,65
 309.1875 199.375 309.1875 199.375 309.1875 221.2109375 c 0,66,67
 309.1875 234.3125 309.1875 234.3125 307.5 246.5 c 0,68,69
 303 279 303 279 290 298.5 c 0,70,71
 280.781818182 312.327272727 280.781818182 312.327272727 270.055206612 312.327272727 c 0,72,73
 265.654545455 312.327272727 265.654545455 312.327272727 261 310 c 1,74,75
 248 298 248 298 220 273 c 128,-1,76
 192 248 192 248 162 218 c 0,77,78
 86.75 142.75 86.75 142.75 78 99 c 1,79,-1
 77 77 l 1,56,-1
248 480 m 0,80,81
 249.928571429 474.214285714 249.928571429 474.214285714 257.964285714 462.607142857 c 128,-1,82
 266 451 266 451 269.5 445 c 128,-1,83
 273 439 273 439 275 437.5 c 128,-1,84
 277 436 277 436 282.5 436 c 128,-1,85
 288 436 288 436 293 440 c 0,86,87
 326.75 467 326.75 467 354.875 489.5 c 128,-1,88
 383 512 383 512 403 528.5 c 128,-1,89
 423 545 423 545 428.5 549.5 c 128,-1,90
 434 554 434 554 439 558.5 c 128,-1,91
 444 563 444 563 448.5 567.5 c 2,92,-1
 456.5 575.5 l 2,93,94
 460 579 460 579 460 580 c 2,95,-1
 460 692 l 2,96,97
 460 706 460 706 436 712 c 0,98,99
 421.6 715.6 421.6 715.6 403.78 715.6 c 0,100,101
 391.9 715.6 391.9 715.6 378.5 714 c 0,102,103
 345 710 345 710 309.5 695 c 128,-1,104
 274 680 274 680 250.5 652 c 0,105,106
 221.851247552 617.865316232 221.851247552 617.865316232 221.851247552 573.659188349 c 0,107,108
 221.851247552 531.425879815 221.851247552 531.425879815 248 480 c 0,80,81
EndSplineSet
EndChar

StartChar: nine
Encoding: 57 57 28
Width: 487
Flags: HW
LayerCount: 2
Fore
SplineSet
148 14 m 1,0,1
 144.070218379 35.6137989129 144.070218379 35.6137989129 144.070218379 52.4850504901 c 0,2,3
 144.070218379 67.6941097937 144.070218379 67.6941097937 147.263803681 79.0490797546 c 0,4,5
 155.416666667 108.037037037 155.416666667 108.037037037 177 156 c 1,6,-1
 304 410 l 1,7,-1
 304 424 l 1,8,9
 292.342626938 427.709164156 292.342626938 427.709164156 279.380147636 427.709164156 c 0,10,11
 252.70378652 427.709164156 252.70378652 427.709164156 220.5 412 c 0,12,13
 200 402 200 402 179.5 390 c 128,-1,14
 159 378 159 378 138 370.5 c 0,15,16
 119.544543606 363.908765574 119.544543606 363.908765574 102.314296147 363.908765574 c 0,17,18
 74.568649488 363.908765574 74.568649488 363.908765574 50 381 c 0,19,20
 19.3503952869 401.841731205 19.3503952869 401.841731205 19.3503952869 436.238733553 c 0,21,22
 19.3503952869 456.514388942 19.3503952869 456.514388942 30 481.5 c 0,23,24
 57.6481241915 546.366752911 57.6481241915 546.366752911 132 598 c 0,25,26
 212.781740371 654.098430813 212.781740371 654.098430813 295.5 656 c 0,27,28
 298.211896085 656.062342439 298.211896085 656.062342439 300.900263131 656.062342439 c 0,29,30
 394.803706481 656.062342439 394.803706481 656.062342439 460 580 c 1,31,32
 466.5 557.25 466.5 557.25 379 366.5 c 0,33,34
 248.271926144 81.5127989929 248.271926144 81.5127989929 176.5 17.5 c 0,35,36
 166.152542373 8.27118644068 166.152542373 8.27118644068 158.464234415 8.27118644068 c 0,37,38
 152.406779661 8.27118644068 152.406779661 8.27118644068 148 14 c 1,0,1
78 438 m 1,39,40
 95.9755140776 433.627577657 95.9755140776 433.627577657 115.441393314 433.627577657 c 0,41,42
 172.351394724 433.627577657 172.351394724 433.627577657 242 471 c 0,43,44
 326.84964539 516.529078014 326.84964539 516.529078014 375 580 c 1,45,46
 359.867634381 611.525761707 359.867634381 611.525761707 323.673423136 611.525761707 c 0,47,48
 307.849567975 611.525761707 307.849567975 611.525761707 288 605.5 c 0,49,50
 239.172900494 590.67748765 239.172900494 590.67748765 171.5 539 c 0,51,52
 121.669172932 500.947368421 121.669172932 500.947368421 103.107313739 479.291866029 c 128,-1,53
 84.5454545455 457.636363636 84.5454545455 457.636363636 78 438 c 1,39,40
EndSplineSet
EndChar

StartChar: colon
Encoding: 58 58 29
Width: 156
Flags: HW
LayerCount: 2
Fore
SplineSet
60 3.5 m 0,0,1
 44 10 44 10 35 28 c 0,2,3
 30.0909090909 37.8181818182 30.0909090909 37.8181818182 30.0909090909 45.5537190083 c 0,4,5
 30.0909090909 52 30.0909090909 52 33.5 57 c 0,6,7
 41 68 41 68 55 71.5 c 128,-1,8
 69 75 69 75 84 71.5 c 128,-1,9
 99 68 99 68 107.5 51.5 c 0,10,11
 112.316666667 42.15 112.316666667 42.15 112.316666667 33.4422222222 c 0,12,13
 112.316666667 26.7833333333 112.316666667 26.7833333333 109.5 20.5 c 0,14,15
 103 6 103 6 89.5 1.5 c 0,16,17
 83.9772727273 -0.340909090909 83.9772727273 -0.340909090909 78.0361570248 -0.340909090909 c 0,18,19
 69.4545454545 -0.340909090909 69.4545454545 -0.340909090909 60 3.5 c 0,0,1
81 353.5 m 0,20,21
 78.7941176471 353.132352941 78.7941176471 353.132352941 76.5882352941 353.132352941 c 0,22,-1
 51 365.5 l 1,23,24
 34.2352941176 381.705882353 34.2352941176 381.705882353 34.2352941176 399.493079585 c 0,25,26
 34.2352941176 410.852941176 34.2352941176 410.852941176 40 419.5 c 0,27,28
 47 430 47 430 60.5 432.5 c 0,29,30
 63 432.962962963 63 432.962962963 65.6028806584 432.962962963 c 0,31,32
 77.0555555556 432.962962963 77.0555555556 432.962962963 90.5 424 c 0,33,34
 107 413 107 413 109 396.5 c 0,35,36
 109.421052632 393.026315789 109.421052632 393.026315789 109.421052632 389.752077562 c 0,37,38
 109.421052632 377.473684211 109.421052632 377.473684211 103.5 368 c 0,39,40
 96 356 96 356 81 353.5 c 0,20,21
EndSplineSet
EndChar

StartChar: semicolon
Encoding: 59 59 30
Width: 219
Flags: HW
LayerCount: 2
Fore
SplineSet
-20 -206 m 0,0,1
 -22 -204 -22 -204 -22 -199 c 128,-1,2
 -22 -194 -22 -194 -3 -171 c 128,-1,3
 16 -148 16 -148 39.5 -112 c 128,-1,4
 63 -76 63 -76 76 -38.5 c 0,5,6
 93.9013622717 13.1385450145 93.9013622717 13.1385450145 93.9013622717 91.8328082225 c 0,7,8
 93.9013622717 117.479565925 93.9013622717 117.479565925 92 146 c 1,9,10
 95.7201257862 148.480083857 95.7201257862 148.480083857 99.9315889403 148.480083857 c 0,11,12
 112.889937107 148.480083857 112.889937107 148.480083857 130.5 125 c 0,13,14
 158.940787044 87.0789506083 158.940787044 87.0789506083 158.940787044 30.8281652014 c 0,15,16
 158.940787044 -4.06031633205 158.940787044 -4.06031633205 148 -46 c 0,17,18
 136 -92 136 -92 114 -134 c 128,-1,19
 92 -176 92 -176 67 -202 c 128,-1,20
 42 -228 42 -228 18.5 -232 c 0,21,22
 15.7352941176 -232.470588235 15.7352941176 -232.470588235 13.0882352941 -232.470588235 c 0,23,24
 -6.76470588235 -232.470588235 -6.76470588235 -232.470588235 -20 -206 c 0,0,1
59 415 m 0,25,26
 53 422 53 422 50.5 427 c 128,-1,27
 48 432 48 432 48 443.5 c 128,-1,28
 48 455 48 455 50 458 c 1,29,-1
 106 458 l 1,30,-1
 106 401 l 1,31,32
 98.2589672605 396.699426256 98.2589672605 396.699426256 90.5626366467 396.699426256 c 0,33,34
 74.6862060664 396.699426256 74.6862060664 396.699426256 59 415 c 0,25,26
EndSplineSet
EndChar

StartChar: less
Encoding: 60 60 31
Width: 580
Flags: HW
LayerCount: 2
Fore
SplineSet
495 14 m 0,0,1
 394 80 394 80 291.5 148 c 128,-1,2
 189 216 189 216 99 297 c 0,3,4
 79 315 79 315 58.5 333 c 128,-1,5
 38 351 38 351 26 370 c 0,6,7
 15.9637847544 385.890674139 15.9637847544 385.890674139 15.9637847544 401.502686462 c 0,8,9
 15.9637847544 427.126681974 15.9637847544 427.126681974 43 452 c 0,10,11
 54 462 54 462 77 483 c 128,-1,12
 100 504 100 504 129.5 530.5 c 128,-1,13
 159 557 159 557 191 586 c 128,-1,14
 223 615 223 615 252.5 641.5 c 128,-1,15
 282 668 282 668 305 689 c 128,-1,16
 328 710 328 710 339 720 c 1,17,18
 345.392434988 722.130811663 345.392434988 722.130811663 351.444846839 722.130811663 c 0,19,20
 361.803782506 722.130811663 361.803782506 722.130811663 371.166666667 715.888888889 c 0,21,22
 386 706 386 706 389 697.5 c 128,-1,23
 392 689 392 689 382 678 c 2,24,-1
 114 410 l 2,25,26
 107.838177727 403.838177727 107.838177727 403.838177727 107.838177727 395.401702841 c 0,27,28
 107.838177727 363.854281083 107.838177727 363.854281083 194 300.5 c 0,29,30
 211 288 211 288 224.5 279 c 2,31,-1
 241 268 l 1,32,33
 270.255319149 246.723404255 270.255319149 246.723404255 345.627659574 196.861702128 c 128,-1,34
 421 147 421 147 450 127.5 c 0,35,36
 481.52173913 106.304347826 481.52173913 106.304347826 537 71 c 1,37,38
 550 55 550 55 552 39.5 c 0,39,40
 552.5 35.625 552.5 35.625 552.5 32.09375 c 0,41,42
 552.5 21.5 552.5 21.5 548 14 c 0,43,44
 542 4 542 4 528 3 c 0,45,46
 526.923076923 2.92307692308 526.923076923 2.92307692308 525.816568047 2.92307692308 c 0,47,48
 512.538461538 2.92307692308 512.538461538 2.92307692308 495 14 c 0,0,1
EndSplineSet
EndChar

StartChar: equal
Encoding: 61 61 32
Width: 537
Flags: HW
LayerCount: 2
Fore
SplineSet
403 100 m 1,0,-1
 495 99 l 1,1,2
 510.783297508 89.9809728525 510.783297508 89.9809728525 510.783297508 78.7780932196 c 0,3,4
 510.783297508 75.0124193934 510.783297508 75.0124193934 509 71 c 1,5,6
 413.034220532 58.7490494297 413.034220532 58.7490494297 264.517110266 31.8745247148 c 128,-1,7
 116 5 116 5 95 1.5 c 0,8,9
 76.625 -1.5625 76.625 -1.5625 68.5859375 -1.5625 c 0,10,11
 67.4375 -1.5625 67.4375 -1.5625 66.5 -1.5 c 0,12,13
 59 -1 59 -1 53 2 c 0,14,15
 43 7 43 7 29 29 c 0,16,17
 26.4901960784 32.4509803922 26.4901960784 32.4509803922 26.4901960784 35.7543252595 c 0,18,19
 26.4901960784 42.9803921569 26.4901960784 42.9803921569 38.5 49.5 c 0,20,21
 56 59 56 59 86 66.5 c 128,-1,22
 116 74 116 74 154 80 c 128,-1,23
 192 86 192 86 225.5 90 c 0,24,25
 300.875 99 300.875 99 311 99 c 2,26,-1
 403 100 l 1,0,-1
99 310 m 1,27,28
 115.457142857 340.857142857 115.457142857 340.857142857 202 357.5 c 0,29,30
 269.255968642 370.433840123 269.255968642 370.433840123 319.883575261 370.433840123 c 0,31,32
 335.470398589 370.433840123 335.470398589 370.433840123 349.481099656 369.20790378 c 0,33,34
 458.831254585 359.639765224 458.831254585 359.639765224 480 325 c 1,35,36
 470.185614849 313.222737819 470.185614849 313.222737819 403.092807425 304.11136891 c 128,-1,37
 336 295 336 295 289 291.5 c 0,38,39
 247.875 288.4375 247.875 288.4375 211.7265625 288.4375 c 0,40,41
 206.5625 288.4375 206.5625 288.4375 201.5 288.5 c 0,42,43
 107.474663909 289.660806618 107.474663909 289.660806618 99 310 c 1,27,28
EndSplineSet
EndChar

StartChar: greater
Encoding: 62 62 33
Width: 431
Flags: HW
LayerCount: 2
Fore
SplineSet
54 22.5 m 0,0,1
 43.0154892185 34.8575746292 43.0154892185 34.8575746292 43.0154892185 49.9457799156 c 0,2,3
 43.0154892185 63.6155692091 43.0154892185 63.6155692091 52.0318066158 79.5267175573 c 0,4,5
 71 113 71 113 103.5 146.5 c 128,-1,6
 136 180 136 180 176.5 216 c 128,-1,7
 217 252 217 252 250.5 288 c 128,-1,8
 284 324 284 324 304.5 358.5 c 0,9,10
 319.245614035 383.315789474 319.245614035 383.315789474 319.245614035 406.320714066 c 0,11,12
 319.245614035 415.298245614 319.245614035 415.298245614 317 424 c 0,13,14
 315.636363636 428.090909091 315.636363636 428.090909091 261.318181818 471.545454545 c 128,-1,15
 207 515 207 515 170 545.5 c 128,-1,16
 133 576 133 576 102 605 c 0,17,18
 30.0718954248 672.287581699 30.0718954248 672.287581699 35 692 c 1,19,20
 35 700.555555556 35 700.555555556 47.5 710.277777778 c 128,-1,21
 60 720 60 720 63 720 c 1,22,23
 90 699 90 699 131 673 c 128,-1,24
 172 647 172 647 216 616 c 128,-1,25
 260 585 260 585 300 550.5 c 128,-1,26
 340 516 340 516 364 479 c 0,27,28
 389.596288879 439.539054645 389.596288879 439.539054645 389.596288879 402.635972799 c 0,29,30
 389.596288879 362.289227071 389.596288879 362.289227071 359 325 c 0,31,32
 349 312 349 312 330 289.5 c 128,-1,33
 311 267 311 267 288 239.5 c 128,-1,34
 265 212 265 212 240.5 182.5 c 128,-1,35
 216 153 216 153 194.5 127.5 c 0,36,37
 135.375 57.375 135.375 57.375 125.1875 47.1875 c 2,38,-1
 106 28 l 2,39,40
 97 19 97 19 88.5 11 c 128,-1,41
 80 3 80 3 77 0 c 1,42,43
 75 1 75 1 71 5 c 2,44,-1
 62.5 13.5 l 2,45,46
 58 18 58 18 54 22.5 c 0,0,1
EndSplineSet
EndChar

StartChar: question
Encoding: 63 63 34
Width: 685
Flags: HW
LayerCount: 2
Fore
SplineSet
121 10.5 m 0,0,1
 120.069767442 10.2093023256 120.069767442 10.2093023256 119.078691184 10.2093023256 c 0,2,3
 111.546511628 10.2093023256 111.546511628 10.2093023256 100.5 27 c 0,4,5
 88 46 88 46 82.5 60 c 0,6,7
 80.08 66.16 80.08 66.16 80.08 73.8688 c 0,8,9
 80.08 83.68 80.08 83.68 84 96 c 0,10,11
 91 118 91 118 100.5 118 c 128,-1,12
 110 118 110 118 117.5 103 c 128,-1,13
 125 88 125 88 128.5 66 c 0,14,15
 130.95 50.6 130.95 50.6 130.95 38.385 c 0,16,17
 130.95 33.15 130.95 33.15 130.5 28.5 c 0,18,19
 129 13 129 13 121 10.5 c 0,0,1
80 341 m 0,20,21
 78.3144903145 347.260464546 78.3144903145 347.260464546 78.3144903145 354.132508297 c 0,22,23
 78.3144903145 420.389956676 78.3144903145 420.389956676 235 543.5 c 0,24,25
 284.875 582.6875 284.875 582.6875 386.4375 657.84375 c 128,-1,26
 488 733 488 733 527 766.5 c 128,-1,27
 566 800 566 800 589 828 c 0,28,29
 610.591836735 854.285714286 610.591836735 854.285714286 610.591836735 873.961682632 c 0,30,31
 610.591836735 920 610.591836735 920 475 920 c 2,32,-1
 136 920 l 1,33,34
 131.090909091 930.909090909 131.090909091 930.909090909 131.090909091 941.223140496 c 0,35,36
 131.090909091 949.818181818 131.090909091 949.818181818 134.5 958 c 0,37,38
 142 976 142 976 165 976 c 2,39,-1
 518 976 l 2,40,41
 549 976 549 976 586 958.5 c 128,-1,42
 623 941 623 941 649.5 913 c 128,-1,43
 676 885 676 885 682.5 849.5 c 0,44,45
 683.543209877 843.802469136 683.543209877 843.802469136 683.543209877 837.989026063 c 0,46,47
 683.543209877 807.580246914 683.543209877 807.580246914 655 774 c 0,48,49
 621 734 621 734 575 698.5 c 128,-1,50
 529 663 529 663 479.5 631 c 128,-1,51
 430 599 430 599 379 569 c 128,-1,52
 328 539 328 539 281.5 505 c 0,53,54
 174.425287356 426.708812261 174.425287356 426.708812261 123 341 c 1,55,56
 110.33317675 325.166470938 110.33317675 325.166470938 97.9382676399 325.166470938 c 0,57,58
 92.6948032802 325.166470938 92.6948032802 325.166470938 87.5 328 c 0,59,60
 82 331 82 331 80 341 c 0,20,21
EndSplineSet
EndChar

StartChar: at
Encoding: 64 64 35
Width: 834
Flags: HW
LayerCount: 2
Fore
SplineSet
396 424 m 1,0,1
 403.5 409 403.5 409 417.75 409 c 128,-1,2
 432 409 432 409 453 424 c 1,3,4
 586.244085401 511.819965378 586.244085401 511.819965378 606 636 c 0,5,6
 609.769230769 659.692307692 609.769230769 659.692307692 609.769230769 689.473372781 c 0,7,8
 609.769230769 715 609.769230769 715 607 745 c 0,9,10
 601 810 601 810 569.5 841 c 0,11,12
 540.779411765 869.264705882 540.779411765 869.264705882 500.420415225 869.264705882 c 0,13,14
 496.514705882 869.264705882 496.514705882 869.264705882 492.5 869 c 0,15,16
 447 866 447 866 392.5 832.5 c 128,-1,17
 338 799 338 799 286 745 c 128,-1,18
 234 691 234 691 189 621 c 128,-1,19
 144 551 144 551 117 474.5 c 0,20,21
 85.845395121 386.228619509 85.845395121 386.228619509 85.845395121 308.435733007 c 0,22,23
 85.845395121 234.483127304 85.845395121 234.483127304 114 170 c 1,24,25
 161.979381443 55.587628866 161.979381443 55.587628866 257.5 49 c 0,26,27
 262.935666042 48.6251264799 262.935666042 48.6251264799 268.564890336 48.6251264799 c 0,28,29
 373.745166953 48.6251264799 373.745166953 48.6251264799 546.5 179.5 c 0,30,31
 596 217 596 217 640.5 253.5 c 0,32,33
 750.276490066 343.541390728 750.276490066 343.541390728 792 368 c 1,34,35
 793.408920489 358.741379641 793.408920489 358.741379641 793.408920489 349.379999397 c 0,36,37
 793.408920489 270.351671621 793.408920489 270.351671621 693 184 c 0,38,39
 588.330160619 93.9839381321 588.330160619 93.9839381321 446 43 c 0,40,41
 343.48077397 6.27669515326 343.48077397 6.27669515326 272.623477256 6.27669515326 c 0,42,43
 241.20512473 6.27669515326 241.20512473 6.27669515326 216.01171024 13.4967320261 c 0,44,45
 134 37 134 37 91 87 c 128,-1,46
 48 137 48 137 33.5 203.5 c 0,47,48
 25.09 242.07 25.09 242.07 25.09 284.6768 c 0,49,50
 25.09 315.53 25.09 315.53 29.5 348.5 c 0,51,52
 40 427 40 427 69 506 c 128,-1,53
 98 585 98 585 142 659.5 c 128,-1,54
 186 734 186 734 237.5 793 c 128,-1,55
 289 852 289 852 344.5 890.5 c 128,-1,56
 400 929 400 929 453.5 936 c 0,57,58
 463.621621622 937.324324324 463.621621622 937.324324324 473.528487947 937.324324324 c 0,59,60
 515.986486486 937.324324324 515.986486486 937.324324324 554.5 913 c 0,61,62
 602 883 602 883 636 805 c 0,63,64
 672 721.75 672 721.75 672 647.5 c 0,65,66
 672 560.384615385 672 560.384615385 622 495 c 0,67,68
 572.233807267 429.518167457 572.233807267 429.518167457 534.116903633 401.259083728 c 128,-1,69
 496 373 496 373 463.5 360.5 c 0,70,71
 438.109375 350.734375 438.109375 350.734375 417.6015625 350.734375 c 0,72,73
 411.859375 350.734375 411.859375 350.734375 406.5 351.5 c 0,74,75
 389.35 353.95 389.35 353.95 373.425 353.95 c 0,76,77
 366.6 353.95 366.6 353.95 360 353.5 c 0,78,79
 338 352 338 352 314.5 350 c 128,-1,80
 291 348 291 348 270.5 348 c 128,-1,81
 250 348 250 348 241 353 c 0,82,83
 181.629927365 382.685036318 181.629927365 382.685036318 181.629927365 435.156975779 c 0,84,85
 181.629927365 444.46961041 181.629927365 444.46961041 183.5 454.5 c 0,86,87
 194.105611847 511.384645362 194.105611847 511.384645362 254.5 569.5 c 0,88,89
 312.72972973 625.532381438 312.72972973 625.532381438 367.5 640 c 0,90,91
 382.588663719 643.985684756 382.588663719 643.985684756 394.525326044 643.985684756 c 0,92,93
 430.887368316 643.985684756 430.887368316 643.985684756 438 607 c 0,94,95
 440.302740507 594.910612341 440.302740507 594.910612341 440.302740507 582.225437622 c 0,96,97
 440.302740507 557.302142801 440.302740507 557.302142801 431.413533835 530.078947368 c 0,98,99
 418 489 418 489 409 466 c 128,-1,100
 400 443 400 443 396 424 c 1,0,1
253 445 m 0,101,102
 253 429 253 429 255 424 c 1,103,104
 265.115622864 418.099219996 265.115622864 418.099219996 274.594494279 418.099219996 c 0,105,106
 302.570568726 418.099219996 302.570568726 418.099219996 325 469.5 c 0,107,108
 343.233766234 511.285714286 343.233766234 511.285714286 353 565 c 1,109,110
 345.399825674 569.47069078 345.399825674 569.47069078 337.398219359 569.47069078 c 0,111,112
 315.019152731 569.47069078 315.019152731 569.47069078 289.5 534.5 c 0,113,114
 253 484.481481481 253 484.481481481 253 445 c 0,101,102
EndSplineSet
EndChar

StartChar: A
Encoding: 65 65 36
Width: 1059
Flags: HW
LayerCount: 2
Fore
SplineSet
799.5 306 m 1,0,-1
 777 305 l 1,1,2
 770 303 770 303 753.5 299.5 c 128,-1,3
 737 296 737 296 715 290.5 c 128,-1,4
 693 285 693 285 668.5 279 c 128,-1,5
 644 273 644 273 621 267 c 128,-1,6
 598 261 598 261 579.5 256.5 c 128,-1,7
 561 252 561 252 551 249 c 0,8,9
 520 241 520 241 485.5 209.5 c 128,-1,10
 451 178 451 178 413 133.5 c 128,-1,11
 375 89 375 89 334.5 36.5 c 128,-1,12
 294 -16 294 -16 251.5 -66 c 128,-1,13
 209 -116 209 -116 165 -159 c 128,-1,14
 121 -202 121 -202 77 -227.5 c 0,15,16
 26.9860024378 -256.485384951 26.9860024378 -256.485384951 -18.0148187655 -256.485384951 c 0,17,18
 -60.2113257625 -256.485384951 -60.2113257625 -256.485384951 -98 -231 c 0,19,20
 -112.782608696 -219.913043478 -112.782608696 -219.913043478 -120.391304348 -205.456521739 c 0,21,22
 -126.904551838 -193.081351508 -126.904551838 -193.081351508 -126.904551838 -185.734491455 c 0,23,24
 -126.904551838 -175 -126.904551838 -175 -113 -175 c 1,25,26
 -91.6273625077 -203.853060615 -91.6273625077 -203.853060615 -53.8477627491 -203.853060615 c 0,27,28
 -26.2890523618 -203.853060615 -26.2890523618 -203.853060615 10 -188.5 c 0,29,30
 79.6810176125 -159.019569472 79.6810176125 -159.019569472 175 -73 c 0,31,32
 255.108478803 -0.706982543641 255.108478803 -0.706982543641 319.5 79.5 c 0,33,34
 382 157.350877193 382 157.350877193 382 178 c 0,35,36
 382 185 382 185 347.5 207.5 c 128,-1,37
 313 230 313 230 311 234 c 1,38,39
 317.230215827 252.690647482 317.230215827 252.690647482 380 266.5 c 0,40,41
 451.887159533 282.315175097 451.887159533 282.315175097 466 291 c 1,42,43
 559.789473684 427.421052632 559.789473684 427.421052632 602.894736842 497.210526316 c 128,-1,44
 646 567 646 567 675.5 615.5 c 128,-1,45
 705 664 705 664 735.5 715.5 c 128,-1,46
 766 767 766 767 799 823.5 c 128,-1,47
 832 880 832 880 872 946 c 0,48,49
 883.921553054 966.117620779 883.921553054 966.117620779 892.988381432 966.117620779 c 0,50,51
 906.338898081 966.117620779 906.338898081 966.117620779 913.5 922.5 c 0,52,53
 920.465939529 880.071095597 920.465939529 880.071095597 920.465939529 792.518271455 c 0,54,55
 920.465939529 714.962750263 920.465939529 714.962750263 915 602 c 0,56,57
 912 540 912 540 909.5 487.5 c 128,-1,58
 907 435 907 435 905 397 c 0,59,60
 904.111111111 380.111111111 904.111111111 380.111111111 904.111111111 363.320987654 c 0,61,62
 904.111111111 342.333333333 904.111111111 342.333333333 905.5 321.5 c 0,63,64
 908 284 908 284 910 237 c 128,-1,65
 912 190 912 190 922.5 150.5 c 128,-1,66
 933 111 933 111 957 74 c 128,-1,67
 981 37 981 37 1031 -6 c 1,68,69
 1014.03720792 -11.3784462686 1014.03720792 -11.3784462686 998.840347463 -11.3784462686 c 0,70,71
 924.594611567 -11.3784462686 924.594611567 -11.3784462686 892.5 117 c 0,72,73
 863.4375 233.25 863.4375 233.25 851.21875 265.125 c 128,-1,74
 839 297 839 297 819 305 c 1,75,-1
 799.5 306 l 1,0,-1
580 319 m 1,76,77
 583 318 583 318 593.5 318 c 128,-1,78
 604 318 604 318 616.5 320 c 128,-1,79
 629 322 629 322 663 327 c 128,-1,80
 697 332 697 332 731.5 339 c 0,81,82
 813.672727273 355.672727273 813.672727273 355.672727273 834 376 c 1,83,-1
 837.5 402 l 2,84,85
 873.87254902 672.196078431 873.87254902 672.196078431 880 807 c 1,86,87
 878.206896552 807.827586207 878.206896552 807.827586207 876.223543401 807.827586207 c 0,88,89
 863.827586207 807.827586207 863.827586207 807.827586207 844 775.5 c 0,90,91
 821 738 821 738 785.5 671.5 c 128,-1,92
 750 605 750 605 699.5 516.5 c 128,-1,93
 649 428 649 428 580 334 c 1,94,-1
 580 319 l 1,76,77
EndSplineSet
EndChar

StartChar: B
Encoding: 66 66 37
Width: 897
Flags: HW
LayerCount: 2
Fore
SplineSet
91.5 4.5 m 0,0,1
 55 25 55 25 40 45 c 128,-1,2
 25 65 25 65 25 87.5 c 128,-1,3
 25 110 25 110 36.5 137.5 c 128,-1,4
 48 165 48 165 57 186.5 c 128,-1,5
 66 208 66 208 77 231.5 c 128,-1,6
 88 255 88 255 103 286 c 128,-1,7
 118 317 118 317 134 352 c 128,-1,8
 150 387 150 387 165 418 c 128,-1,9
 180 449 180 449 190.5 472 c 128,-1,10
 201 495 201 495 211 517 c 0,11,12
 219.333333333 535.333333333 219.333333333 535.333333333 219.333333333 556.791666667 c 0,13,14
 219.333333333 561.083333333 219.333333333 561.083333333 219 565.5 c 0,15,16
 217 592 217 592 213 615 c 0,17,18
 209.8 633.4 209.8 633.4 209.8 651.8 c 0,19,20
 209.8 656.4 209.8 656.4 210 661 c 0,21,22
 211.273722628 690.295620438 211.273722628 690.295620438 248.5 730.5 c 0,23,24
 261 744 261 744 275.5 759.5 c 128,-1,25
 290 775 290 775 302.5 788.5 c 128,-1,26
 315 802 315 802 320 807.5 c 128,-1,27
 325 813 325 813 354 830 c 128,-1,28
 383 847 383 847 425.5 868 c 128,-1,29
 468 889 468 889 519.5 910.5 c 128,-1,30
 571 932 571 932 622.5 948.5 c 128,-1,31
 674 965 674 965 721.5 974.5 c 0,32,33
 754.925925926 981.185185185 754.925925926 981.185185185 781.419067215 981.185185185 c 0,34,35
 792.574074074 981.185185185 792.574074074 981.185185185 802.5 980 c 0,36,37
 860.425472739 973.083525643 860.425472739 973.083525643 860.425472739 924.831906443 c 0,38,39
 860.425472739 911.494943845 860.425472739 911.494943845 856 895 c 1,40,41
 824.240506329 785.063291139 824.240506329 785.063291139 707.5 685 c 0,42,43
 676 658 676 658 647.5 635.5 c 128,-1,44
 619 613 619 613 595 593 c 128,-1,45
 571 573 571 573 558 555 c 1,46,47
 783.122574055 547.495914198 783.122574055 547.495914198 839 475.5 c 0,48,49
 857.567049838 451.577070401 857.567049838 451.577070401 857.567049838 422.179648381 c 0,50,51
 857.567049838 374.147243545 857.567049838 374.147243545 808 311.5 c 0,52,53
 735.813822285 220.264692055 735.813822285 220.264692055 590.5 132 c 0,54,55
 448.795454545 45.9276094276 448.795454545 45.9276094276 310.5 7 c 0,56,57
 233.785853021 -14.5936117422 233.785853021 -14.5936117422 177.975874132 -14.5936117422 c 0,58,59
 125.495942858 -14.5936117422 125.495942858 -14.5936117422 91.5 4.5 c 0,0,1
191 306 m 1,60,61
 138.035294118 244.207843137 138.035294118 244.207843137 116.5 175.5 c 0,62,63
 106.561933168 143.792834394 106.561933168 143.792834394 106.561933168 119.313055707 c 0,64,65
 106.561933168 85.5202420793 106.561933168 85.5202420793 125.5 65.5 c 0,66,67
 146.718627683 43.068879306 146.718627683 43.068879306 190.96325489 43.068879306 c 0,68,69
 225.831338727 43.068879306 225.831338727 43.068879306 275 57 c 1,70,71
 520.351223525 112.342381246 520.351223525 112.342381246 668 230 c 0,72,73
 732 281 732 281 763 331 c 0,74,75
 792.121212121 377.96969697 792.121212121 377.96969697 792.121212121 414.349862259 c 0,76,77
 792.121212121 455.721033868 792.121212121 455.721033868 756 477.5 c 0,78,79
 731.965517241 491.99137931 731.965517241 491.99137931 692.440249703 491.99137931 c 0,80,81
 676.051724138 491.99137931 676.051724138 491.99137931 657 489.5 c 0,82,83
 592 481 592 481 496 438 c 128,-1,84
 400 395 400 395 275 306 c 1,85,86
 262.302843931 296.023663088 262.302843931 296.023663088 248.316278706 296.023663088 c 0,87,88
 238.947415359 296.023663088 238.947415359 296.023663088 229 300.5 c 128,-1,89
 219 305 219 305 210 308.5 c 128,-1,90
 201 312 201 312 191 306 c 1,60,61
219 411 m 2,91,-1
 218 384.5 l 2,92,93
 218 376 218 376 218.5 368.5 c 128,-1,94
 219 361 219 361 219 358 c 1,95,96
 237.846153846 361.769230769 237.846153846 361.769230769 308.923076923 415.884615385 c 128,-1,97
 380 470 380 470 432.5 513.5 c 128,-1,98
 485 557 485 557 538 603.5 c 128,-1,99
 591 650 591 650 639 697 c 128,-1,100
 687 744 687 744 722.5 785 c 0,101,102
 788.36244816 861.066489425 788.36244816 861.066489425 788.36244816 895.464988452 c 0,103,104
 788.36244816 901.979797659 788.36244816 901.979797659 786 907 c 1,105,106
 766.265270209 909.870506151 766.265270209 909.870506151 745.44631019 909.870506151 c 0,107,108
 658.23597661 909.870506151 658.23597661 909.870506151 552 859.5 c 0,109,110
 440.754098361 806.754098361 440.754098361 806.754098361 360 726 c 1,111,112
 355 715 355 715 345.5 692.5 c 128,-1,113
 336 670 336 670 323.5 641.5 c 128,-1,114
 311 613 311 613 297 581.5 c 128,-1,115
 283 550 283 550 270.5 521.5 c 0,116,117
 234.865671642 440.253731343 234.865671642 440.253731343 227.432835821 426.626865672 c 128,-1,118
 220 413 220 413 219 411 c 2,91,-1
EndSplineSet
EndChar

StartChar: C
Encoding: 67 67 38
Width: 791
Flags: HW
LayerCount: 2
Fore
SplineSet
636 946 m 0,0,1
 715.543461246 946 715.543461246 946 715.543461246 815.186945359 c 0,2,3
 715.543461246 812.129209737 715.543461246 812.129209737 715.5 809 c 0,4,5
 714.486634681 736.037697053 714.486634681 736.037697053 690.5 675.5 c 0,6,7
 680 649 680 649 668 637 c 128,-1,8
 656 625 656 625 645 636 c 1,9,10
 644.751356005 638.486439948 644.751356005 638.486439948 644.751356005 641.577995678 c 0,11,12
 644.751356005 659.029014206 644.751356005 659.029014206 652.673913043 695.760869565 c 0,13,14
 662 739 662 739 667.5 766.5 c 128,-1,15
 673 794 673 794 675 817.5 c 0,16,17
 675.810837183 827.027336897 675.810837183 827.027336897 675.810837183 835.020378353 c 0,18,19
 675.810837183 871.415226223 675.810837183 871.415226223 659 876 c 0,20,21
 647.821613112 878.794596722 647.821613112 878.794596722 635.417420799 878.794596722 c 0,22,23
 572.985172594 878.794596722 572.985172594 878.794596722 479.5 808 c 0,24,25
 379.674657534 732.404109589 379.674657534 732.404109589 272.5 596 c 0,26,27
 167.921428571 462.9 167.921428571 462.9 108.5 336 c 0,28,29
 54.738895162 221.18814899 54.738895162 221.18814899 54.738895162 152.231079766 c 0,30,31
 54.738895162 91.0925309976 54.738895162 91.0925309976 97 66 c 0,32,33
 119.518518519 52.6296296296 119.518518519 52.6296296296 153.179012346 52.6296296296 c 0,34,35
 167.351851852 52.6296296296 167.351851852 52.6296296296 183.5 55 c 0,36,37
 238 63 238 63 280.5 84 c 128,-1,38
 323 105 323 105 363 134 c 128,-1,39
 403 163 403 163 440.5 197 c 128,-1,40
 478 231 478 231 515.5 263.5 c 0,41,42
 604.043165468 340.237410072 604.043165468 340.237410072 671 368 c 1,43,44
 678.652173913 370.782608696 678.652173913 370.782608696 685.336483932 370.782608696 c 0,45,46
 697.869565217 370.782608696 697.869565217 370.782608696 707 361 c 0,47,48
 716.333333333 351 716.333333333 351 716.333333333 338.333333333 c 0,49,50
 716.333333333 332 716.333333333 332 714 325 c 256,51,52
 699.773279352 282.319838057 699.773279352 282.319838057 578 195.5 c 0,53,54
 455.931263858 108.469512195 455.931263858 108.469512195 332 53.5 c 0,55,56
 229.723409442 8.13538322012 229.723409442 8.13538322012 170.540704798 8.13538322012 c 0,57,58
 148.298124709 8.13538322012 148.298124709 8.13538322012 132.142447419 14.5430210325 c 0,59,60
 73 38 73 38 42.5 75.5 c 128,-1,61
 12 113 12 113 6 160 c 0,62,63
 4.28571428571 173.428571429 4.28571428571 173.428571429 4.28571428571 187.428571429 c 0,64,65
 4.28571428571 222.428571429 4.28571428571 222.428571429 15 261 c 0,66,67
 30 315 30 315 59.5 372.5 c 128,-1,68
 89 430 89 430 130.5 488.5 c 128,-1,69
 172 547 172 547 219 602.5 c 128,-1,70
 266 658 266 658 315.5 708.5 c 128,-1,71
 365 759 365 759 411 800.5 c 0,72,73
 572.277108434 946 572.277108434 946 636 946 c 0,0,1
EndSplineSet
EndChar

StartChar: D
Encoding: 68 68 39
Width: 1029
Flags: HW
LayerCount: 2
Fore
SplineSet
28.5 14.5 m 0,0,1
 25.6621984253 22.5768198664 25.6621984253 22.5768198664 25.6621984253 29.9401906677 c 0,2,3
 25.6621984253 54.4093991663 25.6621984253 54.4093991663 57 71 c 1,4,5
 135 110 135 110 209 136.5 c 128,-1,6
 283 163 283 163 355 190 c 128,-1,7
 427 217 427 217 498.5 250.5 c 128,-1,8
 570 284 570 284 643 336 c 1,9,10
 888.061462342 478.173062122 888.061462342 478.173062122 978 606.5 c 0,11,12
 1026.30878698 675.42839118 1026.30878698 675.42839118 1026.30878698 733.300472443 c 0,13,14
 1026.30878698 768.438162243 1026.30878698 768.438162243 1008.5 799.5 c 0,15,16
 966.282816069 873.134623136 966.282816069 873.134623136 844.5 899 c 0,17,18
 795.193896847 909.472092705 795.193896847 909.472092705 743.687168509 909.472092705 c 0,19,20
 670.797141685 909.472092705 670.797141685 909.472092705 593.5 888.5 c 0,21,22
 451.695499708 850.025910773 451.695499708 850.025910773 366 751 c 1,23,24
 362 743 362 743 359 732.5 c 128,-1,25
 356 722 356 722 354 715.5 c 128,-1,26
 352 709 352 709 339.5 678.5 c 128,-1,27
 327 648 327 648 304.5 600 c 128,-1,28
 282 552 282 552 260.5 510 c 128,-1,29
 239 468 239 468 219.5 429 c 128,-1,30
 200 390 200 390 182 347.5 c 0,31,32
 142.033898305 253.13559322 142.033898305 253.13559322 114 141 c 1,33,34
 104.21245939 137.885782533 104.21245939 137.885782533 96.6457766424 137.885782533 c 0,35,36
 72.7285676371 137.885782533 72.7285676371 137.885782533 71 169 c 0,37,38
 70.8443191486 171.802255325 70.8443191486 171.802255325 70.8443191486 174.782733464 c 0,39,40
 70.8443191486 217.949320567 70.8443191486 217.949320567 103.5 298.5 c 0,41,42
 111 317 111 317 117.5 335 c 128,-1,43
 124 353 124 353 145.5 399.5 c 128,-1,44
 167 446 167 446 190.5 495.5 c 0,45,46
 249.335766423 619.430656934 249.335766423 619.430656934 267 666 c 1,47,48
 260.960000277 685.767271822 260.960000277 685.767271822 260.960000277 704.747999636 c 0,49,50
 260.960000277 769.151836955 260.960000277 769.151836955 330.5 824.5 c 0,51,52
 355 844 355 844 380 863 c 0,53,54
 525.900915708 969.857008687 525.900915708 969.857008687 702 976 c 0,55,56
 712.179113076 976.35508534 712.179113076 976.35508534 722.238647312 976.35508534 c 0,57,58
 894.690677184 976.35508534 894.690677184 976.35508534 1032 872 c 1,59,60
 1106.14505306 810.212455787 1106.14505306 810.212455787 1106.14505306 730.703021693 c 0,61,62
 1106.14505306 689.259010721 1106.14505306 689.259010721 1086 643 c 0,63,64
 1035.60629671 527.281125775 1035.60629671 527.281125775 864.5 391.5 c 0,65,66
 722.400921035 278.737505079 722.400921035 278.737505079 515.5 169 c 0,67,68
 338.47195434 75.106671915 338.47195434 75.106671915 187 26.5 c 0,69,70
 103.165864769 -0.401998618985 103.165864769 -0.401998618985 63.3612110191 -0.401998618985 c 0,71,72
 33.7358373526 -0.401998618985 33.7358373526 -0.401998618985 28.5 14.5 c 0,0,1
EndSplineSet
EndChar

StartChar: E
Encoding: 69 69 40
Width: 932
Flags: HW
LayerCount: 2
Fore
SplineSet
22 29 m 1,0,1
 19.2777777778 31.3333333333 19.2777777778 31.3333333333 19.2777777778 33.9691358025 c 0,2,3
 19.2777777778 38.1111111111 19.2777777778 38.1111111111 26 43 c 1,4,5
 52.6748466258 143.030674847 52.6748466258 143.030674847 90.8374233129 239.015337423 c 128,-1,6
 129 335 129 335 148 381 c 0,7,8
 154 393 154 393 145.5 405 c 128,-1,9
 137 417 137 417 127 429 c 128,-1,10
 117 441 117 441 112 453.5 c 128,-1,11
 107 466 107 466 121 480 c 0,12,13
 123.8 482.8 123.8 482.8 140.9 486.4 c 0,14,15
 173.545454545 493.272727273 173.545454545 493.272727273 177 495 c 256,16,17
 181 497 181 497 188.5 504.5 c 2,18,-1
 200 516 l 2,19,20
 204 520 204 520 214 538 c 128,-1,21
 224 556 224 556 242.5 582.5 c 128,-1,22
 261 609 261 609 276.5 635 c 0,23,24
 314.214574899 698.263157895 314.214574899 698.263157895 328 758 c 0,25,26
 332 773 332 773 321 777 c 128,-1,27
 310 781 310 781 296.5 785 c 128,-1,28
 283 789 283 789 273.5 797 c 0,29,30
 268.342857143 801.342857143 268.342857143 801.342857143 268.342857143 810.106122449 c 0,31,32
 268.342857143 817.485714286 268.342857143 817.485714286 272 828 c 0,33,34
 281.894859813 855.705607477 281.894859813 855.705607477 429.5 889 c 0,35,36
 658.684337933 940.695715323 658.684337933 940.695715323 900.5 945.5 c 0,37,38
 914.717197911 945.782460886 914.717197911 945.782460886 928.005802427 945.782460886 c 0,39,40
 1064.4579918 945.782460886 1064.4579918 945.782460886 1103 916 c 0,41,42
 1113.75555556 907.688888889 1113.75555556 907.688888889 1113.75555556 896.50962963 c 0,43,44
 1113.75555556 884.822222222 1113.75555556 884.822222222 1102 870 c 1,45,46
 1096.71314273 868.558129835 1096.71314273 868.558129835 1090.18663723 868.558129835 c 0,47,48
 1079.29239345 868.558129835 1079.29239345 868.558129835 1064.94407895 872.575657895 c 0,49,50
 1023.72688479 884.11647226 1023.72688479 884.11647226 1006.26805301 884.11647226 c 0,51,52
 1004.51413938 884.11647226 1004.51413938 884.11647226 1003 884 c 0,53,54
 953 879.833333333 953 879.833333333 904.388888889 879.833333333 c 0,55,56
 894.666666667 879.833333333 894.666666667 879.833333333 885 880 c 0,57,58
 827 881 827 881 770 881 c 0,59,60
 630.625 881 630.625 881 540 856 c 0,61,62
 500 845 500 845 469 816.5 c 128,-1,63
 438 788 438 788 409.5 745 c 128,-1,64
 381 702 381 702 352.5 645.5 c 128,-1,65
 324 589 324 589 290 522 c 1,66,67
 293.5 521.25 293.5 521.25 298.5 521.25 c 0,68,69
 313.5 521.25 313.5 521.25 342 528 c 0,70,71
 380 537 380 537 429.5 549.5 c 128,-1,72
 479 562 479 562 533.5 575.5 c 128,-1,73
 588 589 588 589 636.5 594.5 c 0,74,75
 662.544591035 597.453510324 662.544591035 597.453510324 683.687625682 597.453510324 c 0,76,77
 753.773244838 597.453510324 753.773244838 597.453510324 770 565 c 0,78,79
 771 563 771 563 771 558 c 128,-1,80
 771 553 771 553 770 551 c 1,81,82
 704 541 704 541 633.5 533 c 128,-1,83
 563 525 563 525 493.5 513 c 0,84,85
 331.256367663 484.986710963 331.256367663 484.986710963 233 424 c 1,86,87
 142.163636364 265.036363636 142.163636364 265.036363636 81 71 c 1,88,89
 159.521091811 99.3548387097 159.521091811 99.3548387097 335.5 133.5 c 0,90,91
 537.261696307 172.647791821 537.261696307 172.647791821 701.255255651 172.647791821 c 0,92,93
 743.904866713 172.647791821 743.904866713 172.647791821 784 170 c 1,94,95
 798.35443038 166.810126582 798.35443038 166.810126582 801 143 c 0,96,97
 802.692307692 127.769230769 802.692307692 127.769230769 799 113 c 1,98,99
 759.857142857 115 759.857142857 115 721 115 c 0,100,101
 623.857142857 115 623.857142857 115 528.5 102.5 c 0,102,103
 292.149075591 71.517669085 292.149075591 71.517669085 209.5 39 c 0,104,105
 133.851365015 9.23660262892 133.851365015 9.23660262892 94.9256825076 4.61830131446 c 0,106,107
 84.7220580218 3.40770179919 84.7220580218 3.40770179919 75.8188666288 3.40770179919 c 0,108,109
 50.7573818474 3.40770179919 50.7573818474 3.40770179919 36 13 c 1,110,111
 25.3548387097 17.2580645161 25.3548387097 17.2580645161 22 29 c 1,0,1
EndSplineSet
EndChar

StartChar: F
Encoding: 70 70 41
Width: 930
Flags: HW
LayerCount: 2
Fore
SplineSet
996 920 m 1,0,-1
 954 934 l 1,1,2
 741.0625 934 741.0625 934 669.53125 923.5 c 128,-1,3
 598 913 598 913 559 897 c 128,-1,4
 520 881 520 881 489 852.5 c 0,5,6
 433.858149366 801.805072804 433.858149366 801.805072804 375 678 c 1,7,-1
 366.5 663 l 2,8,9
 345.078167116 625.196765499 345.078167116 625.196765499 336.539083558 594.598382749 c 0,10,11
 330.723989682 573.760963027 330.723989682 573.760963027 330.723989682 561.084925057 c 0,12,13
 330.723989682 555.147033534 330.723989682 555.147033534 332 551 c 1,14,15
 359.677182927 546.28899014 359.677182927 546.28899014 390.757178379 546.28899014 c 0,16,17
 450.162741454 546.28899014 450.162741454 546.28899014 522 563.5 c 0,18,19
 570 575 570 575 618.5 590 c 128,-1,20
 667 605 667 605 715.5 617 c 0,21,22
 802.230755554 638.459156013 802.230755554 638.459156013 868.487526883 638.459156013 c 0,23,24
 890.916892557 638.459156013 890.916892557 638.459156013 911 636 c 1,25,-1
 911 607 l 2,26,27
 911 605 911 605 884 600 c 128,-1,28
 857 595 857 595 812.5 586.5 c 128,-1,29
 768 578 768 578 710 566 c 128,-1,30
 652 554 652 554 589.5 538.5 c 128,-1,31
 527 523 527 523 465 504 c 128,-1,32
 403 485 403 485 350.5 462 c 0,33,34
 235.183406114 411.480349345 235.183406114 411.480349345 205 353 c 0,35,36
 128.611313869 202.085766423 128.611313869 202.085766423 63 14 c 1,37,38
 55 3 55 3 41.5 0 c 0,39,40
 39.475 -0.45 39.475 -0.45 37.61875 -0.45 c 0,41,42
 27.1 -0.45 27.1 -0.45 22 14 c 256,43,44
 18.4404677469 24.0853413839 18.4404677469 24.0853413839 18.4404677469 36.3569484742 c 0,45,46
 18.4404677469 70.8113879547 18.4404677469 70.8113879547 46.5 122.5 c 0,47,48
 59.8644067797 147.118644068 59.8644067797 147.118644068 78.4322033898 189.559322034 c 128,-1,49
 97 232 97 232 113 268 c 128,-1,50
 129 304 129 304 143 336 c 128,-1,51
 157 368 157 368 163.5 382.5 c 128,-1,52
 170 397 170 397 161 408.5 c 128,-1,53
 152 420 152 420 141 431 c 128,-1,54
 130 442 130 442 124.5 453.5 c 128,-1,55
 119 465 119 465 131 477 c 128,-1,56
 143 489 143 489 157 491.5 c 128,-1,57
 171 494 171 494 185.5 496 c 0,58,59
 222.555555556 501.111111111 222.555555556 501.111111111 233 522 c 2,60,-1
 375 793 l 1,61,62
 368.785596711 816.476634647 368.785596711 816.476634647 368.785596711 836.012563113 c 0,63,64
 368.785596711 866.580195478 368.785596711 866.580195478 384 887.5 c 0,65,66
 396 904 396 904 416 918 c 128,-1,67
 436 932 436 932 460 949 c 1,68,69
 701 986.65625 701 986.65625 840 991 c 0,70,71
 865.6 991.8 865.6 991.8 891.36 991.8 c 0,72,73
 930 991.8 930 991.8 969 990 c 0,74,75
 976 989 976 989 987.5 979.5 c 128,-1,76
 999 970 999 970 1006.5 958 c 128,-1,77
 1014.1144963 945.816805926 1014.1144963 945.816805926 1014.1144963 937.338711899 c 0,78,79
 1014.1144963 924.262234423 1014.1144963 924.262234423 996 920 c 1,0,-1
EndSplineSet
EndChar

StartChar: G
Encoding: 71 71 42
Width: 760
Flags: HW
LayerCount: 2
Fore
SplineSet
92 14 m 0,0,1
 2.96432552322 80.3720482463 2.96432552322 80.3720482463 2.96432552322 206.870402576 c 0,2,3
 2.96432552322 225.997849912 2.96432552322 225.997849912 5 246.5 c 0,4,5
 18.3298654195 380.750787439 18.3298654195 380.750787439 116.5 544 c 0,6,7
 206.796431173 694.155863074 206.796431173 694.155863074 330.5 802 c 0,8,9
 456.711184211 912.030263158 456.711184211 912.030263158 550 916 c 1,10,11
 561.464000017 918.9906087 561.464000017 918.9906087 572.659316603 918.9906087 c 0,12,13
 606.29210869 918.9906087 606.29210869 918.9906087 637.5 892 c 0,14,15
 678.81938326 856.264317181 678.81938326 856.264317181 685 813 c 0,16,17
 685.922058482 806.545590625 685.922058482 806.545590625 685.922058482 800.649725616 c 0,18,19
 685.922058482 762.839066363 685.922058482 762.839066363 648 748 c 0,20,21
 643 745 643 745 635.5 745 c 128,-1,22
 628 745 628 745 628 748 c 2,23,-1
 628 846 l 2,24,25
 628 855.588235294 628 855.588235294 590.5 860 c 0,26,27
 582 861 582 861 577 860 c 0,28,29
 454 829 454 829 365.5 755 c 128,-1,30
 277 681 277 681 219 580 c 0,31,32
 64.3508539812 307.966562425 64.3508539812 307.966562425 54.5 181 c 0,33,34
 53.813559322 172.152542373 53.813559322 172.152542373 53.813559322 164.119505889 c 0,35,36
 53.813559322 119.491525424 53.813559322 119.491525424 75 100 c 0,37,38
 97.5490196078 79.2549019608 97.5490196078 79.2549019608 134.741637832 79.2549019608 c 0,39,40
 138.784313725 79.2549019608 138.784313725 79.2549019608 143 79.5 c 0,41,42
 186 82 186 82 242 105 c 128,-1,43
 298 128 298 128 356 163 c 128,-1,44
 414 198 414 198 469 239.5 c 128,-1,45
 524 281 524 281 565 320 c 0,46,47
 645.203996855 396.291606765 645.203996855 396.291606765 645.203996855 428.524277152 c 0,48,49
 645.203996855 433.867505896 645.203996855 433.867505896 643 438 c 1,50,51
 636.685541065 438.94716884 636.685541065 438.94716884 629.633534386 438.94716884 c 0,52,53
 609.024327704 438.94716884 609.024327704 438.94716884 582.11589404 430.857615894 c 0,54,55
 546 420 546 420 516 410 c 128,-1,56
 486 400 486 400 452 389 c 128,-1,57
 418 378 418 378 388 367.5 c 128,-1,58
 358 357 358 357 343 352 c 128,-1,59
 328 347 328 347 316.5 356.5 c 128,-1,60
 305 366 305 366 301 379.5 c 128,-1,61
 297 393 297 393 300.5 407 c 128,-1,62
 304 421 304 421 318.5 424 c 128,-1,63
 333 427 333 427 366 438 c 128,-1,64
 399 449 399 449 442 464.5 c 128,-1,65
 485 480 485 480 535 497 c 128,-1,66
 585 514 585 514 633.5 529 c 128,-1,67
 682 544 682 544 725.5 554.5 c 128,-1,68
 769 565 769 565 798.5 566 c 0,69,70
 801.181818182 566.090909091 801.181818182 566.090909091 803.727272727 566.090909091 c 0,71,72
 829.181818182 566.090909091 829.181818182 566.090909091 841 557 c 0,73,74
 847.5 552 847.5 552 847.5 543.25 c 128,-1,75
 847.5 534.5 847.5 534.5 841 522 c 1,76,77
 829 510 829 510 799.5 479.5 c 128,-1,78
 770 449 770 449 736 415 c 0,79,80
 638 317 638 317 620 302 c 128,-1,81
 602 287 602 287 585 272.5 c 128,-1,82
 568 258 568 258 548 241.5 c 128,-1,83
 528 225 528 225 509 208.5 c 0,84,85
 466.813559322 171.86440678 466.813559322 171.86440678 445 156 c 1,86,87
 307.346666667 35.5533333333 307.346666667 35.5533333333 216 6 c 0,88,89
 182 -5 182 -5 150 -5 c 128,-1,90
 118 -5 118 -5 92 14 c 0,0,1
EndSplineSet
EndChar

StartChar: H
Encoding: 72 72 43
Width: 886
Flags: HW
LayerCount: 2
Fore
SplineSet
49.5 6.5 m 0,0,1
 32.6265137807 23.3734862193 32.6265137807 23.3734862193 32.6265137807 57.3671354195 c 0,2,3
 32.6265137807 63.7677328593 32.6265137807 63.7677328593 33.2247191011 70.7752808989 c 0,4,5
 37 115 37 115 50 166.5 c 128,-1,6
 63 218 63 218 82.5 275.5 c 128,-1,7
 102 333 102 333 122 384.5 c 0,8,9
 162.716612378 489.345276873 162.716612378 489.345276873 191.858306189 556.672638436 c 128,-1,10
 221 624 221 624 238 665.5 c 128,-1,11
 255 707 255 707 274 751.5 c 128,-1,12
 293 796 293 796 310 837.5 c 0,13,14
 348.820895522 932.268656716 348.820895522 932.268656716 364 966 c 1,15,16
 376.461538462 970.153846154 376.461538462 970.153846154 385.088757396 970.153846154 c 0,17,18
 395.153846154 970.153846154 395.153846154 970.153846154 400 964.5 c 0,19,20
 406.230769231 957.230769231 406.230769231 957.230769231 406.230769231 943.01183432 c 0,21,22
 406.230769231 936.692307692 406.230769231 936.692307692 405 929 c 0,23,24
 401 904 401 904 387.5 868.5 c 128,-1,25
 374 833 374 833 355.5 792.5 c 128,-1,26
 337 752 337 752 317.5 709.5 c 128,-1,27
 298 667 298 667 282.5 628.5 c 0,28,29
 253.725522373 557.027910409 253.725522373 557.027910409 253.725522373 522.088397588 c 0,30,31
 253.725522373 514.735149324 253.725522373 514.735149324 255 509 c 1,32,33
 265.872586873 507.517374517 265.872586873 507.517374517 280.107795054 507.517374517 c 0,34,35
 331.71042471 507.517374517 331.71042471 507.517374517 427.5 527 c 0,36,37
 457 533 457 533 506 541.5 c 128,-1,38
 555 550 555 550 610 569.5 c 128,-1,39
 665 589 665 589 705.5 616.5 c 128,-1,40
 746 644 746 644 775.5 680 c 128,-1,41
 805 716 805 716 830 762.5 c 128,-1,42
 855 809 855 809 879 865 c 128,-1,43
 903 921 903 921 933 989 c 0,44,45
 941.571428571 1007 941.571428571 1007 949.408163265 1007 c 0,46,47
 950.714285714 1007 950.714285714 1007 952 1006.5 c 0,48,49
 961 1003 961 1003 967 989 c 128,-1,50
 973 975 973 975 975 957 c 0,51,52
 976.142857143 946.714285714 976.142857143 946.714285714 976.142857143 940.673469388 c 0,53,54
 976.142857143 936.142857143 976.142857143 936.142857143 975.5 934 c 0,55,56
 974 929 974 929 967.5 916.5 c 128,-1,57
 961 904 961 904 954 889.5 c 128,-1,58
 947 875 947 875 940.5 863 c 128,-1,59
 934 851 934 851 932.5 847 c 128,-1,60
 931 843 931 843 927 831 c 2,61,-1
 918.5 805.5 l 2,62,63
 914 792 914 792 909.5 779.5 c 128,-1,64
 905 767 905 767 904 763 c 1,65,66
 909 761 909 761 920 750 c 128,-1,67
 931 739 931 739 933 734 c 1,68,69
 933.727272727 730 933.727272727 730 933.727272727 725.834710744 c 0,70,71
 933.727272727 707.090909091 933.727272727 707.090909091 919 685 c 0,72,73
 901 658 901 658 875.5 629.5 c 128,-1,74
 850 601 850 601 825.5 573.5 c 128,-1,75
 801 546 801 546 792 522 c 0,76,77
 679.451263538 246.145253769 679.451263538 246.145253769 650 14 c 1,78,79
 640.683257621 -2.30429916387 640.683257621 -2.30429916387 630.119191808 -2.30429916387 c 0,80,81
 626.147738495 -2.30429916387 626.147738495 -2.30429916387 622 0 c 1,82,83
 621.452673786 7.38890389019 621.452673786 7.38890389019 621.452673786 15.9053527836 c 0,84,85
 621.452673786 62.3544407743 621.452673786 62.3544407743 637.733766234 142.344155844 c 0,86,87
 657 237 657 237 670.5 296 c 128,-1,88
 684 355 684 355 695.5 404 c 0,89,90
 722.131578947 517.473684211 722.131578947 517.473684211 721 522 c 1,91,92
 702.380091363 525.580751661 702.380091363 525.580751661 676.527987854 525.580751661 c 0,93,94
 553.890162133 525.580751661 553.890162133 525.580751661 268.5 445 c 0,95,96
 226 433 226 433 199 424 c 1,97,98
 177 377 177 377 163 320 c 128,-1,99
 149 263 149 263 135.5 205.5 c 0,100,101
 102.283213645 64.0210951526 102.283213645 64.0210951526 57 0 c 1,102,103
 55 1 55 1 49.5 6.5 c 0,0,1
EndSplineSet
EndChar

StartChar: I
Encoding: 73 73 44
Width: 275
Flags: HW
LayerCount: 2
Fore
SplineSet
18.5 28.5 m 0,0,1
 15 36 15 36 13.5 43.5 c 0,2,3
 12.75 47.25 12.75 47.25 12.75 53.125 c 128,-1,4
 12.75 59 12.75 59 13.5 67 c 0,5,6
 15 83 15 83 18.5 99 c 0,7,8
 26.6666666667 136.333333333 26.6666666667 136.333333333 29 141 c 2,9,-1
 311 876 l 2,10,11
 317.970241778 893.425604445 317.970241778 893.425604445 324.577262516 893.425604445 c 0,12,13
 328.089966154 893.425604445 328.089966154 893.425604445 331.5 888.5 c 0,14,15
 340.013513514 876.202702703 340.013513514 876.202702703 342.506756757 852.101351351 c 0,16,17
 344.109889939 836.604397255 344.109889939 836.604397255 344.109889939 824.359162174 c 0,18,19
 344.109889939 802.497252363 344.109889939 802.497252363 339 791 c 0,20,21
 299 696 299 696 258.5 601 c 128,-1,22
 218 506 218 506 180.5 409 c 0,23,24
 96.4291680051 191.53678124 96.4291680051 191.53678124 56 14 c 1,25,26
 47.9939599612 8.66263997413 47.9939599612 8.66263997413 41.0822813872 8.66263997413 c 0,27,28
 27.7574346787 8.66263997413 27.7574346787 8.66263997413 18.5 28.5 c 0,0,1
EndSplineSet
EndChar

StartChar: J
Encoding: 74 74 45
Width: 777
Flags: HW
LayerCount: 2
Fore
SplineSet
1224 978 m 128,-1,1
 1307 978 1307 978 1307 974 c 1,2,-1
 1321 932 l 1,3,4
 1288 930 1288 930 1230 928.5 c 128,-1,5
 1172 927 1172 927 1103 923 c 128,-1,6
 1034 919 1034 919 961 912 c 128,-1,7
 888 905 888 905 824 893 c 0,8,9
 676.924791086 865.423398329 676.924791086 865.423398329 643 819 c 1,10,11
 633 790 633 790 619 733.5 c 128,-1,12
 605 677 605 677 585 605 c 128,-1,13
 565 533 565 533 539.5 452.5 c 128,-1,14
 514 372 514 372 482 295.5 c 128,-1,15
 450 219 450 219 411 153.5 c 128,-1,16
 372 88 372 88 325.5 46.5 c 0,17,18
 263.343325513 -8.97316110109 263.343325513 -8.97316110109 195.564221488 -8.97316110109 c 0,19,20
 151.946322202 -8.97316110109 151.946322202 -8.97316110109 106 14 c 0,21,22
 79.1216216216 26.4054054054 79.1216216216 26.4054054054 45 81 c 0,23,24
 10.2586206897 136.586206897 10.2586206897 136.586206897 5.12931034483 170.293103448 c 0,25,26
 2.96019900498 184.547263682 2.96019900498 184.547263682 2.96019900498 195.724276627 c 0,27,28
 2.96019900498 210.97761194 2.96019900498 210.97761194 7 220.5 c 0,29,30
 14 237 14 237 36 240 c 1,31,32
 45.4651162791 79.0930232558 45.4651162791 79.0930232558 121 71 c 1,33,34
 131.556338574 70.3077810771 131.556338574 70.3077810771 141.841966491 70.3077810771 c 0,35,36
 292.843779827 70.3077810771 292.843779827 70.3077810771 385.5 219.5 c 0,37,38
 440.529515939 308.106847698 440.529515939 308.106847698 480.5 434.5 c 0,39,40
 501.005607477 499.342056075 501.005607477 499.342056075 529.502803738 604.171028037 c 128,-1,41
 558 709 558 709 573 749 c 1,42,43
 578.135534143 768.971521667 578.135534143 768.971521667 578.135534143 783.644385509 c 0,44,45
 578.135534143 815.781217961 578.135534143 815.781217961 553.5 822.5 c 0,46,47
 546.257689057 824.475175712 546.257689057 824.475175712 536.550786863 824.475175712 c 0,48,49
 507.678009564 824.475175712 507.678009564 824.475175712 457 807 c 0,50,51
 428 797 428 797 396.5 785.5 c 128,-1,52
 365 774 365 774 336.5 766 c 0,53,54
 301.643512958 756.215722935 301.643512958 756.215722935 278.25982846 756.215722935 c 0,55,56
 257.671494447 756.215722935 257.671494447 756.215722935 245.976933514 763.800542741 c 0,57,58
 227.341797548 775.886857838 227.341797548 775.886857838 227.341797548 788.418799856 c 0,59,60
 227.341797548 792.683595096 227.341797548 792.683595096 229.5 797 c 0,61,62
 238 814 238 814 271 829.5 c 128,-1,63
 304 845 304 845 355.5 859 c 128,-1,64
 407 873 407 873 466.5 885.5 c 128,-1,65
 526 898 526 898 588 908 c 128,-1,66
 650 918 650 918 704 926 c 128,-1,67
 758 934 758 934 798.5 939 c 128,-1,68
 839 944 839 944 857.5 946.5 c 128,-1,69
 876 949 876 949 914 953.5 c 128,-1,70
 952 958 952 958 990 962.5 c 0,71,72
 1087.11111111 974 1087.11111111 974 1114.05555556 976 c 128,-1,0
 1141 978 1141 978 1224 978 c 128,-1,1
EndSplineSet
EndChar

StartChar: K
Encoding: 75 75 46
Width: 994
Flags: HW
LayerCount: 2
Fore
SplineSet
904 -129 m 1,0,-1
 890 -115 l 1,1,2
 791.526836158 44.0720338983 791.526836158 44.0720338983 639.5 202.5 c 0,3,4
 592 252 592 252 525 321.5 c 128,-1,5
 458 391 458 391 406.5 431.5 c 128,-1,6
 355 472 355 472 320.5 477.5 c 0,7,8
 314.278688525 478.491803279 314.278688525 478.491803279 308.447594733 478.491803279 c 0,9,10
 281.942622951 478.491803279 281.942622951 478.491803279 263.5 458 c 0,11,12
 241 433 241 433 220 383.5 c 128,-1,13
 199 334 199 334 175 264 c 128,-1,14
 151 194 151 194 129.5 146 c 128,-1,15
 108 98 108 98 101 82 c 128,-1,16
 94 66 94 66 85.5 50.5 c 0,17,18
 65.1 13.3 65.1 13.3 43 -2 c 0,19,20
 26 -13 26 -13 24 0 c 0,21,22
 23.6 2.6 23.6 2.6 23.6 5.86 c 0,23,24
 23.6 18.9 23.6 18.9 30 42.5 c 0,25,26
 38 72 38 72 53.5 113.5 c 128,-1,27
 69 155 69 155 88 201 c 128,-1,28
 107 247 107 247 127.5 293 c 128,-1,29
 148 339 148 339 166 377.5 c 0,30,31
 208 467.333333333 208 467.333333333 225 508.166666667 c 128,-1,32
 242 549 242 549 273.5 608.5 c 128,-1,33
 305 668 305 668 336 725.5 c 0,34,35
 408.389416554 859.770691995 408.389416554 859.770691995 450 975 c 1,36,37
 458.404106475 980.348067757 458.404106475 980.348067757 465.765620141 980.348067757 c 0,38,39
 476.488949182 980.348067757 476.488949182 980.348067757 485 969 c 0,40,41
 494.940860215 955.745519713 494.940860215 955.745519713 494.940860215 943.559949127 c 0,42,43
 494.940860215 938.17562724 494.940860215 938.17562724 493 933 c 1,44,45
 485 917 485 917 469.5 885.5 c 128,-1,46
 454 854 454 854 437 819.5 c 128,-1,47
 420 785 420 785 405 753 c 128,-1,48
 390 721 390 721 385.5 711.5 c 128,-1,49
 381 702 381 702 378 695 c 128,-1,50
 375 688 375 688 372.5 679.5 c 0,51,52
 367.329963235 661.921875 367.329963235 661.921875 367.329963235 653.163224481 c 0,53,54
 367.329963235 650.010110294 367.329963235 650.010110294 368 648 c 1,55,56
 379.786026949 645.306050983 379.786026949 645.306050983 394.618618457 645.306050983 c 0,57,58
 515.083003984 645.306050983 515.083003984 645.306050983 836.5 823 c 0,59,60
 898 857 898 857 949 886 c 128,-1,61
 1000 915 1000 915 1025.5 927.5 c 0,62,63
 1048.26785714 938.660714286 1048.26785714 938.660714286 1055.88903061 938.660714286 c 0,64,65
 1056.80357143 938.660714286 1056.80357143 938.660714286 1057.5 938.5 c 0,66,67
 1062.19444444 937.416666667 1062.19444444 937.416666667 1062.19444444 932.421296296 c 0,68,69
 1062.19444444 930.5 1062.19444444 930.5 1061.5 928 c 0,70,71
 1059 919 1059 919 1049.5 905 c 128,-1,72
 1040 891 1040 891 1027 876.5 c 0,73,74
 998.687116564 844.920245399 998.687116564 844.920245399 980.843558282 834.960122699 c 128,-1,75
 963 825 963 825 937.5 812 c 128,-1,76
 912 799 912 799 885 785.5 c 0,77,78
 793.310344828 739.655172414 793.310344828 739.655172414 731.155172414 717.327586207 c 128,-1,79
 669 695 669 695 613 673.5 c 0,80,81
 429.391489362 603.007446809 429.391489362 603.007446809 392 562.5 c 0,82,83
 375.548387097 544.677419355 375.548387097 544.677419355 382 535 c 1,84,85
 456.346841478 488.044100119 456.346841478 488.044100119 630.5 307.5 c 0,86,87
 915.040248227 12.5179078014 915.040248227 12.5179078014 927.5 -92.5 c 0,88,89
 927.901639344 -95.8852459016 927.901639344 -95.8852459016 927.901639344 -98.9742004837 c 0,90,91
 927.901639344 -122.803278689 927.901639344 -122.803278689 904 -129 c 1,0,-1
EndSplineSet
EndChar

StartChar: L
Encoding: 76 76 47
Width: 876
Flags: HW
LayerCount: 2
Fore
SplineSet
827 72 m 1,0,-1
 799 71 l 1,1,2
 736.764705882 65.5882352941 736.764705882 65.5882352941 622.882352941 47.7941176471 c 128,-1,3
 509 30 509 30 441.5 20 c 128,-1,4
 374 10 374 10 308 3.5 c 0,5,6
 224.600594066 -4.71357785713 224.600594066 -4.71357785713 156.791059455 -4.71357785713 c 0,7,8
 105.422200714 -4.71357785713 105.422200714 -4.71357785713 63 0 c 0,9,10
 61 0 61 0 50.5 5.5 c 128,-1,11
 40 11 40 11 33 15.5 c 128,-1,12
 26 20 26 20 22.5 31 c 0,13,14
 19.7777777778 39.5555555556 19.7777777778 39.5555555556 19.7777777778 49.3209876543 c 0,15,16
 19.7777777778 52.1111111111 19.7777777778 52.1111111111 20 55 c 0,17,18
 23.7466666667 103.706666667 23.7466666667 103.706666667 78 183 c 1,19,20
 117 259 117 259 149 320 c 128,-1,21
 181 381 181 381 209 434.5 c 128,-1,22
 237 488 237 488 262 538 c 128,-1,23
 287 588 287 588 312.5 642.5 c 0,24,25
 363.552795031 751.612836439 363.552795031 751.612836439 426 903 c 1,26,27
 438.857142857 924.428571429 438.857142857 924.428571429 447.428571429 930.714285714 c 0,28,29
 454.117915736 935.619804873 454.117915736 935.619804873 460.361766531 935.619804873 c 0,30,31
 472.526359759 935.619804873 472.526359759 935.619804873 483 917 c 1,32,33
 488.889173432 904.730888683 488.889173432 904.730888683 488.889173432 886.400612854 c 0,34,35
 488.889173432 809.41191513 488.889173432 809.41191513 385 625.5 c 0,36,37
 331.226666667 530.306666667 331.226666667 530.306666667 261.113333333 411.653333333 c 128,-1,38
 191 293 191 293 162 235 c 0,39,40
 104.944499831 120.888999661 104.944499831 120.888999661 104.944499831 68.9721649827 c 0,41,42
 104.944499831 61.910800948 104.944499831 61.910800948 106 56 c 1,43,44
 145.555555556 52.4444444444 145.555555556 52.4444444444 185.308641975 52.4444444444 c 0,45,46
 235 52.4444444444 235 52.4444444444 285 58 c 0,47,48
 375 68 375 68 465 82 c 128,-1,49
 555 96 555 96 645.5 107.5 c 0,50,51
 704.971428571 115.057142857 704.971428571 115.057142857 764.226938776 115.057142857 c 0,52,53
 795.142857143 115.057142857 795.142857143 115.057142857 826 113 c 1,54,55
 842 114 842 114 853.5 100.5 c 0,56,57
 859.651162791 93.2790697674 859.651162791 93.2790697674 859.651162791 85.3428880476 c 0,58,59
 859.651162791 78.4418604651 859.651162791 78.4418604651 855 71 c 1,60,-1
 827 72 l 1,0,-1
EndSplineSet
EndChar

StartChar: M
Encoding: 77 77 48
Width: 1267
Flags: HW
LayerCount: 2
Fore
SplineSet
951 -92 m 128,-1,1
 946 -87 946 -87 945 -85 c 128,-1,2
 944 -83 944 -83 944 -77 c 128,-1,3
 944 -71 944 -71 945 -68.5 c 128,-1,4
 946 -66 946 -66 950 -54 c 128,-1,5
 954 -42 954 -42 958.5 -27.5 c 128,-1,6
 963 -13 963 -13 967.5 -0.5 c 128,-1,7
 972 12 972 12 984.5 52 c 128,-1,8
 997 92 997 92 1017 158 c 128,-1,9
 1037 224 1037 224 1055 284.5 c 128,-1,10
 1073 345 1073 345 1089 402.5 c 128,-1,11
 1105 460 1105 460 1121.5 521 c 0,12,13
 1193 785.333333333 1193 785.333333333 1193 802.666666667 c 128,-1,14
 1193 820 1193 820 1192 823 c 1,15,16
 1176.45262944 828.042390453 1176.45262944 828.042390453 1159.39439217 828.042390453 c 0,17,18
 1070.30331727 828.042390453 1070.30331727 828.042390453 940 690.5 c 0,19,20
 870.506329114 617.14556962 870.506329114 617.14556962 800.253164557 527.57278481 c 128,-1,21
 730 438 730 438 696.5 396.5 c 0,22,23
 621.850393701 304.023622047 621.850393701 304.023622047 592 297 c 0,24,25
 587.568947182 296.113789436 587.568947182 296.113789436 583.135852404 296.113789436 c 0,26,27
 568.329315845 296.113789436 568.329315845 296.113789436 553.5 306 c 0,28,29
 549 309 549 309 549 312 c 2,30,-1
 549 397 l 1,31,32
 552 411 552 411 559 441 c 128,-1,33
 566 471 566 471 574 508.5 c 128,-1,34
 582 546 582 546 591.5 587.5 c 128,-1,35
 601 629 601 629 609 666.5 c 128,-1,36
 617 704 617 704 624 733.5 c 128,-1,37
 631 763 631 763 635.5 785 c 128,-1,38
 640 807 640 807 646 834 c 0,39,40
 649.6 850.2 649.6 850.2 649.6 867.48 c 0,41,42
 649.6 879 649.6 879 648 891 c 1,43,44
 637.99400855 894.335330483 637.99400855 894.335330483 627.361692032 894.335330483 c 0,45,46
 551.939325618 894.335330483 551.939325618 894.335330483 445 726.5 c 0,47,48
 380.584756899 625.403854577 380.584756899 625.403854577 324.792378449 512.201927289 c 128,-1,49
 269 399 269 399 237.5 332 c 128,-1,50
 206 265 206 265 177.5 206 c 128,-1,51
 149 147 149 147 125.5 103 c 128,-1,52
 102 59 102 59 84 35 c 0,53,54
 68.5714285714 14.4285714286 68.5714285714 14.4285714286 58.2857142857 14.4285714286 c 0,55,56
 56.5714285714 14.4285714286 56.5714285714 14.4285714286 55 15 c 0,57,58
 41.6251746967 19.7205265776 41.6251746967 19.7205265776 41.6251746967 44.2629956586 c 0,59,60
 41.6251746967 124.897315935 41.6251746967 124.897315935 186 419.5 c 0,61,62
 260.852121212 572.238787879 260.852121212 572.238787879 341.926060606 720.619393939 c 128,-1,63
 423 869 423 869 436 891 c 1,64,65
 454.068308533 884.745585508 454.068308533 884.745585508 471.26731402 884.745585508 c 0,66,67
 496.304774639 884.745585508 496.304774639 884.745585508 519.5 898 c 0,68,69
 537 908 537 908 554 922 c 128,-1,70
 571 936 571 936 592 948 c 0,71,72
 631.476200574 971.685720344 631.476200574 971.685720344 658.124755622 971.685720344 c 0,73,74
 687.194749219 971.685720344 687.194749219 971.685720344 701 943.5 c 0,75,76
 712.737481987 919.535974276 712.737481987 919.535974276 712.737481987 871.851197181 c 0,77,78
 712.737481987 780.860550248 712.737481987 780.860550248 670 603.5 c 0,79,80
 646.58436214 506.325102881 646.58436214 506.325102881 648 495 c 1,81,82
 658 490 658 490 664.5 496.5 c 128,-1,83
 671 503 671 503 676 509 c 0,84,85
 680 515 680 515 694.5 532.5 c 128,-1,86
 709 550 709 550 727.5 573 c 128,-1,87
 746 596 746 596 767.5 622.5 c 128,-1,88
 789 649 789 649 808 672 c 128,-1,89
 827 695 827 695 841 712.5 c 128,-1,90
 855 730 855 730 860 736 c 1,91,92
 1082.6330091 911.655401677 1082.6330091 911.655401677 1179.95040877 911.655401677 c 0,93,94
 1215.66329126 911.655401677 1215.66329126 911.655401677 1234.5 888 c 0,95,96
 1257.46648683 859.158365381 1257.46648683 859.158365381 1257.46648683 800.587320474 c 0,97,98
 1257.46648683 707.135194034 1257.46648683 707.135194034 1199 538 c 0,99,100
 1188.4 508.85 1188.4 508.85 1150.2 379.925 c 128,-1,101
 1112 251 1112 251 1097.5 203 c 128,-1,102
 1083 155 1083 155 1072 119 c 128,-1,103
 1061 83 1061 83 1059.5 77 c 128,-1,104
 1058 71 1058 71 1055 56 c 128,-1,105
 1052 41 1052 41 1047 20.5 c 128,-1,106
 1042 0 1042 0 1033.5 -23.5 c 128,-1,107
 1025 -47 1025 -47 1014 -65.5 c 0,108,109
 993.412860194 -100.123826037 993.412860194 -100.123826037 969.852645765 -100.123826037 c 0,110,111
 964.017507105 -100.123826037 964.017507105 -100.123826037 958 -98 c 0,112,0
 956 -97 956 -97 951 -92 c 128,-1,1
EndSplineSet
EndChar

StartChar: N
Encoding: 78 78 49
Width: 1037
Flags: HW
LayerCount: 2
Fore
SplineSet
13 14 m 128,-1,1
 13 25 13 25 17.5 46.5 c 128,-1,2
 22 68 22 68 44 115 c 128,-1,3
 66 162 66 162 92 208.5 c 128,-1,4
 118 255 118 255 143.5 297 c 128,-1,5
 169 339 169 339 180 361 c 128,-1,6
 191 383 191 383 207 413.5 c 128,-1,7
 223 444 223 444 242 483 c 128,-1,8
 261 522 261 522 282.5 565 c 128,-1,9
 304 608 304 608 324 647 c 128,-1,10
 344 686 344 686 359 717 c 128,-1,11
 374 748 374 748 382 763 c 1,12,13
 407.171700337 789.039690004 407.171700337 789.039690004 428.971082968 789.039690004 c 0,14,15
 472.440089999 789.039690004 472.440089999 789.039690004 502.5 685.5 c 0,16,17
 523.847560976 611.969512195 523.847560976 611.969512195 545.923780488 504.984756098 c 128,-1,18
 568 398 568 398 583.5 338.5 c 0,19,20
 619.940196078 198.616666667 619.940196078 198.616666667 664 141 c 1,21,22
 667.782734164 139.108632918 667.782734164 139.108632918 672.073231068 139.108632918 c 0,23,24
 715.626021032 139.108632918 715.626021032 139.108632918 811.5 334 c 0,25,26
 889.101265823 491.746835443 889.101265823 491.746835443 949.050632911 637.873417722 c 0,27,28
 1041 862 1041 862 1053 883.5 c 0,29,30
 1064.72727273 904.511363636 1064.72727273 904.511363636 1073.5893595 904.511363636 c 128,-1,31
 1082.62320574 904.511363636 1082.62320574 904.511363636 1090 894.5 c 0,32,33
 1097 885 1097 885 1100 870.5 c 0,34,35
 1101.28571429 864.285714286 1101.28571429 864.285714286 1101.28571429 858.714285714 c 0,36,37
 1101.28571429 851.285714286 1101.28571429 851.285714286 1099 845 c 0,38,39
 1021.0698577 632.640362225 1021.0698577 632.640362225 968.034928849 515.820181113 c 0,40,41
 885.274576271 333.523728814 885.274576271 333.523728814 777 127 c 1,42,43
 733.807511737 75.1690140845 733.807511737 75.1690140845 700 72.5 c 0,44,45
 697.963820302 72.3392489712 697.963820302 72.3392489712 695.930727729 72.3392489712 c 0,46,47
 658.440500686 72.3392489712 658.440500686 72.3392489712 622 127 c 1,48,49
 554.052537527 247.979628306 554.052537527 247.979628306 516.5 392.5 c 0,50,51
 500 456 500 456 486.5 522 c 128,-1,52
 473 588 473 588 453 664 c 1,53,54
 450.996875814 665.251952616 450.996875814 665.251952616 448.497953634 665.251952616 c 0,55,56
 413.665268568 665.251952616 413.665268568 665.251952616 282.5 422 c 0,57,58
 216.049180328 298.763934426 216.049180328 298.763934426 186.024590164 239.381967213 c 0,59,60
 118.56 105.952 118.56 105.952 103.28 79.976 c 128,-1,61
 88 54 88 54 79 38.5 c 128,-1,62
 70 23 70 23 63 11.5 c 2,63,-1
 56 0 l 1,64,-1
 14 0 l 1,65,0
 13 3 13 3 13 14 c 128,-1,1
EndSplineSet
EndChar

StartChar: O
Encoding: 79 79 50
Width: 659
Flags: HW
LayerCount: 2
Fore
SplineSet
117 15.5 m 0,0,1
 79 32 79 32 57 59 c 128,-1,2
 35 86 35 86 27.5 119 c 0,3,4
 22.8125 139.625 22.8125 139.625 22.8125 161.6171875 c 0,5,6
 22.8125 174.8125 22.8125 174.8125 24.5 188.5 c 0,7,8
 29 225 29 225 41.5 261.5 c 0,9,10
 66.8619153675 335.556792873 66.8619153675 335.556792873 125 425 c 0,11,12
 168.333333333 491.666666667 168.333333333 491.666666667 205.166666667 545.833333333 c 128,-1,13
 242 600 242 600 255 620 c 128,-1,14
 268 640 268 640 275 649 c 1,15,16
 297.572939771 793.8430302 297.572939771 793.8430302 392.5 857.5 c 0,17,18
 435 886 435 886 483.5 892 c 0,19,20
 497.695121951 893.756097561 497.695121951 893.756097561 511.590422368 893.756097561 c 0,21,22
 545.170731707 893.756097561 545.170731707 893.756097561 577 883.5 c 0,23,24
 622 869 622 869 659 835.5 c 128,-1,25
 696 802 696 802 715.5 751 c 0,26,27
 732.4 706.8 732.4 706.8 732.4 649.831111111 c 0,28,29
 732.4 641.066666667 732.4 641.066666667 732 632 c 0,30,31
 729 564 729 564 694.5 481.5 c 0,32,33
 617.876993166 298.271070615 617.876993166 298.271070615 402 99 c 1,34,35
 346.661921708 45.8754448399 346.661921708 45.8754448399 271 18 c 0,36,37
 226.021138283 1.42884042012 226.021138283 1.42884042012 186.148429207 1.42884042012 c 0,38,39
 149.406306911 1.42884042012 149.406306911 1.42884042012 117 15.5 c 0,0,1
88 229 m 0,40,41
 74.6363636364 187.636363636 74.6363636364 187.636363636 74.6363636364 150.727272727 c 0,42,43
 74.6363636364 129.636363636 74.6363636364 129.636363636 79 110 c 0,44,45
 91 56 91 56 125.5 42.5 c 0,46,47
 140.0546875 36.8046875 140.0546875 36.8046875 156.923095703 36.8046875 c 0,48,49
 180.0390625 36.8046875 180.0390625 36.8046875 207.5 47.5 c 0,50,51
 255 66 255 66 311.5 111.5 c 128,-1,52
 368 157 368 157 424 217.5 c 128,-1,53
 480 278 480 278 531.5 349 c 128,-1,54
 583 420 583 420 620.5 490 c 128,-1,55
 658 560 658 560 678 624 c 0,56,57
 693.094339623 672.301886792 693.094339623 672.301886792 693.094339623 710.635813457 c 0,58,59
 693.094339623 723.094339623 693.094339623 723.094339623 691.5 734.5 c 0,60,61
 685 781 685 781 646.5 805 c 0,62,63
 619.323529412 821.941176471 619.323529412 821.941176471 572.465397924 821.941176471 c 0,64,65
 552.941176471 821.941176471 552.941176471 821.941176471 530 819 c 1,66,67
 390.471153846 694.420673077 390.471153846 694.420673077 245 504.5 c 0,68,69
 127.407982262 350.977087953 127.407982262 350.977087953 88 229 c 0,40,41
EndSplineSet
EndChar

StartChar: P
Encoding: 80 80 51
Width: 760
Flags: HW
LayerCount: 2
Fore
SplineSet
29 29 m 0,0,1
 23.7177503166 39.0842948501 23.7177503166 39.0842948501 23.7177503166 54.5108933828 c 0,2,3
 23.7177503166 108.743224267 23.7177503166 108.743224267 89 229 c 0,4,5
 108 264 108 264 114.5 278.5 c 128,-1,6
 121 293 121 293 122.5 298.5 c 128,-1,7
 124 304 124 304 126 310 c 0,8,9
 131.6 326.8 131.6 326.8 139.8 343.9 c 128,-1,10
 148 361 148 361 164.5 395.5 c 128,-1,11
 181 430 181 430 202 473 c 128,-1,12
 223 516 223 516 246 563.5 c 128,-1,13
 269 611 269 611 290 654.5 c 128,-1,14
 311 698 311 698 327.5 732 c 128,-1,15
 344 766 344 766 352 783 c 1,16,-1
 352 811 l 1,17,18
 344.20688786 812.41692948 344.20688786 812.41692948 336.069052802 812.41692948 c 0,19,20
 289.241705561 812.41692948 289.241705561 812.41692948 231 765.5 c 0,21,22
 213 751 213 751 197 740 c 1,23,24
 176.27165804 744.877256932 176.27165804 744.877256932 176.27165804 763.614179721 c 0,25,26
 176.27165804 771.560642512 176.27165804 771.560642512 180 782 c 0,27,28
 190 810 190 810 211 825 c 1,29,30
 342 906 342 906 490.5 933.5 c 0,31,32
 571.366336634 948.475247525 571.366336634 948.475247525 653.27056171 948.475247525 c 0,33,34
 721.772277228 948.475247525 721.772277228 948.475247525 791 938 c 1,35,36
 943.747484282 859.965959117 943.747484282 859.965959117 943.747484282 758.468536625 c 0,37,38
 943.747484282 746.15688517 943.747484282 746.15688517 941.5 733.5 c 0,39,40
 923.901390443 634.392040914 923.901390443 634.392040914 774 527 c 0,41,42
 646.199153738 435.441184767 646.199153738 435.441184767 466.5 366.5 c 0,43,44
 300.983606557 303 300.983606557 303 197 303 c 1,45,46
 134.570552147 204.153374233 134.570552147 204.153374233 124.785276074 176.576687117 c 128,-1,47
 115 149 115 149 109 129.5 c 0,48,49
 86.4838709677 56.3225806452 86.4838709677 56.3225806452 71 14 c 1,50,-1
 57 0 l 1,51,52
 52 2 52 2 41.5 13 c 128,-1,53
 31 24 31 24 29 29 c 0,0,1
240 374 m 1,54,55
 261.753409222 370.306024849 261.753409222 370.306024849 285.748758913 370.306024849 c 0,56,57
 405.299011765 370.306024849 405.299011765 370.306024849 580.5 462 c 0,58,59
 634 490 634 490 677 514 c 0,60,61
 782 573 782 573 834 628.5 c 128,-1,62
 886 684 886 684 897.5 732 c 0,63,64
 901.447761194 748.47761194 901.447761194 748.47761194 901.447761194 763.717865894 c 0,65,66
 901.447761194 792.873134328 901.447761194 792.873134328 887 817.5 c 0,67,68
 865 855 865 855 822 878 c 128,-1,69
 779 901 779 901 722 907 c 0,70,71
 705.714285714 908.714285714 705.714285714 908.714285714 689.346938776 908.714285714 c 0,72,73
 648.428571429 908.714285714 648.428571429 908.714285714 607 898 c 0,74,75
 549 883 549 883 496 844.5 c 128,-1,76
 443 806 443 806 409 740 c 0,77,78
 367.66 660.5 367.66 660.5 345.83 616.25 c 128,-1,79
 324 572 324 572 305.5 535 c 128,-1,80
 287 498 287 498 272.5 468.5 c 0,81,82
 240 402.379310345 240 402.379310345 240 401 c 2,83,-1
 240 374 l 1,54,55
EndSplineSet
EndChar

StartChar: Q
Encoding: 81 81 52
Width: 741
Flags: HW
LayerCount: 2
Fore
SplineSet
571.5 -217.5 m 0,0,1
 565 -211 565 -211 554.5 -197.5 c 128,-1,2
 544 -184 544 -184 532.5 -150.5 c 128,-1,3
 521 -117 521 -117 509.5 -82.5 c 128,-1,4
 498 -48 498 -48 483.5 -19.5 c 128,-1,5
 469 9 469 9 447 20 c 0,6,7
 439 24 439 24 420 17.5 c 128,-1,8
 401 11 401 11 374.5 1.5 c 128,-1,9
 348 -8 348 -8 316 -16 c 0,10,11
 290.4 -22.4 290.4 -22.4 263.84 -22.4 c 0,12,13
 257.2 -22.4 257.2 -22.4 250.5 -22 c 0,14,15
 171.85620378 -17.3048479869 171.85620378 -17.3048479869 123 49 c 1,16,17
 83.5461110216 100.913011814 83.5461110216 100.913011814 83.5461110216 174.869446155 c 0,18,19
 83.5461110216 230.662077022 83.5461110216 230.662077022 106 299 c 0,20,21
 145.011538462 417.730769231 145.011538462 417.730769231 256.5 577 c 0,22,23
 316.942307692 663.346153846 316.942307692 663.346153846 419 783 c 0,24,25
 438 806 438 806 461.5 836 c 128,-1,26
 485 866 485 866 512 894.5 c 0,27,28
 576.846153846 962.948717949 576.846153846 962.948717949 631 981 c 0,29,30
 633.624583329 981.787374999 633.624583329 981.787374999 636.307332568 981.787374999 c 0,31,32
 650.58044643 981.787374999 650.58044643 981.787374999 666.5 959.5 c 0,33,34
 674 949 674 949 679 938.5 c 128,-1,35
 684 928 684 928 687 925 c 0,36,37
 785.991407229 806.904987868 785.991407229 806.904987868 785.991407229 644.871232695 c 0,38,39
 785.991407229 628.655641442 785.991407229 628.655641442 785 612 c 0,40,41
 775.047380156 444.795986622 775.047380156 444.795986622 674 290 c 0,42,43
 671 285 671 285 661 272 c 128,-1,44
 651 259 651 259 638 241.5 c 128,-1,45
 625 224 625 224 610 204.5 c 128,-1,46
 595 185 595 185 582 167.5 c 128,-1,47
 569 150 569 150 559 137 c 128,-1,48
 549 124 549 124 546 120 c 0,49,50
 521.45928012 84.9418287425 521.45928012 84.9418287425 521.45928012 41.6013149364 c 0,51,52
 521.45928012 -3.47067738658 521.45928012 -3.47067738658 548 -57.5 c 0,53,54
 581.565 -125.82875 581.565 -125.82875 589.2825 -159.914375 c 0,55,56
 593.071894385 -176.650866868 593.071894385 -176.650866868 593.071894385 -191.196869386 c 0,57,58
 593.071894385 -206.275330046 593.071894385 -206.275330046 589 -219 c 1,59,60
 584.217391304 -221.173913043 584.217391304 -221.173913043 580.285444234 -221.173913043 c 0,61,62
 575.173913043 -221.173913043 575.173913043 -221.173913043 571.5 -217.5 c 0,0,1
194 35 m 0,63,64
 241.282068045 3.77599280075 241.282068045 3.77599280075 282.237717754 3.77599280075 c 0,65,66
 324.484681959 3.77599280075 324.484681959 3.77599280075 360 37 c 0,67,68
 414.677165354 88.1496062992 414.677165354 88.1496062992 447.5 208.5 c 0,69,70
 472.104477612 298.71641791 472.104477612 298.71641791 475 374 c 1,71,72
 482.5 377.75 482.5 377.75 496.75 375.375 c 128,-1,73
 511 373 511 373 518 370 c 128,-1,74
 525 367 525 367 525 360 c 2,75,-1
 525 219 l 1,76,77
 606.914701803 278.054785021 606.914701803 278.054785021 667 396 c 0,78,79
 723.862650602 507.619277108 723.862650602 507.619277108 729.931325301 613.809638554 c 0,80,81
 731.813354267 646.741595863 731.813354267 646.741595863 731.813354267 675.134992001 c 0,82,83
 731.813354267 738.297192464 731.813354267 738.297192464 722.5 779 c 0,84,85
 709 838 709 838 682 859 c 0,86,87
 665.323529412 871.970588235 665.323529412 871.970588235 644.259948097 871.970588235 c 0,88,89
 631.220588235 871.970588235 631.220588235 871.970588235 616.5 867 c 0,90,91
 578 854 578 854 534 816.5 c 128,-1,92
 490 779 490 779 443 722.5 c 128,-1,93
 396 666 396 666 351.5 598.5 c 128,-1,94
 307 531 307 531 268.5 457.5 c 128,-1,95
 230 384 230 384 202 314.5 c 0,96,97
 149.653500356 184.568509811 149.653500356 184.568509811 149.653500356 102.940905967 c 0,98,99
 149.653500356 89.8491968708 149.653500356 89.8491968708 151 78 c 1,100,101
 158.066666667 67.4 158.066666667 67.4 174.533333333 52.2 c 128,-1,102
 191 37 191 37 194 35 c 0,63,64
EndSplineSet
EndChar

StartChar: R
Encoding: 82 82 53
Width: 859
Flags: HW
LayerCount: 2
Fore
SplineSet
41 -8 m 0,0,1
 39.7307692308 -8.34615384615 39.7307692308 -8.34615384615 38.5081360947 -8.34615384615 c 0,2,3
 29.1346153846 -8.34615384615 29.1346153846 -8.34615384615 22.5 12 c 0,4,5
 19.375 21.5833333333 19.375 21.5833333333 19.375 34.2048611111 c 0,6,7
 19.375 51.875 19.375 51.875 25.5 75.5 c 0,8,9
 36 116 36 116 58.5 168 c 128,-1,10
 81 220 81 220 111.5 280 c 128,-1,11
 142 340 142 340 174.5 400 c 128,-1,12
 207 460 207 460 238.5 517.5 c 128,-1,13
 270 575 270 575 293.5 621.5 c 0,14,15
 340.64095013 714.778901322 340.64095013 714.778901322 340.64095013 736.826759183 c 0,16,17
 340.64095013 739.397624674 340.64095013 739.397624674 340 741 c 1,18,19
 334.444444444 742.851851852 334.444444444 742.851851852 328.614540466 742.851851852 c 0,20,21
 318.703703704 742.851851852 318.703703704 742.851851852 308 737.5 c 0,22,23
 291 729 291 729 274 720.5 c 128,-1,24
 257 712 257 712 241 710 c 0,25,26
 239.476190476 709.80952381 239.476190476 709.80952381 237.988662132 709.80952381 c 0,27,28
 223.857142857 709.80952381 223.857142857 709.80952381 213 727 c 0,29,30
 208.228285613 734.157571581 208.228285613 734.157571581 208.228285613 741.699905796 c 0,31,32
 208.228285613 757.05281624 208.228285613 757.05281624 228 774 c 0,33,34
 235 780 235 780 240 783 c 0,35,36
 383 876 383 876 511 928.5 c 128,-1,37
 639 981 639 981 740.5 1000 c 0,38,39
 804.783333333 1012.03333333 804.783333333 1012.03333333 856.231111111 1012.03333333 c 0,40,41
 886.016666667 1012.03333333 886.016666667 1012.03333333 911.5 1008 c 0,42,43
 981 997 981 997 1007.5 962.5 c 0,44,45
 1021.68686869 944.03030303 1021.68686869 944.03030303 1021.68686869 919.828537904 c 0,46,47
 1021.68686869 898.823232323 1021.68686869 898.823232323 1011 873.5 c 0,48,49
 988 819 988 819 904.5 751.5 c 0,50,51
 715.239724455 598.505166475 715.239724455 598.505166475 292 450 c 1,52,53
 287.69942445 442.832374083 287.69942445 442.832374083 287.69942445 434.551542903 c 0,54,55
 287.69942445 401.430296187 287.69942445 401.430296187 356.5 350.5 c 0,56,57
 400.944344704 317.599640934 400.944344704 317.599640934 502.472172352 256.299820467 c 128,-1,58
 604 195 604 195 652.5 164.5 c 128,-1,59
 701 134 701 134 732.5 106 c 0,60,61
 774.365491451 68.7862298213 774.365491451 68.7862298213 774.365491451 43.0524267933 c 0,62,63
 774.365491451 26.0082059488 774.365491451 26.0082059488 756 14 c 0,64,65
 755.816401469 13.8164014688 755.816401469 13.8164014688 755.437818451 13.8164014688 c 0,66,67
 750.932680539 13.8164014688 750.932680539 13.8164014688 718.815789474 39.8157894737 c 0,68,69
 684 68 684 68 659.5 87.5 c 128,-1,70
 635 107 635 107 613.5 125 c 0,71,72
 566.590909091 164.272727273 566.590909091 164.272727273 558 170 c 0,73,74
 483 218 483 218 407.5 264 c 128,-1,75
 332 310 332 310 261 368 c 1,76,77
 257.007926054 369.408967275 257.007926054 369.408967275 252.855245495 369.408967275 c 0,78,79
 212.145181553 369.408967275 212.145181553 369.408967275 156 234 c 0,80,81
 139 193 139 193 123 152 c 128,-1,82
 107 111 107 111 92.5 75 c 128,-1,83
 78 39 78 39 65 17 c 128,-1,84
 52 -5 52 -5 41 -8 c 0,0,1
320 535 m 1,85,86
 332.405302946 530.864899018 332.405302946 530.864899018 349.36306211 530.864899018 c 0,87,88
 401.863797618 530.864899018 401.863797618 530.864899018 498 570.5 c 0,89,90
 610.85088 617.02624 610.85088 617.02624 734.5 698 c 0,91,92
 860.677643505 780.629607251 860.677643505 780.629607251 911.5 842 c 0,93,94
 939.933574254 876.334882118 939.933574254 876.334882118 939.933574254 896.943157913 c 0,95,96
 939.933574254 918.438332734 939.933574254 918.438332734 909 925 c 1,97,98
 893.571428571 925.228571429 893.571428571 925.228571429 878.665306122 925.228571429 c 0,99,100
 763.142857143 925.228571429 763.142857143 925.228571429 679 911.5 c 0,101,102
 584 896 584 896 516 853.5 c 128,-1,103
 448 811 448 811 402 737.5 c 128,-1,104
 356 664 356 664 320 550 c 1,105,-1
 320 535 l 1,85,86
EndSplineSet
EndChar

StartChar: S
Encoding: 83 83 54
Width: 768
Flags: HW
LayerCount: 2
Fore
SplineSet
350 -2.5 m 0,0,1
 301.860786079 -11.1500150015 301.860786079 -11.1500150015 252.263033774 -11.1500150015 c 0,2,3
 235.921692169 -11.1500150015 235.921692169 -11.1500150015 219.422018349 -10.2110091743 c 0,4,5
 152.844036697 -6.42201834862 152.844036697 -6.42201834862 85 27.5 c 0,6,7
 27.3333333333 56.3333333333 27.3333333333 56.3333333333 13 85 c 0,8,9
 11 89 11 89 11 92.75 c 0,10,11
 11 104 11 104 29 113 c 1,12,13
 73.1849710983 71.9710982659 73.1849710983 71.9710982659 114 56 c 1,14,15
 151.448917462 54.3478418767 151.448917462 54.3478418767 185.771850853 54.3478418767 c 0,16,17
 296.362390772 54.3478418767 296.362390772 54.3478418767 374.5 71.5 c 0,18,19
 505.432473445 100.241274659 505.432473445 100.241274659 607 183 c 0,20,21
 700.0624468 259.551367529 700.0624468 259.551367529 700.0624468 327.473802325 c 0,22,23
 700.0624468 379.243289254 700.0624468 379.243289254 646 426 c 0,24,25
 578.48044992 484.395286556 578.48044992 484.395286556 451.5 538.5 c 0,26,27
 304.736543909 601.033994334 304.736543909 601.033994334 254.368271955 628.016997167 c 128,-1,28
 204 655 204 655 184 678 c 1,29,30
 183.193434555 681.387574869 183.193434555 681.387574869 183.193434555 684.985117681 c 0,31,32
 183.193434555 723.782531983 183.193434555 723.782531983 277 787 c 0,33,34
 363.957692308 845.601923077 363.957692308 845.601923077 507 903.5 c 0,35,36
 642.343612335 958.281938326 642.343612335 958.281938326 733.5 967.5 c 0,37,38
 748.37586606 969.004301062 748.37586606 969.004301062 760.722119943 969.004301062 c 0,39,40
 820.980362831 969.004301062 820.980362831 969.004301062 820.980362831 933.170136591 c 0,41,42
 820.980362831 926.673905972 820.980362831 926.673905972 819 919 c 1,43,44
 737.068965517 900.793103448 737.068965517 900.793103448 624.534482759 863.896551724 c 128,-1,45
 512 827 512 827 453.5 805 c 128,-1,46
 395 783 395 783 345.5 760.5 c 128,-1,47
 296 738 296 738 266.5 717.5 c 0,48,49
 233.804860758 694.779649002 233.804860758 694.779649002 233.804860758 677.781786741 c 0,50,51
 233.804860758 660.398379747 233.804860758 660.398379747 268 649 c 1,52,53
 544.461614759 565.682801032 544.461614759 565.682801032 658 457.5 c 0,54,55
 736.274073842 382.918099453 736.274073842 382.918099453 736.274073842 304.020450414 c 0,56,57
 736.274073842 281.683190043 736.274073842 281.683190043 730 259 c 0,58,59
 704.83713355 168.026559759 704.83713355 168.026559759 591 92.5 c 0,60,61
 484.141614907 21.6035714286 484.141614907 21.6035714286 350 -2.5 c 0,0,1
EndSplineSet
EndChar

StartChar: T
Encoding: 84 84 55
Width: 697
Flags: HW
LayerCount: 2
Fore
SplineSet
233 0 m 1,0,1
 214.862567765 12.0916214898 214.862567765 12.0916214898 214.862567765 46.6320057534 c 0,2,3
 214.862567765 89.6531041508 214.862567765 89.6531041508 243 167.5 c 0,4,5
 258 209 258 209 275.5 247 c 128,-1,6
 293 285 293 285 301.5 304.5 c 128,-1,7
 310 324 310 324 323.5 353 c 128,-1,8
 337 382 337 382 353.5 418.5 c 128,-1,9
 370 455 370 455 388 495 c 128,-1,10
 406 535 406 535 423 571 c 128,-1,11
 440 607 440 607 453 635.5 c 128,-1,12
 466 664 466 664 473 678 c 1,13,14
 466 679.333333333 466 679.333333333 456.944444444 679.333333333 c 0,15,16
 438.833333333 679.333333333 438.833333333 679.333333333 412.5 674 c 0,17,18
 373 666 373 666 325.5 654.5 c 128,-1,19
 278 643 278 643 227.5 630.5 c 128,-1,20
 177 618 177 618 134.5 612 c 0,21,22
 107.982626335 608.256370777 107.982626335 608.256370777 87.5935842815 608.256370777 c 0,23,24
 32.0885924448 608.256370777 32.0885924448 608.256370777 22 636 c 1,25,26
 49.9246171967 695.339811543 49.9246171967 695.339811543 634 809.5 c 0,27,28
 988.965727342 878.87966489 988.965727342 878.87966489 1169 893 c 0,29,30
 1184.69230769 894.230769231 1184.69230769 894.230769231 1195.84023669 894.230769231 c 0,31,32
 1220.92307692 894.230769231 1220.92307692 894.230769231 1223 888 c 0,33,34
 1224.8 882.6 1224.8 882.6 1224.8 875.58 c 0,35,36
 1224.8 870.9 1224.8 870.9 1224 865.5 c 0,37,38
 1222 852 1222 852 1208 848 c 1,39,40
 918.666666667 801.333333333 918.666666667 801.333333333 657 749 c 1,41,42
 556.191082803 727.777070064 556.191082803 727.777070064 447 486.5 c 0,43,44
 396.029649596 373.871967655 396.029649596 373.871967655 354.514824798 261.435983827 c 128,-1,45
 313 149 313 149 293 99.5 c 128,-1,46
 273 50 273 50 258 22.5 c 0,47,48
 245.307692308 -0.769230769231 245.307692308 -0.769230769231 236.195266272 -0.769230769231 c 0,49,50
 234.538461538 -0.769230769231 234.538461538 -0.769230769231 233 0 c 1,0,1
EndSplineSet
EndChar

StartChar: U
Encoding: 85 85 56
Width: 760
Flags: HW
LayerCount: 2
Fore
SplineSet
326 834 m 1,0,-1
 311 805 l 1,1,2
 129.021744523 405.398263745 129.021744523 405.398263745 105 216.5 c 0,3,4
 101.276923077 187.223076923 101.276923077 187.223076923 101.276923077 163.903076923 c 0,5,6
 101.276923077 118.323076923 101.276923077 118.323076923 115.5 95.5 c 0,7,8
 133.373493976 66.8192771084 133.373493976 66.8192771084 167.14232835 66.8192771084 c 0,9,10
 173.993975904 66.8192771084 173.993975904 66.8192771084 181.5 68 c 0,11,12
 226 75 226 75 288 117 c 128,-1,13
 350 159 350 159 419 225.5 c 128,-1,14
 488 292 488 292 560 376.5 c 128,-1,15
 632 461 632 461 696 553.5 c 0,16,17
 836.485614035 756.545614035 836.485614035 756.545614035 890 919 c 1,18,19
 892 921 892 921 897 926.5 c 128,-1,20
 902 932 902 932 904 932 c 1,21,22
 931.569581648 913.292069596 931.569581648 913.292069596 931.569581648 871.368671878 c 0,23,24
 931.569581648 833.436899158 931.569581648 833.436899158 909 776.5 c 0,25,26
 867.942675159 672.923566879 867.942675159 672.923566879 752.5 519 c 0,27,28
 647.325581395 378.76744186 647.325581395 378.76744186 514 246.5 c 0,29,30
 381.362522238 114.915200633 381.362522238 114.915200633 274.5 49 c 0,31,32
 198.151092809 1.90628154563 198.151092809 1.90628154563 152.333326595 1.90628154563 c 0,33,34
 129.10165747 1.90628154563 129.10165747 1.90628154563 113.719380702 14.0138236107 c 0,35,36
 68 50 68 50 52 108 c 0,37,38
 39.8095238095 152.19047619 39.8095238095 152.19047619 39.8095238095 203.056689342 c 0,39,40
 39.8095238095 218.952380952 39.8095238095 218.952380952 41 235.5 c 0,41,42
 46 305 46 305 67 382 c 128,-1,43
 88 459 88 459 117.5 533.5 c 128,-1,44
 147 608 147 608 180 675.5 c 128,-1,45
 213 743 213 743 241.5 794 c 128,-1,46
 270 845 270 845 289.5 875 c 0,47,48
 308.370967742 904.032258065 308.370967742 904.032258065 310.852757544 904.032258065 c 0,49,50
 329.624221453 904.032258065 329.624221453 904.032258065 329.624221453 867.138219131 c 0,51,52
 329.624221453 860.369550173 329.624221453 860.369550173 328.5 852.5 c 0,53,54
 327 842 327 842 326 834 c 1,0,-1
EndSplineSet
EndChar

StartChar: V
Encoding: 86 86 57
Width: 700
Flags: HW
LayerCount: 2
Fore
SplineSet
155.5 12.5 m 0,0,1
 153 12.323943662 153 12.323943662 150.566951002 12.323943662 c 0,2,3
 118.450704225 12.323943662 118.450704225 12.323943662 98 43 c 0,4,5
 76 76 76 76 60.5 140.5 c 128,-1,6
 45 205 45 205 38 282.5 c 0,7,8
 32.5555555556 342.777777778 32.5555555556 342.777777778 32.5555555556 406.685185185 c 0,9,10
 32.5555555556 424.944444444 32.5555555556 424.944444444 33 443.5 c 0,11,12
 35 527 35 527 47 600 c 0,13,14
 74.1003039514 764.860182371 74.1003039514 764.860182371 141 805 c 1,15,16
 146.817093171 801.121937886 146.817093171 801.121937886 146.817093171 778.751103299 c 0,17,18
 146.817093171 760.206364792 146.817093171 760.206364792 142.819642857 728.953571429 c 0,19,20
 134 660 134 660 126 605.5 c 128,-1,21
 118 551 118 551 110 491.5 c 128,-1,22
 102 432 102 432 95.5 372 c 128,-1,23
 89 312 89 312 87 259.5 c 0,24,25
 86.2727272727 240.409090909 86.2727272727 240.409090909 86.2727272727 222.640495868 c 0,26,27
 86.2727272727 191.545454545 86.2727272727 191.545454545 88.5 164.5 c 0,28,29
 92 122 92 122 104.5 98.5 c 0,30,31
 118.167108586 72.8058358582 118.167108586 72.8058358582 141.630849587 72.8058358582 c 0,32,33
 165.321788961 72.8058358582 165.321788961 72.8058358582 199 99 c 0,34,35
 291.727272727 171.727272727 291.727272727 171.727272727 368.863636364 248.863636364 c 0,36,37
 620.333333333 500.333333333 620.333333333 500.333333333 777 687 c 0,38,39
 871 799 871 799 961 919 c 0,40,41
 974.46973027 936.95964036 974.46973027 936.95964036 987.26126433 936.95964036 c 0,42,43
 996.04035964 936.95964036 996.04035964 936.95964036 1004.5 928.5 c 0,44,45
 1019.59433962 913.405660377 1019.59433962 913.405660377 1019.59433962 891.191349235 c 0,46,47
 1019.59433962 883.971698113 1019.59433962 883.971698113 1018 876 c 1,48,49
 1009 866 1009 866 990 845.5 c 128,-1,50
 971 825 971 825 947 798.5 c 128,-1,51
 923 772 923 772 897 742.5 c 128,-1,52
 871 713 871 713 847.5 686.5 c 128,-1,53
 824 660 824 660 805 638.5 c 128,-1,54
 786 617 786 617 770.5 599.5 c 128,-1,55
 755 582 755 582 719 537.5 c 128,-1,56
 683 493 683 493 637.5 439 c 128,-1,57
 592 385 592 385 540.5 325.5 c 128,-1,58
 489 266 489 266 436.5 211.5 c 128,-1,59
 384 157 384 157 332.5 112 c 128,-1,60
 281 67 281 67 236 41 c 128,-1,61
 191 15 191 15 155.5 12.5 c 0,0,1
EndSplineSet
EndChar

StartChar: W
Encoding: 87 87 58
Width: 877
Flags: HW
LayerCount: 2
Fore
SplineSet
88.5 -3 m 0,0,1
 85.5535714286 -3.89285714286 85.5535714286 -3.89285714286 82.6390306122 -3.89285714286 c 0,2,3
 69.2321428571 -3.89285714286 69.2321428571 -3.89285714286 56.5 15 c 0,4,5
 41 38 41 38 32.5 92.5 c 128,-1,6
 24 147 24 147 22 220 c 0,7,8
 21.3333333333 244.333333333 21.3333333333 244.333333333 21.3333333333 269.944444444 c 0,9,10
 21.3333333333 321.166666667 21.3333333333 321.166666667 24 377.5 c 0,11,12
 28 462 28 462 36 546 c 128,-1,13
 44 630 44 630 55.5 707.5 c 128,-1,14
 67 785 67 785 80.5 843 c 0,15,16
 108.122572557 961.674756169 108.122572557 961.674756169 136.686915194 961.674756169 c 0,17,18
 138.840780258 961.674756169 138.840780258 961.674756169 141 961 c 1,19,20
 153.857142857 952.428571429 153.857142857 952.428571429 156 946 c 1,21,22
 156.364433334 940.897933328 156.364433334 940.897933328 156.364433334 934.176461719 c 0,23,24
 156.364433334 887.70263704 156.364433334 887.70263704 138.942105263 763.810526316 c 0,25,26
 119 622 119 622 110.5 557 c 128,-1,27
 102 492 102 492 94.5 430 c 128,-1,28
 87 368 87 368 83 318.5 c 128,-1,29
 79 269 79 269 79 236.5 c 128,-1,30
 79 204 79 204 85 198 c 2,31,-1
 99 183 l 1,32,33
 142.160947318 201.173030449 142.160947318 201.173030449 221.5 435.5 c 0,34,35
 278.411764706 603.588235294 278.411764706 603.588235294 303.705882353 668.294117647 c 128,-1,36
 329 733 329 733 350 768 c 128,-1,37
 371 803 371 803 391 812.5 c 0,38,39
 396 814.875 396 814.875 400.90625 814.875 c 0,40,41
 415.625 814.875 415.625 814.875 429.5 793.5 c 0,42,43
 468.762112279 733.015124327 468.762112279 733.015124327 495 495 c 0,44,45
 496 490 496 490 499 470 c 128,-1,46
 502 450 502 450 508 421 c 128,-1,47
 514 392 514 392 521.5 358 c 128,-1,48
 529 324 529 324 538.5 292.5 c 128,-1,49
 548 261 548 261 558 234.5 c 128,-1,50
 568 208 568 208 579 194.5 c 0,51,52
 587.982043957 183.476582417 587.982043957 183.476582417 596.396720426 183.476582417 c 0,53,54
 609.932400253 183.476582417 609.932400253 183.476582417 622 212 c 0,55,56
 626 222 626 222 639 255 c 128,-1,57
 652 288 652 288 669.5 331.5 c 128,-1,58
 687 375 687 375 706.5 424 c 128,-1,59
 726 473 726 473 743.5 516.5 c 128,-1,60
 761 560 761 560 774 592.5 c 128,-1,61
 787 625 787 625 792 636.5 c 128,-1,62
 797 648 797 648 808.5 680.5 c 128,-1,63
 820 713 820 713 837 754 c 128,-1,64
 854 795 854 795 875 839 c 128,-1,65
 896 883 896 883 920 917 c 0,66,67
 966.318718579 982.618184653 966.318718579 982.618184653 1005.59157911 982.618184653 c 0,68,69
 1013.43635545 982.618184653 1013.43635545 982.618184653 1021 980 c 0,70,71
 1023 980 1023 980 1028.5 974.5 c 128,-1,72
 1034 969 1034 969 1034 966 c 1,73,74
 957 867 957 867 906.5 766.5 c 128,-1,75
 856 666 856 666 817.5 562 c 128,-1,76
 779 458 779 458 744.5 350 c 128,-1,77
 710 242 710 242 665 127 c 0,78,79
 642.324532188 68.5211619573 642.324532188 68.5211619573 615.336386076 68.5211619573 c 0,80,81
 600.794267947 68.5211619573 600.794267947 68.5211619573 585 85.5 c 0,82,83
 511.855524079 164.130311615 511.855524079 164.130311615 432 552 c 0,84,85
 415.254901961 633.333333333 415.254901961 633.333333333 410 678 c 1,86,-1
 396 678 l 2,87,88
 392.857142857 678 392.857142857 678 365.428571429 622 c 128,-1,89
 338 566 338 566 325.5 541 c 128,-1,90
 313 516 313 516 302 492.5 c 128,-1,91
 291 469 291 469 285 455.5 c 128,-1,92
 279 442 279 442 270 413.5 c 128,-1,93
 261 385 261 385 249 345.5 c 128,-1,94
 237 306 237 306 222 260 c 128,-1,95
 207 214 207 214 190.5 170 c 128,-1,96
 174 126 174 126 156.5 88 c 128,-1,97
 139 50 139 50 122 26 c 128,-1,98
 105 2 105 2 88.5 -3 c 0,0,1
EndSplineSet
EndChar

StartChar: X
Encoding: 88 88 59
Width: 671
Flags: HW
LayerCount: 2
Fore
SplineSet
577.5 45.5 m 0,0,1
 572 52 572 52 553.5 80 c 128,-1,2
 535 108 535 108 512.5 144 c 128,-1,3
 490 180 490 180 464.5 218.5 c 128,-1,4
 439 257 439 257 416.5 288.5 c 128,-1,5
 394 320 394 320 377 338.5 c 128,-1,6
 360 357 360 357 353 353 c 1,7,8
 275 280 275 280 213 203 c 128,-1,9
 151 126 151 126 85 42 c 0,10,11
 67 19 67 19 54 16.5 c 128,-1,12
 41 14 41 14 35 23.5 c 0,13,14
 30.2 31.1 30.2 31.1 30.2 43.82 c 0,15,16
 30.2 47 30.2 47 30.5 50.5 c 0,17,18
 32 68 32 68 45 89 c 128,-1,19
 58 110 58 110 86 142 c 128,-1,20
 114 174 114 174 146.5 209.5 c 128,-1,21
 179 245 179 245 211.5 282 c 128,-1,22
 244 319 244 319 268.5 354.5 c 0,23,24
 313.278519489 419.383160892 313.278519489 419.383160892 313.278519489 461.937679979 c 0,25,26
 313.278519489 471.536927614 313.278519489 471.536927614 311 480 c 1,27,28
 306 490 306 490 294.5 514 c 128,-1,29
 283 538 283 538 269.5 565 c 0,30,31
 234.2 635.6 234.2 635.6 220.6 658.8 c 128,-1,32
 207 682 207 682 197.5 698.5 c 0,33,34
 171.209302326 744.162790698 171.209302326 744.162790698 169.604651163 748.081395349 c 128,-1,35
 168 752 168 752 168 762.5 c 128,-1,36
 168 773 168 773 170 777 c 1,37,38
 174.021659451 780.093584193 174.021659451 780.093584193 178.843443766 780.093584193 c 0,39,40
 200.271097132 780.093584193 200.271097132 780.093584193 237.5 719 c 0,41,42
 257 687 257 687 277.5 648 c 128,-1,43
 298 609 298 609 317 576 c 128,-1,44
 336 543 336 543 353 522.5 c 0,45,46
 365.672727273 507.218181818 365.672727273 507.218181818 375.566942149 507.218181818 c 0,47,48
 378.945454545 507.218181818 378.945454545 507.218181818 382 509 c 1,49,50
 386.666666667 516 386.666666667 516 398.333333333 531 c 0,51,52
 419.333333333 558 419.333333333 558 425.666666667 567.5 c 128,-1,53
 432 577 432 577 448 607.5 c 128,-1,54
 464 638 464 638 486.5 669 c 0,55,56
 535.045180368 735.884470729 535.045180368 735.884470729 579.27373075 735.884470729 c 0,57,58
 586.697675924 735.884470729 586.697675924 735.884470729 594 734 c 0,59,60
 610 730 610 730 610 716.5 c 128,-1,61
 610 703 610 703 599 683.5 c 128,-1,62
 588 664 588 664 568.5 639.5 c 128,-1,63
 549 615 549 615 526.5 589 c 128,-1,64
 504 563 504 563 481.5 536 c 128,-1,65
 459 509 459 509 442 485.5 c 0,66,67
 409.206770918 440.168183328 409.206770918 440.168183328 409.206770918 418.286694732 c 0,68,69
 409.206770918 414.05562315 409.206770918 414.05562315 410.432885906 410.701342282 c 0,70,71
 418 390 418 390 439.5 355.5 c 128,-1,72
 461 321 461 321 488 280 c 128,-1,73
 515 239 515 239 543.5 195 c 128,-1,74
 572 151 572 151 594.5 112 c 0,75,76
 637.425038713 37.596599564 637.425038713 37.596599564 637.425038713 8.92853720861 c 0,77,78
 637.425038713 3.70510065393 637.425038713 3.70510065393 636 0 c 1,79,80
 634 -1 634 -1 629 -1 c 0,81,82
 616.846153846 -1 616.846153846 -1 577.5 45.5 c 0,0,1
EndSplineSet
EndChar

StartChar: Y
Encoding: 89 89 60
Width: 502
Flags: HW
LayerCount: 2
Fore
SplineSet
70 -160 m 0,0,1
 62.2016150685 -140.763983836 62.2016150685 -140.763983836 62.2016150685 -117.74108274 c 0,2,3
 62.2016150685 -65.4049613484 62.2016150685 -65.4049613484 102.5 6.5 c 0,4,5
 128 52 128 52 161.5 101 c 128,-1,6
 195 150 195 150 225 201.5 c 0,7,8
 296.657678115 324.512347431 296.657678115 324.512347431 295 419 c 1,9,10
 283.29588015 447.08988764 283.29588015 447.08988764 217.647940075 542.04494382 c 128,-1,11
 152 637 152 637 126.5 677 c 128,-1,12
 101 717 101 717 80.5 752 c 128,-1,13
 60 787 60 787 50 811 c 0,14,15
 42.5925925926 828.777777778 42.5925925926 828.777777778 42.5925925926 838.599451303 c 0,16,17
 42.5925925926 842.037037037 42.5925925926 842.037037037 43.5 844.5 c 0,18,19
 47 854 47 854 70 843 c 1,20,21
 99.347826087 816.913043478 99.347826087 816.913043478 147.673913043 741.456521739 c 128,-1,22
 196 666 196 666 225.5 619 c 128,-1,23
 255 572 255 572 280 535 c 128,-1,24
 305 498 305 498 324 476.5 c 0,25,26
 338.854545455 459.690909091 338.854545455 459.690909091 346.985454545 459.690909091 c 0,27,28
 349.254545455 459.690909091 349.254545455 459.690909091 351 461 c 1,29,30
 361 480 361 480 377 516 c 2,31,-1
 413 597 l 2,32,33
 498.92 790.32 498.92 790.32 532.46 851.16 c 128,-1,34
 566 912 566 912 584 935 c 0,35,36
 604.764835061 961.5328448 604.764835061 961.5328448 617.5870961 961.5328448 c 0,37,38
 628.8667888 961.5328448 628.8667888 961.5328448 634 941 c 1,39,40
 634.803277719 937.385250266 634.803277719 937.385250266 634.803277719 932.555978465 c 0,41,42
 634.803277719 871.522564354 634.803277719 871.522564354 506.5 616.5 c 0,43,44
 466 536 466 536 421.5 450 c 128,-1,45
 377 364 377 364 332.5 277 c 128,-1,46
 288 190 288 190 249.5 110.5 c 0,47,48
 161.759656652 -70.678111588 161.759656652 -70.678111588 140 -146 c 0,49,50
 130.454935622 -177.021459227 130.454935622 -177.021459227 109.5 -187 c 0,51,52
 103.739709291 -189.742995576 103.739709291 -189.742995576 98.519696122 -189.742995576 c 0,53,54
 81.3306649811 -189.742995576 81.3306649811 -189.742995576 70 -160 c 0,0,1
EndSplineSet
EndChar

StartChar: Z
Encoding: 90 90 61
Width: 1053
Flags: HW
LayerCount: 2
Fore
SplineSet
36 14 m 0,0,1
 24.623655914 22.4086021505 24.623655914 22.4086021505 24.623655914 36.4442132038 c 0,2,3
 24.623655914 50.7849462366 24.623655914 50.7849462366 36.5 71 c 0,4,5
 60 111 60 111 113 166.5 c 128,-1,6
 166 222 166 222 241.5 288.5 c 128,-1,7
 317 355 317 355 397.5 425 c 128,-1,8
 478 495 478 495 556 564.5 c 128,-1,9
 634 634 634 634 693 695 c 0,10,11
 805.957360076 811.786423129 805.957360076 811.786423129 805.957360076 866.069684728 c 0,12,13
 805.957360076 874.853046483 805.957360076 874.853046483 803 882 c 1,14,15
 801 882 801 882 774 877 c 128,-1,16
 747 872 747 872 706 865 c 128,-1,17
 665 858 665 858 614 850 c 128,-1,18
 563 842 563 842 513 836.5 c 128,-1,19
 463 831 463 831 418 828.5 c 0,20,21
 401.928571429 827.607142857 401.928571429 827.607142857 387.961734694 827.607142857 c 0,22,23
 362.821428571 827.607142857 362.821428571 827.607142857 344.5 830.5 c 0,24,25
 305.718738965 836.623357006 305.718738965 836.623357006 305.718738965 854.278992325 c 0,26,27
 305.718738965 865.718738965 305.718738965 865.718738965 322 882 c 1,28,29
 330.576651826 881.081073019 330.576651826 881.081073019 340.785256388 881.081073019 c 0,30,31
 384.673478361 881.081073019 384.673478361 881.081073019 458.724440117 898.065238559 c 0,32,33
 550 919 550 919 608.5 932.5 c 128,-1,34
 667 946 667 946 719.5 954.5 c 128,-1,35
 772 963 772 963 814 963.5 c 0,36,37
 815.35483871 963.516129032 815.35483871 963.516129032 816.688865765 963.516129032 c 0,38,39
 856.709677419 963.516129032 856.709677419 963.516129032 878 949 c 0,40,41
 898.744712603 934.855877771 898.744712603 934.855877771 898.744712603 908.133713848 c 0,42,43
 898.744712603 871.832982932 898.744712603 871.832982932 860.462686567 812.320895522 c 0,44,45
 794 709 794 709 716 629.5 c 128,-1,46
 638 550 638 550 553.5 479 c 128,-1,47
 469 408 469 408 380.5 338 c 0,48,49
 269.834845735 250.468239564 269.834845735 250.468239564 191.5 169 c 0,50,51
 160.530343008 136.791556728 160.530343008 136.791556728 145.265171504 109.895778364 c 0,52,53
 133.169485722 88.5843319866 133.169485722 88.5843319866 133.169485722 76.6252370548 c 0,54,55
 133.169485722 73.4915428337 133.169485722 73.4915428337 134 71 c 1,56,57
 137.862068966 69.8965517241 137.862068966 69.8965517241 144.42568371 69.8965517241 c 0,58,59
 161.655172414 69.8965517241 161.655172414 69.8965517241 197.5 77.5 c 0,60,61
 247 88 247 88 318 105 c 128,-1,62
 389 122 389 122 474.5 143 c 128,-1,63
 560 164 560 164 644.5 182.5 c 128,-1,64
 729 201 729 201 806.5 213.5 c 128,-1,65
 884 226 884 226 938.5 226 c 128,-1,66
 993 226 993 226 1018 210 c 0,67,68
 1032.20454545 200.909090909 1032.20454545 200.909090909 1032.20454545 184.715909091 c 0,69,70
 1032.20454545 172.409090909 1032.20454545 172.409090909 1024 156 c 1,71,72
 944.22300885 150.853097345 944.22300885 150.853097345 754.611504425 117.926548673 c 128,-1,73
 565 85 565 85 482 71 c 128,-1,74
 399 57 399 57 321.5 44 c 128,-1,75
 244 31 244 31 183 23 c 0,76,77
 92.5669713205 11.139930665 92.5669713205 11.139930665 57.3152233195 11.139930665 c 0,78,79
 40.004097069 11.139930665 40.004097069 11.139930665 36 14 c 0,0,1
EndSplineSet
EndChar

StartChar: bracketleft
Encoding: 91 91 62
Width: 593
Flags: HW
LayerCount: 2
Fore
SplineSet
70.5080645161 -91.1451612903 m 128,-1,1
 57.0161290323 -87.2903225806 57.0161290323 -87.2903225806 50.0080645161 -79.6451612903 c 128,-1,2
 43 -72 43 -72 42 -70 c 0,3,4
 40.3207486419 -57.4056148143 40.3207486419 -57.4056148143 40.3207486419 -35.4786376363 c 0,5,6
 40.3207486419 25.5376735796 40.3207486419 25.5376735796 53.323943662 158.820422535 c 0,7,8
 71 340 71 340 82 423.5 c 128,-1,9
 93 507 93 507 106.5 586.5 c 128,-1,10
 120 666 120 666 135.5 729.5 c 0,11,12
 169.680736417 869.530758868 169.680736417 869.530758868 206 881 c 0,13,14
 211.285714286 882.761904762 211.285714286 882.761904762 241.142857143 886.380952381 c 0,15,16
 296.235294118 893.058823529 296.235294118 893.058823529 304.117647059 895.029411765 c 128,-1,17
 312 897 312 897 329 902.5 c 128,-1,18
 346 908 346 908 367 914.5 c 128,-1,19
 388 921 388 921 411 929 c 128,-1,20
 434 937 434 937 454.5 944 c 0,21,22
 486.181818182 954.818181818 486.181818182 954.818181818 516 966 c 1,23,24
 519.6 966.8 519.6 966.8 524.16 966.8 c 0,25,26
 531 966.8 531 966.8 540 965 c 0,27,28
 555 962 555 962 565 955.5 c 0,29,30
 576.071981042 948.303212323 576.071981042 948.303212323 576.071981042 941.160904492 c 0,31,32
 576.071981042 932.035990521 576.071981042 932.035990521 558 923 c 1,33,34
 463 896 463 896 400.5 872 c 128,-1,35
 338 848 338 848 298 818.5 c 128,-1,36
 258 789 258 789 235.5 750 c 128,-1,37
 213 711 213 711 198 654 c 128,-1,38
 183 597 183 597 171.5 516.5 c 128,-1,39
 160 436 160 436 141 325 c 1,40,41
 124.603238866 270.344129555 124.603238866 270.344129555 117.801619433 177.672064777 c 0,42,43
 110.425182496 77.1681115036 110.425182496 77.1681115036 110.425182496 8.10698236611 c 0,44,45
 110.425182496 -23.8029199308 110.425182496 -23.8029199308 112 -49 c 1,46,-1
 537 -28 l 1,47,48
 542.538461538 -36.3076923077 542.538461538 -36.3076923077 542.538461538 -43.2307692308 c 0,49,50
 542.538461538 -51.3076923077 542.538461538 -51.3076923077 535 -57.5 c 0,51,52
 521 -69 521 -69 499.5 -75 c 0,53,54
 463.666666667 -85 463.666666667 -85 437 -85 c 1,55,56
 318.275652474 -102.313967347 318.275652474 -102.313967347 218.910341993 -102.313967347 c 0,57,58
 205.52964492 -102.313967347 205.52964492 -102.313967347 192.5 -102 c 0,59,60
 98.1818181818 -99.7272727273 98.1818181818 -99.7272727273 91.0909090909 -97.3636363636 c 128,-1,0
 84 -95 84 -95 70.5080645161 -91.1451612903 c 128,-1,1
EndSplineSet
EndChar

StartChar: backslash
Encoding: 92 92 63
Width: 410
Flags: HW
LayerCount: 2
Fore
SplineSet
339 14 m 1,0,1
 249.943937419 100.436766623 249.943937419 100.436766623 147.5 321.5 c 0,2,3
 67.6344827586 493.84137931 67.6344827586 493.84137931 25 645 c 1,4,5
 34.8507462687 677.507462687 34.8507462687 677.507462687 47.1274225885 677.507462687 c 0,6,7
 59.6685957965 677.507462687 59.6685957965 677.507462687 76 652.5 c 0,8,9
 92 628 92 628 111.5 583 c 128,-1,10
 131 538 131 538 154 482 c 128,-1,11
 177 426 177 426 203 363 c 128,-1,12
 229 300 229 300 259 239 c 0,13,14
 328.930313589 96.8083623693 328.930313589 96.8083623693 395 29 c 1,15,16
 381 8 381 8 367.5 1 c 0,17,18
 364 -0.814814814815 364 -0.814814814815 360.399176955 -0.814814814815 c 0,19,20
 350.111111111 -0.814814814815 350.111111111 -0.814814814815 339 14 c 1,0,1
EndSplineSet
EndChar

StartChar: bracketright
Encoding: 93 93 64
Width: 558
Flags: HW
LayerCount: 2
Fore
SplineSet
84 -106 m 0,0,1
 76 -95 76 -95 97 -83.5 c 128,-1,2
 118 -72 118 -72 154 -61 c 128,-1,3
 190 -50 190 -50 234 -40.5 c 128,-1,4
 278 -31 278 -31 316.5 -24 c 0,5,6
 404.5 -8 404.5 -8 409 -8 c 1,7,8
 408.532216495 12.5824742268 408.532216495 12.5824742268 408.532216495 35.0875225848 c 0,9,10
 408.532216495 111.809278351 408.532216495 111.809278351 413.96875 210.875 c 0,11,12
 421 339 421 339 426 427.5 c 128,-1,13
 431 516 431 516 435 598 c 0,14,15
 440.876011656 718.458238954 440.876011656 718.458238954 440.876011656 792.355727301 c 0,16,17
 440.876011656 834.110499593 440.876011656 834.110499593 439 861 c 1,18,19
 435.4 861.2 435.4 861.2 431.12 861.2 c 0,20,21
 414 861.2 414 861.2 386 858 c 0,22,23
 351 854 351 854 308 849.5 c 128,-1,24
 265 845 265 845 219 841 c 0,25,26
 185.545454545 838.090909091 185.545454545 838.090909091 154.73553719 838.090909091 c 0,27,28
 143.181818182 838.090909091 143.181818182 838.090909091 132 838.5 c 0,29,30
 39.3383805135 841.89005925 39.3383805135 841.89005925 16 876 c 0,31,32
 14.9390965246 877.697445561 14.9390965246 877.697445561 14.9390965246 879.459252433 c 0,33,34
 14.9390965246 893.256117234 14.9390965246 893.256117234 80 911 c 0,35,36
 192.098498097 941.572317663 192.098498097 941.572317663 327.749262057 941.572317663 c 0,37,38
 334.346775031 941.572317663 334.346775031 941.572317663 341 941.5 c 0,39,40
 436.930379747 940.457278481 436.930379747 940.457278481 484 913 c 0,41,42
 508 899 508 899 510 876 c 0,43,44
 514.779443417 830.117343197 514.779443417 830.117343197 514.779443417 767.918385579 c 0,45,46
 514.779443417 715.611708987 514.779443417 715.611708987 511.399375975 651.76599064 c 0,47,48
 504 512 504 512 498 420 c 128,-1,49
 492 328 492 328 488.5 243 c 0,50,51
 485.465902673 169.314779192 485.465902673 169.314779192 485.465902673 111.7491054 c 0,52,53
 485.465902673 15.2045839643 485.465902673 15.2045839643 494 -36 c 0,54,55
 494 -40 494 -40 495.5 -48.5 c 128,-1,56
 497 -57 497 -57 496 -66 c 0,57,58
 493.329113924 -90.0379746835 493.329113924 -90.0379746835 480 -93 c 1,59,60
 467.532631067 -91.3376841423 467.532631067 -91.3376841423 453.04520338 -91.3376841423 c 0,61,62
 416.254291339 -91.3376841423 416.254291339 -91.3376841423 366.435835351 -102.05811138 c 0,63,64
 297 -117 297 -117 258 -125.5 c 128,-1,65
 219 -134 219 -134 185 -136.5 c 0,66,67
 174.600356826 -137.264679645 174.600356826 -137.264679645 165.166327895 -137.264679645 c 0,68,69
 104.843119763 -137.264679645 104.843119763 -137.264679645 84 -106 c 0,0,1
EndSplineSet
EndChar

StartChar: asciicircum
Encoding: 94 94 65
Width: 325
Flags: HW
LayerCount: 2
Fore
SplineSet
266 467 m 0,0,1
 264.869565217 469.260869565 264.869565217 469.260869565 254.434782609 510.130434783 c 128,-1,2
 244 551 244 551 237 578 c 128,-1,3
 230 605 230 605 222.5 626 c 128,-1,4
 215 647 215 647 208 659 c 128,-1,5
 201 671 201 671 197 665 c 128,-1,6
 193 659 193 659 185 640.5 c 128,-1,7
 177 622 177 622 166.5 598 c 128,-1,8
 156 574 156 574 143 549 c 128,-1,9
 130 524 130 524 115.5 505.5 c 0,10,11
 92.3399059519 475.95091449 92.3399059519 475.95091449 71.4647964222 475.95091449 c 0,12,13
 55.8425407751 475.95091449 55.8425407751 475.95091449 41.5 492.5 c 0,14,15
 37.9791666667 496.5625 37.9791666667 496.5625 37.9791666667 501.358506944 c 0,16,17
 37.9791666667 505.416666667 37.9791666667 505.416666667 40.5 510 c 0,18,19
 46 520 46 520 60 548 c 128,-1,20
 74 576 74 576 90 607.5 c 0,21,22
 125.891891892 678.162162162 125.891891892 678.162162162 146.445945946 722.081081081 c 128,-1,23
 167 766 167 766 190.5 782 c 0,24,25
 203.245762712 790.677966102 203.245762712 790.677966102 214.520683712 790.677966102 c 0,26,27
 224.033898305 790.677966102 224.033898305 790.677966102 232.5 784.5 c 0,28,29
 251 771 251 771 265 735.5 c 128,-1,30
 279 700 279 700 287.5 656.5 c 128,-1,31
 296 613 296 613 299 569 c 0,32,33
 300.636363636 545 300.636363636 545 300.636363636 525.016528926 c 0,34,35
 300.636363636 508.363636364 300.636363636 508.363636364 299.5 494.5 c 0,36,37
 297 464 297 464 288.5 453.5 c 0,38,39
 285.913043478 450.304347826 285.913043478 450.304347826 282.816635161 450.304347826 c 0,40,41
 275.739130435 450.304347826 275.739130435 450.304347826 266 467 c 0,0,1
EndSplineSet
EndChar

StartChar: underscore
Encoding: 95 95 66
Width: 784
Flags: HW
LayerCount: 2
Fore
SplineSet
206 4.5 m 128,-1,1
 157 1 157 1 113.936902486 -1.53632887189 c 0,2,3
 104.889832664 -2.06918288655 104.889832664 -2.06918288655 96.9296955766 -2.06918288655 c 0,4,5
 67.0004202473 -2.06918288655 67.0004202473 -2.06918288655 52.4369024857 5.46367112811 c 0,6,7
 27.2558139535 18.488372093 27.2558139535 18.488372093 22 29 c 1,8,9
 25.0718562874 41.2874251497 25.0718562874 41.2874251497 250.5 67.5 c 0,10,11
 480.116695938 94.1996158068 480.116695938 94.1996158068 612.952828085 94.1996158068 c 0,12,13
 676.962574095 94.1996158068 676.962574095 94.1996158068 718.5 88 c 0,14,15
 752 83 752 83 756 71 c 0,16,17
 758 68 758 68 758 57 c 128,-1,18
 758 46 758 46 756 42 c 1,19,20
 706.166666667 37.6666666667 706.166666667 37.6666666667 609.583333333 31.3333333333 c 128,-1,21
 513 25 513 25 445 20.5 c 128,-1,22
 377 16 377 16 316 12 c 128,-1,0
 255 8 255 8 206 4.5 c 128,-1,1
EndSplineSet
EndChar

StartChar: grave
Encoding: 96 96 67
Width: 212
Flags: HW
LayerCount: 2
Fore
SplineSet
148 535 m 1,0,1
 131 565 131 565 112 577 c 128,-1,2
 93 589 93 589 78.5 599.5 c 128,-1,3
 64 610 64 610 57 626.5 c 0,4,5
 53.5 634.75 53.5 634.75 53.5 648.125 c 128,-1,6
 53.5 661.5 53.5 661.5 57 680 c 1,7,8
 59.6311442471 680.194899574 59.6311442471 680.194899574 62.2824291363 680.194899574 c 0,9,10
 109.453483389 680.194899574 109.453483389 680.194899574 163 618.5 c 0,11,12
 186 592 186 592 200.5 564.5 c 0,13,14
 216.060606061 534.988505747 216.060606061 534.988505747 216.060606061 518.003673095 c 0,15,16
 216.060606061 503.485714286 216.060606061 503.485714286 202.372244898 503.485714286 c 0,17,18
 201.942857143 503.485714286 201.942857143 503.485714286 201.5 503.5 c 0,19,20
 186 504 186 504 148 535 c 1,0,1
EndSplineSet
EndChar

StartChar: a
Encoding: 97 97 68
Width: 877
Flags: HW
LayerCount: 2
Fore
SplineSet
142 -4 m 0,0,1
 105 0 105 0 73 27 c 128,-1,2
 41 54 41 54 37.5 103 c 0,3,4
 36.9024390244 111.365853659 36.9024390244 111.365853659 36.9024390244 120.06692445 c 0,5,6
 36.9024390244 162.329268293 36.9024390244 162.329268293 51 212.5 c 0,7,8
 68 273 68 273 101.5 340 c 128,-1,9
 135 407 135 407 178.5 467.5 c 128,-1,10
 222 528 222 528 273 576 c 128,-1,11
 324 624 324 624 375.5 647.5 c 0,12,13
 417.029855411 666.450516547 417.029855411 666.450516547 453.263175877 666.450516547 c 0,14,15
 517.439586763 666.450516547 517.439586763 666.450516547 565 607 c 0,16,17
 597.220207367 567.046942864 597.220207367 567.046942864 597.220207367 515.427375464 c 0,18,19
 597.220207367 497.887206635 597.220207367 497.887206635 593.5 479 c 0,20,21
 587 446 587 446 573.5 412 c 128,-1,22
 560 378 560 378 547 343 c 0,23,24
 521.411208429 274.107099617 521.411208429 274.107099617 521.411208429 222.593163961 c 0,25,26
 521.411208429 209.757057623 521.411208429 209.757057623 523 198 c 0,27,28
 531.739749715 135.073802054 531.739749715 135.073802054 594.768186379 135.073802054 c 0,29,30
 673.99482043 135.073802054 673.99482043 135.073802054 839 234.5 c 0,31,32
 907.754768392 275.929155313 907.754768392 275.929155313 956.5 311.5 c 2,33,-1
 975 325 l 1,34,35
 987.894736842 327.578947368 987.894736842 327.578947368 996.649584488 327.578947368 c 0,36,37
 1011.65789474 327.578947368 1011.65789474 327.578947368 1014.5 320 c 0,38,39
 1015.4 317.6 1015.4 317.6 1015.4 314.78 c 0,40,41
 1015.4 303.5 1015.4 303.5 1001 285.5 c 0,42,43
 983 263 983 263 946.5 233.5 c 128,-1,44
 910 204 910 204 863.5 176.5 c 128,-1,45
 817 149 817 149 764.5 126.5 c 128,-1,46
 712 104 712 104 662 95.5 c 0,47,48
 636.014717184 91.0825019213 636.014717184 91.0825019213 613.166247228 91.0825019213 c 0,49,50
 536.360212694 91.0825019213 536.360212694 91.0825019213 495 141 c 0,51,52
 482 156 482 156 474.5 171.5 c 128,-1,53
 467 187 467 187 453 198 c 1,54,55
 434 180 434 180 408 152 c 128,-1,56
 382 124 382 124 351 96 c 128,-1,57
 320 68 320 68 285.5 43 c 128,-1,58
 251 18 251 18 215 5 c 0,59,60
 187.470588235 -4.94117647059 187.470588235 -4.94117647059 159.356401384 -4.94117647059 c 0,61,62
 150.705882353 -4.94117647059 150.705882353 -4.94117647059 142 -4 c 0,0,1
86.5 139 m 0,63,64
 81.3428571429 116.2 81.3428571429 116.2 81.3428571429 97.5257142857 c 0,65,66
 81.3428571429 81.8 81.3428571429 81.8 85 69 c 0,67,68
 93 41 93 41 118 36 c 0,69,70
 124.41025641 34.7179487179 124.41025641 34.7179487179 131.412228797 34.7179487179 c 0,71,72
 151.717948718 34.7179487179 151.717948718 34.7179487179 177 45.5 c 0,73,74
 211 60 211 60 251.5 91.5 c 128,-1,75
 292 123 292 123 331.5 167.5 c 128,-1,76
 371 212 371 212 407 266 c 128,-1,77
 443 320 443 320 468.5 379.5 c 0,78,79
 512.68475061 482.597751423 512.68475061 482.597751423 512.68475061 571.703107687 c 0,80,81
 512.68475061 597.434995935 512.68475061 597.434995935 509 622 c 1,82,83
 494.224848931 634.088759966 494.224848931 634.088759966 474.320798031 634.088759966 c 0,84,85
 438.990360694 634.088759966 438.990360694 634.088759966 387.5 596 c 0,86,87
 316.566037736 543.528301887 316.566037736 543.528301887 238 435.5 c 0,88,89
 115.451403888 266.995680346 115.451403888 266.995680346 86.5 139 c 0,63,64
EndSplineSet
EndChar

StartChar: b
Encoding: 98 98 69
Width: 685
Flags: HW
LayerCount: 2
Fore
SplineSet
28.5 28 m 128,-1,1
 23 39 23 39 21.5 41.5 c 128,-1,2
 20 44 20 44 20 49 c 128,-1,3
 20 54 20 54 29 71 c 128,-1,4
 38 88 38 88 58.5 141 c 128,-1,5
 79 194 79 194 101 257.5 c 128,-1,6
 123 321 123 321 146.5 389 c 128,-1,7
 170 457 170 457 193 520 c 128,-1,8
 216 583 216 583 238.5 635.5 c 128,-1,9
 261 688 261 688 281 720 c 0,10,11
 304.959352798 758.334964477 304.959352798 758.334964477 322.383478109 758.334964477 c 0,12,13
 336.266014209 758.334964477 336.266014209 758.334964477 346 734 c 0,14,15
 353.133638132 716.760374515 353.133638132 716.760374515 353.133638132 695.415755302 c 0,16,17
 353.133638132 636.889396887 353.133638132 636.889396887 299.5 547.5 c 0,18,19
 253.27 470.45 253.27 470.45 240.635 427.225 c 0,20,21
 231.582364616 396.255457896 231.582364616 396.255457896 231.582364616 371.561417214 c 0,22,23
 231.582364616 361.789339382 231.582364616 361.789339382 233 353 c 1,24,25
 269 362 269 362 296.5 386.5 c 128,-1,26
 324 411 324 411 351 439 c 128,-1,27
 378 467 378 467 406.5 490.5 c 128,-1,28
 435 514 435 514 483 524 c 0,29,30
 500.777777778 527.703703704 500.777777778 527.703703704 517.458161866 527.703703704 c 0,31,32
 545.814814815 527.703703704 545.814814815 527.703703704 571 517 c 0,33,34
 611 500 611 500 631 465 c 0,35,36
 649.604651163 432.441860465 649.604651163 432.441860465 649.604651163 387.769064359 c 0,37,38
 649.604651163 384.418604651 649.604651163 384.418604651 649.5 381 c 0,39,40
 648 332 648 332 624 280 c 128,-1,41
 600 228 600 228 552.5 177.5 c 128,-1,42
 505 127 505 127 432 89 c 0,43,44
 285.528235052 12.7544237256 285.528235052 12.7544237256 87.4714920153 12.7544237256 c 0,45,46
 62.1571017634 12.7544237256 62.1571017634 12.7544237256 36 14 c 1,47,0
 34 17 34 17 28.5 28 c 128,-1,1
172 192 m 128,-1,49
 146 150 146 150 139.5 130 c 128,-1,50
 133 110 133 110 132.5 104 c 128,-1,51
 132 98 132 98 132 91.5 c 0,52,53
 132 75 132 75 134 71 c 1,54,55
 160.761350897 67.1769498719 160.761350897 67.1769498719 187.70271088 67.1769498719 c 0,56,57
 270.746216368 67.1769498719 270.746216368 67.1769498719 355.5 103.5 c 0,58,59
 467.571428571 151.530612245 467.571428571 151.530612245 529.5 240 c 0,60,61
 588.609303911 324.44186273 588.609303911 324.44186273 588.609303911 420.11983496 c 0,62,63
 588.609303911 435.906960891 588.609303911 435.906960891 587 452 c 0,64,65
 586 455 586 455 580 460 c 128,-1,66
 574 465 574 465 572 466 c 0,67,68
 559.651764706 467.807058824 559.651764706 467.807058824 546.749364706 467.807058824 c 0,69,70
 479.011764706 467.807058824 479.011764706 467.807058824 396 418 c 0,71,72
 312.1 367.66 312.1 367.66 233 275 c 0,73,48
 198 234 198 234 172 192 c 128,-1,49
EndSplineSet
EndChar

StartChar: c
Encoding: 99 99 70
Width: 699
Flags: HW
LayerCount: 2
Fore
SplineSet
326 424 m 1,0,1
 344.780487805 456.552845528 344.780487805 456.552845528 396 522 c 1,2,3
 391.323227809 531.353544382 391.323227809 531.353544382 380.276955169 531.353544382 c 0,4,5
 359.574647079 531.353544382 359.574647079 531.353544382 316.5 498.5 c 0,6,7
 252.027979275 449.32642487 252.027979275 449.32642487 189 368 c 0,8,9
 90.5966229872 241.027900629 90.5966229872 241.027900629 90.5966229872 151.252134998 c 0,10,11
 90.5966229872 138.766330625 90.5966229872 138.766330625 92.5 127 c 0,12,13
 98 93 98 93 128 71 c 1,14,15
 136.060788341 70.410186219 136.060788341 70.410186219 144.824392289 70.410186219 c 0,16,17
 246.945126007 70.410186219 246.945126007 70.410186219 444.5 150.5 c 0,18,19
 500 173 500 173 545.5 191.5 c 0,20,21
 632.252003705 226.772792715 632.252003705 226.772792715 658.289478528 226.772792715 c 0,22,23
 663.454414569 226.772792715 663.454414569 226.772792715 666.23030303 225.384848485 c 0,24,25
 677.817705082 219.591147459 677.817705082 219.591147459 677.817705082 210.161644042 c 0,26,27
 677.817705082 205.944437508 677.817705082 205.944437508 675.5 201 c 0,28,29
 668 185 668 185 641.5 165.5 c 128,-1,30
 615 146 615 146 573.5 125 c 128,-1,31
 532 104 532 104 483.5 84.5 c 128,-1,32
 435 65 435 65 383 48.5 c 128,-1,33
 331 32 331 32 282.5 21.5 c 0,34,35
 219.083464438 7.77064694013 219.083464438 7.77064694013 176.291213838 7.77064694013 c 0,36,37
 147.466728312 7.77064694013 147.466728312 7.77064694013 128 14 c 0,38,39
 64 35 64 35 43.5 80 c 0,40,41
 29.4916666667 110.75 29.4916666667 110.75 29.4916666667 146.869861111 c 0,42,43
 29.4916666667 163.608333333 29.4916666667 163.608333333 32.5 181.5 c 0,44,45
 42 238 42 238 75.5 301.5 c 128,-1,46
 109 365 109 365 155 422.5 c 128,-1,47
 201 480 201 480 252.5 526.5 c 128,-1,48
 304 573 304 573 349 596.5 c 0,49,50
 386.105263158 615.877192982 386.105263158 615.877192982 414.711757464 615.877192982 c 0,51,52
 420.798245614 615.877192982 420.798245614 615.877192982 426.5 615 c 0,53,54
 459 610 459 610 467 565 c 1,55,56
 467.865016031 559.233226463 467.865016031 559.233226463 467.865016031 553.17461216 c 0,57,58
 467.865016031 518.787882334 467.865016031 518.787882334 440 475 c 0,59,60
 410.050632911 427.936708861 410.050632911 427.936708861 373.5 408 c 0,61,62
 357 399 357 399 343.5 402 c 128,-1,63
 330 405 330 405 326 424 c 1,0,1
EndSplineSet
EndChar

StartChar: d
Encoding: 100 100 71
Width: 680
Flags: HW
LayerCount: 2
Fore
SplineSet
636 14 m 1,0,1
 630.746691166 -2.81058826997 630.746691166 -2.81058826997 611.685552005 -2.81058826997 c 0,2,3
 600.479117742 -2.81058826997 600.479117742 -2.81058826997 584.5 3 c 0,4,5
 550.714285714 15.2857142857 550.714285714 15.2857142857 537 29 c 1,6,7
 462.260628466 80.9926062847 462.260628466 80.9926062847 438 212 c 1,8,-1
 424 212 l 1,9,10
 236.949458484 58.285198556 236.949458484 58.285198556 122 38 c 0,11,12
 104.346153846 34.8846153846 104.346153846 34.8846153846 89.3883136095 34.8846153846 c 0,13,14
 61.1346153846 34.8846153846 61.1346153846 34.8846153846 42.5 46 c 0,15,16
 14 63 14 63 5.5 96.5 c 0,17,18
 1.79487179487 111.102564103 1.79487179487 111.102564103 1.79487179487 127.890203813 c 0,19,20
 1.79487179487 149.615384615 1.79487179487 149.615384615 8 175 c 0,21,22
 19 220 19 220 47 265.5 c 128,-1,23
 75 311 75 311 118.5 352 c 128,-1,24
 162 393 162 393 219.5 420 c 0,25,26
 294.964285004 455.435403393 294.964285004 455.435403393 376.888970174 455.435403393 c 0,27,28
 434.355118632 455.435403393 434.355118632 455.435403393 495 438 c 1,29,-1
 509 452 l 1,30,-1
 678 791 l 1,31,32
 721.174310033 784.458437874 721.174310033 784.458437874 721.174310033 739.018952937 c 0,33,34
 721.174310033 724.889900143 721.174310033 724.889900143 717 707 c 0,35,36
 706.314763231 661.206128134 706.314763231 661.206128134 679.657381616 609.103064067 c 128,-1,37
 653 557 653 557 638.5 528 c 128,-1,38
 624 499 624 499 607.5 466.5 c 128,-1,39
 591 434 591 434 576.5 404.5 c 128,-1,40
 562 375 562 375 551 353.5 c 128,-1,41
 540 332 540 332 533 317 c 128,-1,42
 526 302 526 302 522 277.5 c 0,43,44
 517.454529826 249.658995187 517.454529826 249.658995187 517.454529826 222.554256819 c 0,45,46
 517.454529826 193.545642084 517.454529826 193.545642084 523 127 c 1,47,48
 528 104 528 104 542.5 90 c 128,-1,49
 557 76 557 76 574 64.5 c 128,-1,50
 591 53 591 53 608 41.5 c 128,-1,51
 625 30 625 30 636 14 c 1,0,1
71 85 m 1,52,53
 74.7244998583 70.1020005667 74.7244998583 70.1020005667 92.5680068075 70.1020005667 c 0,54,55
 111.000644051 70.1020005667 111.000644051 70.1020005667 144.5 86 c 0,56,57
 233.941847206 128.446978335 233.941847206 128.446978335 353 237 c 0,58,59
 419.39667129 297.53814147 419.39667129 297.53814147 447.5 347 c 0,60,61
 455.512820513 361.102564103 455.512820513 361.102564103 455.512820513 371.095989481 c 0,62,63
 455.512820513 376.692307692 455.512820513 376.692307692 453 381 c 1,64,65
 414 402 414 402 366.5 402 c 128,-1,66
 319 402 319 402 272 385.5 c 128,-1,67
 225 369 225 369 182 338 c 128,-1,68
 139 307 139 307 109.5 267 c 0,69,70
 62.6708702808 203.502874957 62.6708702808 203.502874957 62.6708702808 139.289605921 c 0,71,72
 62.6708702808 112.208490416 62.6708702808 112.208490416 71 85 c 1,52,53
EndSplineSet
EndChar

StartChar: e
Encoding: 101 101 72
Width: 544
Flags: HW
LayerCount: 2
Fore
SplineSet
49 52 m 0,0,1
 30 77 30 77 24 108.5 c 0,2,3
 20.7151648697 125.745384434 20.7151648697 125.745384434 20.7151648697 145.259029582 c 0,4,5
 20.7151648697 187.352234551 20.7151648697 187.352234551 36 240 c 1,6,7
 74 280 74 280 121 331.5 c 128,-1,8
 168 383 168 383 220.5 433.5 c 0,9,10
 345.155097299 553.406331687 345.155097299 553.406331687 445 593 c 0,11,12
 457.237192049 597.89487682 457.237192049 597.89487682 466.801295339 597.89487682 c 0,13,14
 486.08293673 597.89487682 486.08293673 597.89487682 494.5 578 c 0,15,16
 500.419296525 564.008935487 500.419296525 564.008935487 500.419296525 546.515585898 c 0,17,18
 500.419296525 535.501995917 500.419296525 535.501995917 498.073005093 523.100169779 c 0,19,20
 487.333333333 466.333333333 487.333333333 466.333333333 473 452 c 1,21,22
 455.328703704 431.115740741 455.328703704 431.115740741 394.664351852 392.05787037 c 128,-1,23
 334 353 334 353 293 326.5 c 128,-1,24
 252 300 252 300 214 272 c 128,-1,25
 176 244 176 244 145 216 c 128,-1,26
 114 188 114 188 98.5 162 c 0,27,28
 85.4850921983 140.168541752 85.4850921983 140.168541752 85.4850921983 121.862078596 c 0,29,30
 85.4850921983 91.6215593687 85.4850921983 91.6215593687 121 71 c 1,31,32
 133.190708472 69.548725182 133.190708472 69.548725182 148.133260622 69.548725182 c 0,33,34
 247.711789597 69.548725182 247.711789597 69.548725182 469.5 134 c 0,35,36
 528 151 528 151 566 160 c 1,37,-1
 581 146 l 1,38,39
 547.7375 101.65 547.7375 101.65 449.5 61 c 0,40,41
 367.646478873 27.1295774648 367.646478873 27.1295774648 260.5 11 c 0,42,43
 216.561758472 4.38564106037 216.561758472 4.38564106037 180.891415827 4.38564106037 c 0,44,45
 85.1869127941 4.38564106037 85.1869127941 4.38564106037 49 52 c 0,0,1
372.56642554 453.164801661 m 0,46,47
 364.512438779 453.164801661 364.512438779 453.164801661 332.441860465 431.11627907 c 0,48,49
 293 404 293 404 279.5 394.5 c 0,50,51
 251.49264578 374.791121104 251.49264578 374.791121104 251.49264578 370.791935881 c 0,52,53
 251.49264578 370.25367711 251.49264578 370.25367711 252 370 c 256,54,55
 252.738889706 369.630555147 252.738889706 369.630555147 253.890514509 369.630555147 c 0,56,57
 268.178654412 369.630555147 268.178654412 369.630555147 346 426.5 c 0,58,59
 375.077387673 447.748860222 375.077387673 447.748860222 375.077387673 451.644264157 c 0,60,61
 375.077387673 453.164801661 375.077387673 453.164801661 372.56642554 453.164801661 c 0,46,47
EndSplineSet
EndChar

StartChar: f
Encoding: 102 102 73
Width: 587
Flags: HW
LayerCount: 2
Fore
SplineSet
49.5 29.5 m 0,0,1
 48 32 48 32 48 42.5 c 128,-1,2
 48 53 48 53 50 56 c 2,3,-1
 155 297 l 1,4,-1
 36 297 l 2,5,6
 30.5714285714 297 30.5714285714 297 26.2857142857 309 c 0,7,8
 20.8068181818 324.340909091 20.8068181818 324.340909091 20.8068181818 332.708677686 c 0,9,10
 20.8068181818 336.613636364 20.8068181818 336.613636364 22 339 c 1,11,12
 46 345 46 345 92 368 c 0,13,14
 96 369 96 369 113 375 c 128,-1,15
 130 381 130 381 149.5 387.5 c 0,16,17
 199 404 199 404 205 410 c 1,18,19
 226.02745098 425.019607843 226.02745098 425.019607843 287 554 c 0,20,21
 361.584745763 711.775423729 361.584745763 711.775423729 404.792372881 781.387711864 c 128,-1,22
 448 851 448 851 488 896.5 c 128,-1,23
 528 942 528 942 571.5 961.5 c 0,24,25
 597.880318019 973.325659802 597.880318019 973.325659802 623.879741238 973.325659802 c 0,26,27
 691.217377829 973.325659802 691.217377829 973.325659802 756 894 c 1,28,29
 771.347368421 873.536842105 771.347368421 873.536842105 771.347368421 851.319699248 c 0,30,31
 771.347368421 844.736842105 771.347368421 844.736842105 770 838 c 1,32,33
 762.480187259 833.214664619 762.480187259 833.214664619 754.504808073 833.214664619 c 0,34,35
 733.789194491 833.214664619 733.789194491 833.214664619 710 865.5 c 0,36,37
 703 875 703 875 700 880 c 1,38,39
 670.104519116 884.804630856 670.104519116 884.804630856 643.514531418 884.804630856 c 0,40,41
 538.947190616 884.804630856 538.947190616 884.804630856 485.5 810.5 c 0,42,43
 451.129657228 762.716840537 451.129657228 762.716840537 423.564828614 697.858420268 c 128,-1,44
 396 633 396 633 381.5 605.5 c 128,-1,45
 367 578 367 578 354.5 554.5 c 128,-1,46
 342 531 342 531 331 508.5 c 0,47,48
 304 453.272727273 304 453.272727273 304 452 c 2,49,-1
 304 438 l 2,50,51
 304 433.152173913 304 433.152173913 341.5 429.076086957 c 128,-1,52
 379 425 379 425 406 422 c 128,-1,53
 433 419 433 419 458 413.5 c 0,54,55
 515.575757576 400.833333333 515.575757576 400.833333333 530 381 c 1,56,-1
 516 368 l 1,57,58
 459.2 371.2 459.2 371.2 416.48 371.2 c 0,59,60
 405.8 371.2 405.8 371.2 396 371 c 0,61,62
 347 370 347 370 311 354.5 c 128,-1,63
 275 339 275 339 247.5 305.5 c 128,-1,64
 220 272 220 272 200.5 231.5 c 128,-1,65
 181 191 181 191 164.5 158 c 128,-1,66
 148 125 148 125 132.5 93.5 c 0,67,68
 94.71875 16.71875 94.71875 16.71875 92 14 c 2,69,-1
 78 0 l 1,70,71
 62.5714285714 7.71428571429 62.5714285714 7.71428571429 49.5 29.5 c 0,0,1
EndSplineSet
EndChar

StartChar: g
Encoding: 103 103 74
Width: 452
Flags: HW
LayerCount: 2
Fore
SplineSet
-170 -353 m 0,0,1
 -240.207317073 -327.797373358 -240.207317073 -327.797373358 -271 -252 c 0,2,3
 -288.768881615 -208.261214487 -288.768881615 -208.261214487 -288.768881615 -165.500915769 c 0,4,5
 -288.768881615 -147.160453416 -288.768881615 -147.160453416 -285.5 -129 c 0,6,7
 -281 -104 -281 -104 -270.5 -91 c 128,-1,8
 -260 -78 -260 -78 -246 -85 c 1,9,10
 -246.036363636 -88.9636363636 -246.036363636 -88.9636363636 -246.036363636 -92.8565289256 c 0,11,12
 -246.036363636 -196.018181818 -246.036363636 -196.018181818 -220.5 -249.5 c 0,13,14
 -194 -305 -194 -305 -150.5 -319 c 0,15,16
 -133.1 -324.6 -133.1 -324.6 -113.94 -324.6 c 0,17,18
 -85.2 -324.6 -85.2 -324.6 -52.5 -312 c 0,19,20
 2 -291 2 -291 57 -246.5 c 128,-1,21
 112 -202 112 -202 162.5 -140.5 c 128,-1,22
 213 -79 213 -79 248.5 -12 c 0,23,24
 305.640214147 95.8420943049 305.640214147 95.8420943049 305.640214147 179.030710588 c 0,25,26
 305.640214147 211.379290639 305.640214147 211.379290639 297 240 c 1,27,28
 138.677208913 125.655761993 138.677208913 125.655761993 67.9928371973 125.655761993 c 0,29,30
 64.114499075 125.655761993 64.114499075 125.655761993 60.5 126 c 0,31,32
 17.6070577857 130.085042116 17.6070577857 130.085042116 17.6070577857 180.63917278 c 0,33,34
 17.6070577857 199.377456876 17.6070577857 199.377456876 23.5 224.5 c 0,35,36
 43.0880557977 308.006974717 43.0880557977 308.006974717 113.5 412 c 0,37,38
 186.691872428 520.098765432 186.691872428 520.098765432 256.5 566 c 0,39,40
 296.63036811 592.38709136 296.63036811 592.38709136 327.361781439 592.38709136 c 0,41,42
 359.236563291 592.38709136 359.236563291 592.38709136 381 564 c 0,43,44
 420.301664791 512.501266826 420.301664791 512.501266826 420.301664791 410.897209252 c 0,45,46
 420.301664791 367.103016658 420.301664791 367.103016658 413 314 c 0,47,48
 390.051724138 147.103448276 390.051724138 147.103448276 304.5 -24 c 0,49,50
 211.761589404 -209.476821192 211.761589404 -209.476821192 96.5 -298.5 c 0,51,52
 5.47117886144 -368.806813074 5.47117886144 -368.806813074 -84.691705976 -368.806813074 c 0,53,54
 -127.443195569 -368.806813074 -127.443195569 -368.806813074 -170 -353 c 0,0,1
88.5 278 m 128,-1,56
 83 264 83 264 82.5 254 c 128,-1,57
 82 244 82 244 82 232.5 c 0,58,59
 82 204 82 204 85 198 c 1,60,61
 95.4107095976 195.223810774 95.4107095976 195.223810774 106.218054763 195.223810774 c 0,62,63
 153.338946873 195.223810774 153.338946873 195.223810774 208 248 c 0,64,65
 264.709916589 302.754402224 264.709916589 302.754402224 305.5 385.5 c 0,66,67
 337.077431641 449.557075614 337.077431641 449.557075614 337.077431641 481.326757507 c 0,68,69
 337.077431641 489.475448241 337.077431641 489.475448241 335 495.5 c 0,70,71
 331.092641485 506.831339693 331.092641485 506.831339693 320.238683738 506.831339693 c 0,72,73
 299.635026715 506.831339693 299.635026715 506.831339693 254 466 c 1,74,75
 158.094488189 376.488188976 158.094488189 376.488188976 126.047244094 334.244094488 c 128,-1,55
 94 292 94 292 88.5 278 c 128,-1,56
EndSplineSet
EndChar

StartChar: h
Encoding: 104 104 75
Width: 692
Flags: HW
LayerCount: 2
Fore
SplineSet
580 368 m 1,0,1
 578 344 578 344 578 286 c 0,2,3
 578 180 578 180 579.5 161.5 c 128,-1,4
 581 143 581 143 592.5 122 c 128,-1,5
 604 101 604 101 617 81 c 128,-1,6
 630 61 630 61 640.5 45.5 c 0,7,8
 650.086956522 31.347826087 650.086956522 31.347826087 650.086956522 29.2835538752 c 0,9,10
 650.086956522 24.414474549 650.086956522 24.414474549 624.89763136 24.414474549 c 0,11,12
 593.22593901 24.414474549 593.22593901 24.414474549 564 54.5 c 0,13,14
 527.442477876 92.1327433628 527.442477876 92.1327433628 523 141 c 0,15,16
 521 153 521 153 519 183.5 c 128,-1,17
 517 214 517 214 514.5 247.5 c 0,18,19
 509 321.2 509 321.2 509 353 c 1,20,-1
 480 368 l 1,21,22
 478.233517986 368.75706372 478.233517986 368.75706372 475.80574079 368.75706372 c 0,23,24
 441.432770093 368.75706372 441.432770093 368.75706372 274.5 217 c 0,25,26
 247 192 247 192 219 164 c 2,27,-1
 161.5 106.5 l 2,28,29
 132 77 132 77 106.5 50.5 c 128,-1,30
 81 24 81 24 71 14 c 1,31,32
 57.4 10.8 57.4 10.8 44.44 10.8 c 0,33,34
 41.2 10.8 41.2 10.8 38 11 c 0,35,36
 22 12 22 12 14 29 c 0,37,38
 13 31 13 31 13 35.5 c 128,-1,39
 13 40 13 40 15.5 46 c 128,-1,40
 18 52 18 52 30 76.5 c 128,-1,41
 42 101 42 101 55.5 128 c 0,42,43
 93.6666666667 204.333333333 93.6666666667 204.333333333 108.333333333 227.666666667 c 128,-1,44
 123 251 123 251 138.5 277 c 128,-1,45
 154 303 154 303 172 333.5 c 128,-1,46
 190 364 190 364 208 394.5 c 128,-1,47
 226 425 226 425 242 451.5 c 128,-1,48
 258 478 258 478 275.5 507 c 128,-1,49
 293 536 293 536 326 592.5 c 128,-1,50
 359 649 359 649 394 706.5 c 128,-1,51
 429 764 429 764 463 817.5 c 128,-1,52
 497 871 497 871 526 906.5 c 0,53,54
 565.836314076 955.265143094 565.836314076 955.265143094 585.594944879 955.265143094 c 0,55,56
 597.351692244 955.265143094 597.351692244 955.265143094 602 938 c 0,57,58
 603 933 603 933 603 917.5 c 128,-1,59
 603 902 603 902 602 897 c 1,60,61
 594 884 594 884 579 862 c 128,-1,62
 564 840 564 840 548 815.5 c 128,-1,63
 532 791 532 791 517.5 769 c 128,-1,64
 503 747 503 747 493.5 732 c 128,-1,65
 484 717 484 717 459 678 c 128,-1,66
 434 639 434 639 402.5 590 c 128,-1,67
 371 541 371 541 338.5 488 c 128,-1,68
 306 435 306 435 279.5 389 c 0,69,70
 225.26326292 294.853211107 225.26326292 294.853211107 225.26326292 272.287656875 c 0,71,72
 225.26326292 269.657658429 225.26326292 269.657658429 226 268 c 1,73,74
 270.129032258 281.238709677 270.129032258 281.238709677 360 348 c 0,75,76
 457.75862069 420.620689655 457.75862069 420.620689655 495 438 c 1,77,78
 525 434 525 434 548 415.5 c 128,-1,79
 571 397 571 397 580 368 c 1,0,1
EndSplineSet
EndChar

StartChar: i
Encoding: 105 105 76
Width: 317
Flags: HW
LayerCount: 2
Fore
SplineSet
14 14 m 1,0,1
 65 178 65 178 107 275 c 128,-1,2
 149 372 149 372 176.5 411 c 0,3,4
 196.928571429 439.971428571 196.928571429 439.971428571 207.975918367 439.971428571 c 0,5,6
 211.8 439.971428571 211.8 439.971428571 214.5 436.5 c 0,7,8
 219.4 430.2 219.4 430.2 219.4 414.535555556 c 0,9,10
 219.4 396.633333333 219.4 396.633333333 213 366.5 c 0,11,12
 201 310 201 310 163 216 c 128,-1,13
 125 122 125 122 56 0 c 1,14,15
 49.8461538462 -2.46153846154 49.8461538462 -2.46153846154 42.3668639053 -2.46153846154 c 0,16,17
 37.6923076923 -2.46153846154 37.6923076923 -2.46153846154 32.5 -1.5 c 0,18,19
 19 1 19 1 14 14 c 1,0,1
233 658 m 1,20,21
 249.571428571 663.714285714 249.571428571 663.714285714 261.571428571 663.714285714 c 0,22,23
 270.571428571 663.714285714 270.571428571 663.714285714 277 660.5 c 0,24,25
 292 653 292 653 295.5 638.5 c 0,26,27
 297.03125 632.15625 297.03125 632.15625 297.03125 625.4296875 c 0,28,29
 297.03125 616.78125 297.03125 616.78125 294.5 607.5 c 0,30,31
 290 591 290 591 280 583 c 0,32,33
 274.074074074 578.259259259 274.074074074 578.259259259 267.270233196 578.259259259 c 0,34,35
 262.592592593 578.259259259 262.592592593 578.259259259 257.5 580.5 c 0,36,37
 245 586 245 586 238 603.5 c 128,-1,38
 231 621 231 621 231 637.5 c 128,-1,39
 231 654 231 654 233 658 c 1,20,21
EndSplineSet
EndChar

StartChar: j
Encoding: 106 106 77
Width: 233
Flags: HW
LayerCount: 2
Fore
SplineSet
-304 -437 m 0,0,1
 -335 -424 -335 -424 -367 -400 c 128,-1,2
 -399 -376 -399 -376 -417 -347 c 0,3,4
 -432.845961351 -321.4703956 -432.845961351 -321.4703956 -432.845961351 -297.913311209 c 0,5,6
 -432.845961351 -258.727662578 -432.845961351 -258.727662578 -389 -225 c 1,7,8
 -380 -226 -380 -226 -376.5 -237.5 c 128,-1,9
 -373 -249 -373 -249 -371 -265 c 128,-1,10
 -369 -281 -369 -281 -367 -300 c 128,-1,11
 -365 -319 -365 -319 -358.5 -336 c 0,12,13
 -343.251682369 -375.880215343 -343.251682369 -375.880215343 -304 -381 c 0,14,15
 -291.678139718 -382.729383899 -291.678139718 -382.729383899 -279.658564828 -382.729383899 c 0,16,17
 -146.193707022 -382.729383899 -146.193707022 -382.729383899 -50 -169.5 c 0,18,19
 1.42158461037 -55.515487447 1.42158461037 -55.515487447 35.7107923052 63.2422562765 c 128,-1,20
 70 182 70 182 88.5 239.5 c 0,21,22
 130.014822657 368.532556908 130.014822657 368.532556908 162 382 c 1,23,24
 178.400622155 376.874805577 178.400622155 376.874805577 178.400622155 336.590128559 c 0,25,26
 178.400622155 297.552910795 178.400622155 297.552910795 163 225.5 c 0,27,28
 112.288799886 -11.755971964 112.288799886 -11.755971964 -16.5 -236 c 0,29,30
 -105.285583104 -390.591368228 -105.285583104 -390.591368228 -204 -436 c 0,31,32
 -229.555555556 -447.755555556 -229.555555556 -447.755555556 -255.111111111 -447.755555556 c 0,33,-1
 -304 -437 l 0,0,1
152 630 m 0,34,35
 158.275862069 641.655172414 158.275862069 641.655172414 170.580261593 641.655172414 c 0,36,37
 172 641.655172414 172 641.655172414 173.5 641.5 c 0,38,39
 188 640 188 640 200 622 c 0,40,41
 207.578947368 610.631578947 207.578947368 610.631578947 207.578947368 590.886426593 c 0,42,43
 207.578947368 579.368421053 207.578947368 579.368421053 205 565 c 1,44,45
 201.468095126 562.645396751 201.468095126 562.645396751 197.605342715 562.645396751 c 0,46,47
 190.88415352 562.645396751 190.88415352 562.645396751 183.161290323 569.774193548 c 0,48,49
 171 581 171 581 158 599 c 0,50,51
 149.55 610.7 149.55 610.7 149.55 620.2875 c 0,52,53
 149.55 625.45 149.55 625.45 152 630 c 0,34,35
EndSplineSet
EndChar

StartChar: k
Encoding: 107 107 78
Width: 911
Flags: HW
LayerCount: 2
Fore
SplineSet
587 14 m 1,0,1
 579.717511013 10.3587555066 579.717511013 10.3587555066 572.467103476 10.3587555066 c 0,2,3
 551.094162996 10.3587555066 551.094162996 10.3587555066 530 42 c 1,4,5
 449 152 449 152 400.5 224 c 128,-1,6
 352 296 352 296 321 331 c 0,7,8
 291.273972603 364.561643836 291.273972603 364.561643836 271.662413211 364.561643836 c 0,9,10
 270.821917808 364.561643836 270.821917808 364.561643836 270 364.5 c 0,11,12
 250 363 250 363 227 326.5 c 128,-1,13
 204 290 204 290 170 218.5 c 128,-1,14
 136 147 136 147 78 42 c 0,15,16
 68.447665272 24.2599497908 68.447665272 24.2599497908 54.8871183628 24.2599497908 c 0,17,18
 50.6401338912 24.2599497908 50.6401338912 24.2599497908 46 26 c 0,19,20
 22.1095006028 34.958937274 22.1095006028 34.958937274 22.1095006028 63.0721956039 c 0,21,22
 22.1095006028 80.2220977999 22.1095006028 80.2220977999 31 104.5 c 0,23,24
 58.9589041096 180.849315068 58.9589041096 180.849315068 108.979452055 273.424657534 c 128,-1,25
 159 366 159 366 195.5 431 c 128,-1,26
 232 496 232 496 269 559.5 c 128,-1,27
 306 623 306 623 338 677.5 c 128,-1,28
 370 732 370 732 395 773 c 128,-1,29
 420 814 420 814 431 834 c 1,30,31
 435.909090909 837.272727273 435.909090909 837.272727273 440.966942149 837.272727273 c 0,32,33
 445.181818182 837.272727273 445.181818182 837.272727273 449.5 835 c 0,34,35
 459 830 459 830 465.5 819.5 c 0,36,37
 475.905628754 802.690907398 475.905628754 802.690907398 475.905628754 789.684309329 c 0,38,39
 475.905628754 782.811257507 475.905628754 782.811257507 473 777 c 1,40,-1
 360 580 l 1,41,-1
 360 551 l 1,42,43
 368.640883363 549.338291661 368.640883363 549.338291661 378.856249777 549.338291661 c 0,44,45
 451.556150933 549.338291661 451.556150933 549.338291661 604 633.5 c 0,46,47
 684.071269488 677.706013363 684.071269488 677.706013363 745.535634744 719.853006682 c 128,-1,48
 807 762 807 762 826 777 c 1,49,50
 843 786 843 786 856 782.5 c 128,-1,51
 869 779 869 779 875.5 769 c 128,-1,52
 882.119640119 758.815938279 882.119640119 758.815938279 882.119640119 748.639216422 c 0,53,54
 882.119640119 734.312334675 882.119640119 734.312334675 869 720 c 1,55,56
 809.954545455 660.954545455 809.954545455 660.954545455 683.5 612.5 c 0,57,58
 630 592 630 592 574 573.5 c 128,-1,59
 518 555 518 555 467.5 534 c 0,60,61
 349.787769784 485.050359712 349.787769784 485.050359712 304 424 c 1,62,63
 357.18134715 377.466321244 357.18134715 377.466321244 469.5 237.5 c 0,64,65
 536.29624171 154.261606485 536.29624171 154.261606485 561.648120855 106.630803242 c 128,-1,66
 587 59 587 59 587 42 c 2,67,-1
 587 14 l 1,0,1
EndSplineSet
EndChar

StartChar: l
Encoding: 108 108 79
Width: 410
Flags: HW
LayerCount: 2
Fore
SplineSet
71 14 m 0,0,1
 17.9121681264 51.3049629382 17.9121681264 51.3049629382 17.9121681264 127.815186989 c 0,2,3
 17.9121681264 146.267414563 17.9121681264 146.267414563 21 167 c 0,4,5
 36.5611510791 271.482014388 36.5611510791 271.482014388 136 445.5 c 0,6,7
 158 484 158 484 165 499 c 128,-1,8
 172 514 172 514 179.5 529 c 128,-1,9
 187 544 187 544 197.5 564 c 128,-1,10
 208 584 208 584 219 607 c 128,-1,11
 230 630 230 630 240.5 650.5 c 0,12,13
 266.230769231 700.736263736 266.230769231 700.736263736 275.615384615 724.868131868 c 128,-1,14
 285 749 285 749 294 770.5 c 128,-1,15
 303 792 303 792 313.5 811.5 c 128,-1,16
 324 831 324 831 335.5 840 c 0,17,18
 342.754805251 845.677673674 342.754805251 845.677673674 349.503103121 845.677673674 c 0,19,20
 367.565986761 845.677673674 367.565986761 845.677673674 382 805 c 1,21,22
 377 792 377 792 358 755 c 128,-1,23
 339 718 339 718 312.5 665.5 c 128,-1,24
 286 613 286 613 254.5 549.5 c 128,-1,25
 223 486 223 486 192.5 420.5 c 128,-1,26
 162 355 162 355 136 293 c 128,-1,27
 110 231 110 231 93.5 180.5 c 0,28,29
 72.8837921399 117.401909277 72.8837921399 117.401909277 72.8837921399 85.8457485553 c 0,30,31
 72.8837921399 61.6542303347 72.8837921399 61.6542303347 85 56 c 0,32,33
 98.1039933822 49.4480033089 98.1039933822 49.4480033089 123.277301599 49.4480033089 c 0,34,35
 149.393472895 49.4480033089 149.393472895 49.4480033089 188.5 56.5 c 0,36,37
 269.310644494 71.0724113022 269.310644494 71.0724113022 293.823801872 71.0724113022 c 0,38,39
 295.551773956 71.0724113022 295.551773956 71.0724113022 297 71 c 1,40,41
 302 60 302 60 289.5 49.5 c 128,-1,42
 277 39 277 39 254.5 31 c 128,-1,43
 232 23 232 23 203 17.5 c 128,-1,44
 174 12 174 12 147 9.5 c 0,45,46
 124.866164373 7.45057077529 124.866164373 7.45057077529 108.832307692 7.45057077529 c 0,47,48
 80.1692009146 7.45057077529 80.1692009146 7.45057077529 71 14 c 0,0,1
EndSplineSet
EndChar

